<svg width="30" height="30" viewBox="0 0 30 30" fill="none" xmlns="http://www.w3.org/2000/svg">
<g clip-path="url(#clip0_5345_3737)">
<path d="M24.7042 19.2446L26.4559 18.8305L26.87 20.5822L7.60117 25.1376L7.18704 23.3859L8.93875 22.9718L5.8328 9.83392C5.77788 9.60163 5.81749 9.35704 5.94292 9.15395C6.06834 8.95086 6.2693 8.80592 6.50159 8.751L15.2602 6.68037C15.4924 6.62545 15.737 6.66506 15.9401 6.79048C16.1432 6.91591 16.2882 7.11687 16.3431 7.34916L19.449 20.487L22.9525 19.6588L21.2959 12.6519L19.5442 13.066L19.1301 11.3143L21.7577 10.6931C21.99 10.6382 22.2346 10.6778 22.4377 10.8032C22.6407 10.9287 22.7857 11.1296 22.8406 11.3619L24.7042 19.2446ZM7.79158 10.2957L10.6905 22.5576L17.6973 20.9011L14.7984 8.63914L7.79158 10.2957ZM10.7857 15.1367L14.2891 14.3084L14.7032 16.0601L11.1998 16.8884L10.7857 15.1367ZM9.95742 11.6332L13.4608 10.805L13.875 12.5567L10.3715 13.385L9.95742 11.6332Z" fill="#34A853"/>
</g>
<defs>
<clipPath id="clip0_5345_3737">
<rect width="24" height="24" fill="white" transform="translate(0.933594 6.05872) rotate(-13.3012)"/>
</clipPath>
</defs>
</svg>
