<svg width="27" height="27" viewBox="0 0 27 27" fill="none" xmlns="http://www.w3.org/2000/svg">
<path d="M11.7649 19.7731L14.4493 19.4826L13.8626 14.062L9.94577 11.3284L6.70443 14.8367L7.29106 20.2573L9.97538 19.9668L9.58804 16.3877L11.3776 16.194L11.7649 19.7731ZM22.6959 20.4006L6.58995 22.1436C6.35264 22.1693 6.11485 22.0997 5.92889 21.95C5.74293 21.8004 5.62402 21.583 5.59834 21.3457L4.87082 14.6233C4.85697 14.4954 4.87068 14.3661 4.91103 14.244C4.95137 14.1219 5.01742 14.0098 5.10472 13.9154L8.0681 10.7078L7.62808 6.64196C7.6024 6.40465 7.67204 6.16686 7.82169 5.98089C7.97133 5.79493 8.18872 5.67603 8.42603 5.65035L20.9529 4.29466C21.1902 4.26898 21.428 4.33862 21.6139 4.48826C21.7999 4.6379 21.9188 4.85529 21.9445 5.0926L23.4938 19.409C23.5195 19.6463 23.4499 19.8841 23.3002 20.0701C23.1506 20.256 22.9332 20.3749 22.6959 20.4006ZM17.2537 11.937L17.4474 13.7266L19.2369 13.5329L19.0432 11.7434L17.2537 11.937ZM17.641 15.5161L17.8347 17.3057L19.6242 17.112L19.4306 15.3225L17.641 15.5161ZM16.8663 8.35793L17.06 10.1475L18.8496 9.95381L18.6559 8.16426L16.8663 8.35793ZM13.2872 8.74527L13.4809 10.5348L15.2705 10.3412L15.0768 8.5516L13.2872 8.74527Z" fill="#4285F4"/>
</svg>
