<svg width="113" height="113" viewBox="0 0 113 113" fill="none" xmlns="http://www.w3.org/2000/svg">
<circle cx="56.5" cy="56.5" r="56.5" fill="#171717"/>
<path d="M24.7203 23.5217C23.9202 22.7784 22.8523 22.6302 22.109 23.4302L18.9719 26.807L21.8663 29.4959L25.0034 26.1192C25.7466 25.3191 25.5145 24.2595 24.7203 23.5217ZM13.6021 27.5613L20.1385 20.5255C22.1258 18.3274 25.447 18.4098 27.5896 20.4332C29.7532 22.4104 30.0911 25.7274 28.045 27.8709L21.5085 34.9067L13.6021 27.5613ZM32.3589 23.3077L27.4557 13.6939L38.7076 7.95528L39.9625 10.416L32.4589 14.2429L33.0864 15.4733L40.59 11.6463L41.7246 13.8709L34.221 17.6979L34.8485 18.9282L42.3521 15.1012L43.6108 17.5691L32.3589 23.3077ZM47.3492 6.24046L51.4708 13.3099L53.891 5.49279L58.5979 4.95483L54.3266 16.3052L49.3565 16.8733L42.6423 6.77842L47.3492 6.24046ZM60.0263 15.7121L62.792 5.28061L75.5133 8.65346L74.6366 11.9599L65.9825 9.66536L65.645 10.9383L73.2823 12.9632L72.4736 16.0135L64.8362 13.9885L64.0933 16.7905L60.0263 15.7121ZM73.8203 19.4249L79.9399 10.5358L90.3436 17.6982L88.7773 19.9734L81.8393 15.197L81.0561 16.3346L87.9941 21.111L86.578 23.1679L79.64 18.3915L78.8569 19.5291L85.7949 24.3055L84.224 26.5873L73.8203 19.4249ZM93.5358 26.5939C93.1509 26.87 93.8616 27.971 94.784 29.3945C96.4152 31.9301 98.7122 35.4902 96.5087 37.061C94.0033 38.8583 91.3502 36.4135 89.141 33.3339C86.943 30.2561 85.4848 27.4383 87.9715 25.1603L90.5411 28.7422C90.1434 29.6205 90.6178 30.6538 91.3854 31.7238C92.1483 32.7873 93.2606 33.9658 93.9391 33.479C94.3241 33.2029 93.6199 32.0973 92.6975 30.6738C91.0663 28.1382 88.7693 24.578 90.9662 23.0119C93.4717 21.2146 96.1314 23.6548 98.3406 26.7344C100.526 29.8215 102.01 32.6206 99.5035 34.9127L96.9339 31.3307C97.3447 30.4431 96.8572 29.4192 96.0896 28.3491C95.3267 27.2856 94.234 26.0931 93.5358 26.5939ZM95.991 48.0908L94.8927 44.0291L102.008 42.1049L100.703 37.2759L104.005 36.3829L107.715 50.1028L104.413 50.9957L103.107 46.1666L95.991 48.0908ZM107.639 63.9959L106.537 68.0568L99.4231 66.1274L97.2184 74.257L93.917 73.3616L97.223 61.1712L107.639 63.9959ZM95.2432 84.7963L93.5006 81.7414L91.7879 84.1593L95.2432 84.7963ZM93.7803 73.5951L99.2402 84.5574L96.3486 88.6396L84.1957 87.1258L86.9342 83.2599L88.9332 83.6328L92.0569 79.2231L91.0418 77.461L93.7803 73.5951ZM80.6237 93.8389L81.6169 95.3959L75.4364 99.3387L72.1067 94.1194L73.8804 92.9879L74.959 94.2905C75.3499 92.5743 76.7168 91.1785 78.2603 90.1938C81.6943 88.0222 85.1274 87.2226 87.3077 90.6702L87.7309 91.3336C89.9426 94.7707 87.7705 97.5469 84.3494 99.7389C81.1948 101.751 78.0469 102.55 75.8596 100.002L79.6302 97.5967C80.0479 97.7588 80.5024 97.7546 80.9912 97.5952C81.4801 97.4357 81.9885 97.1876 82.5097 96.855C83.9522 95.9062 85.0115 94.8495 84.0455 93.3799L83.9029 93.1565C82.9689 91.6475 81.5727 92.1762 80.1043 93.0844C78.703 93.9784 77.8612 94.6296 77.7669 95.6613L80.6237 93.8389ZM65.9472 107.152C61.9513 107.888 58.4904 107.317 57.7517 103.305L57.6092 102.532C56.8547 98.5228 59.9103 96.76 63.8968 96.0177C67.8942 95.2898 71.3773 95.8487 72.1002 99.8633L72.2427 100.637C72.9986 104.654 69.9416 106.409 65.9472 107.152ZM61.7952 102.03L61.8432 102.291C62.138 104.025 63.6334 104.076 65.3277 103.788C67.0212 103.452 68.4003 102.872 68.0581 101.146L68.0101 100.886C67.7139 99.1441 66.2185 99.0929 64.5163 99.3818C62.8307 99.7167 61.4516 100.297 61.7952 102.03ZM50.2117 103.975C50.3009 103.509 49.0275 103.2 47.3787 102.802C44.4501 102.085 40.3334 101.083 40.8508 98.4274C41.4313 95.3991 45.0388 95.3466 48.761 96.0602C52.4739 96.7802 55.4712 97.8208 55.2351 101.185L50.9056 100.355C50.5897 99.4441 49.5343 99.021 48.241 98.7731C46.9555 98.5266 45.3375 98.4372 45.1803 99.2574C45.0911 99.7226 46.3629 100.04 48.0117 100.438C50.9403 101.155 55.057 102.156 54.5412 104.805C53.9606 107.833 50.3516 107.893 46.6294 107.18C42.9195 106.444 39.9162 105.435 40.1568 102.047L44.4863 102.877C44.7993 103.804 45.8576 104.211 47.151 104.459C48.4364 104.705 50.0499 104.818 50.2117 103.975ZM19.0334 87.4903C20.5458 85.8267 22.9651 87.0928 24.8383 88.1121C25.8424 88.6669 26.6801 89.0704 27.1824 88.9953L22.1026 84.377L24.1767 82.0955L34.1761 91.1863L32.9499 92.535C31.2917 94.359 27.9844 92.5894 25.4858 91.2077C23.9513 90.3769 22.7257 89.7076 22.3422 90.1295C22.0343 90.4681 22.3184 91.1822 23.4295 92.1923C24.5988 93.2337 25.7477 93.9635 26.4051 93.2046L29.5302 96.0458C27.0833 98.7372 24.5102 97.342 21.486 94.5926C18.4143 91.8 17.2617 89.439 19.0334 87.4903ZM15.0054 75.7855L14.3121 76.1578C13.541 76.5719 13.2369 77.1088 13.1927 77.6885C13.1703 78.2748 13.3893 78.8863 13.7046 79.4734C14.32 80.6195 15.269 81.6229 16.8041 80.7985L17.4974 80.4262C18.2685 80.0122 18.5905 79.4747 18.6129 78.8884C18.6353 78.3022 18.4196 77.6798 18.1119 77.1068C17.4889 75.9466 16.5476 74.9574 15.0054 75.7855ZM9.88579 78.4891C9.25366 76.2765 9.5092 73.9519 12.0842 72.5691L13.2444 71.9461C15.0342 70.985 16.578 71.1951 17.8556 72.0129C18.4197 72.3844 18.9287 72.8402 19.3937 73.3835C19.9775 74.0634 20.478 74.8428 20.8921 75.6139C21.3062 76.385 21.6794 77.2327 21.9199 78.0879C22.552 80.3004 22.3035 82.6213 19.7214 84.0078L18.5612 84.6308C16.7714 85.5919 15.2277 85.3819 13.9571 84.5603C13.3898 84.1996 12.8769 83.7368 12.412 83.1935C11.8319 82.5206 11.3314 81.7413 10.9173 80.9702C10.5033 80.1991 10.1301 79.3513 9.88579 78.4891ZM7.93586 57.0318C10.159 56.6963 11.2361 59.2054 12.0454 61.1784C12.474 62.2425 12.869 63.0843 13.306 63.3431L12.2815 56.5546L15.3304 56.0944L17.3471 69.4572L15.5448 69.7292C13.1072 70.097 11.6593 66.6369 10.5936 63.988C9.92789 62.375 9.39985 61.0823 8.83612 61.1674C8.38355 61.2357 8.15313 61.9688 8.37721 63.4536C8.62676 64.9995 9.05713 66.2907 10.046 66.117L10.6763 70.2934C7.07957 70.8362 5.96461 68.1298 5.35468 64.0884C4.73516 59.9835 5.3316 57.4248 7.93586 57.0318ZM9.4299 49.8153L9.63304 48.7505C10.4396 44.5228 11.4097 40.9803 14.6435 41.5972C15.7478 41.8079 16.4977 42.5477 16.8947 43.8087C17.2918 45.0698 17.2924 46.7375 16.8952 48.8198C16.1112 52.9292 14.8702 55.578 11.3366 54.9039L12.1265 50.763C13.2515 50.9939 13.4554 49.6677 13.7875 48.0553C14.084 46.5014 13.9625 45.7671 13.4025 45.6602C12.7241 45.5308 12.1238 45.8496 11.5024 49.1071L10.4295 54.7309L10.4058 54.7264L4.96574 52.3479L7.13555 40.9741L9.98293 41.5174L8.47821 49.4048L9.4299 49.8153Z" fill="white"/>
<path d="M39.8446 37.736L23.051 49.7756C19.5322 52.2982 18.7294 57.1892 21.2579 60.6999L21.2671 60.7127C23.7956 64.2234 28.6979 65.0243 32.2167 62.5016L49.0103 50.462C52.529 47.9393 53.3318 43.0483 50.8033 39.5377L50.7941 39.5249C48.2656 36.0142 43.3633 35.2133 39.8446 37.736Z" fill="#EA4335" stroke="black" stroke-width="0.856701" stroke-miterlimit="10"/>
<path d="M21.2671 51.5666L21.2579 51.5794C18.7294 55.0901 19.5322 59.9811 23.051 62.5037L39.8446 74.5433C43.3633 77.066 48.2656 76.2651 50.7941 72.7544L50.8033 72.7416C53.3318 69.2309 52.529 64.34 49.0103 61.8173L32.2167 49.7777C28.6979 47.255 23.7956 48.0559 21.2671 51.5666Z" fill="#4285F4" stroke="black" stroke-width="0.856701" stroke-miterlimit="10"/>
<path d="M80.3875 49.7667L63.594 61.8063C60.0752 64.329 59.2724 69.22 61.8009 72.7307L61.8101 72.7434C64.3386 76.2541 69.2409 77.055 72.7597 74.5324L89.5532 62.4928C93.072 59.9701 93.8748 55.0791 91.3463 51.5684L91.3371 51.5557C88.8086 48.045 83.9063 47.244 80.3875 49.7667Z" fill="#F9AB00" stroke="black" stroke-width="0.856701" stroke-miterlimit="10"/>
<path d="M61.8082 39.5288L61.799 39.5416C59.2705 43.0522 60.0732 47.9432 63.592 50.4659L80.3856 62.5055C83.9043 65.0282 88.8066 64.2272 91.3351 60.7166L91.3443 60.7038C93.8728 57.1931 93.07 52.3021 89.5513 49.7794L72.7577 37.7398C69.2389 35.2172 64.3367 36.0181 61.8082 39.5288Z" fill="#34A853" stroke="black" stroke-width="0.856701" stroke-miterlimit="10"/>
<circle cx="56.6178" cy="55.6171" r="53.5182" stroke="#34A853" stroke-width="1.5"/>
</svg>
