<svg width="28" height="28" viewBox="0 0 28 28" fill="none" xmlns="http://www.w3.org/2000/svg">
<path d="M13.1023 23.0888C8.1676 22.4914 4.65182 18.007 5.24928 13.0723C5.84675 8.13766 10.3311 4.62188 15.2658 5.21934C20.2005 5.8168 23.7162 10.3012 23.1188 15.2359C22.5213 20.1705 18.0369 23.6863 13.1023 23.0888ZM13.3186 21.3019C15.2143 21.5314 17.1236 20.9985 18.6264 19.8203C20.1291 18.6421 21.1023 16.9152 21.3318 15.0195C21.5614 13.1238 21.0284 11.2145 19.8502 9.71178C18.6721 8.20901 16.9452 7.23582 15.0495 7.00629C13.1537 6.77677 11.2445 7.30972 9.74172 8.48789C8.23895 9.66607 7.26576 11.393 7.03624 13.2887C6.80671 15.1844 7.33966 17.0936 8.51784 18.5964C9.69601 20.0992 11.4229 21.0724 13.3186 21.3019V21.3019ZM9.60848 14.5067L11.3954 14.723C11.3094 15.4339 11.5092 16.1499 11.951 16.7134C12.3928 17.277 13.0404 17.6419 13.7513 17.728C14.4622 17.8141 15.1782 17.6142 15.7417 17.1724C16.3053 16.7306 16.6702 16.083 16.7563 15.3721L18.5432 15.5885C18.3998 16.7733 17.7915 17.8526 16.8523 18.5889C15.9131 19.3253 14.7198 19.6584 13.535 19.5149C12.3502 19.3715 11.2708 18.7632 10.5345 17.824C9.79812 16.8848 9.46503 15.6915 9.60848 14.5067V14.5067ZM10.7183 12.8279C10.3629 12.7849 10.0391 12.6024 9.81817 12.3206C9.59726 12.0389 9.49733 11.6809 9.54037 11.3254C9.5834 10.97 9.76587 10.6462 10.0476 10.4253C10.3294 10.2044 10.6874 10.1045 11.0428 10.1475C11.3983 10.1905 11.7221 10.373 11.943 10.6548C12.1639 10.9365 12.2638 11.2945 12.2208 11.65C12.1778 12.0054 11.9953 12.3292 11.7135 12.5501C11.4317 12.771 11.0738 12.8709 10.7183 12.8279ZM17.8661 13.6933C17.5107 13.6503 17.1869 13.4678 16.966 13.186C16.7451 12.9043 16.6451 12.5463 16.6882 12.1908C16.7312 11.8354 16.9137 11.5116 17.1954 11.2907C17.4772 11.0698 17.8352 10.9699 18.1906 11.0129C18.5461 11.0559 18.8699 11.2384 19.0908 11.5202C19.3117 11.8019 19.4116 12.1599 19.3686 12.5154C19.3256 12.8708 19.1431 13.1946 18.8613 13.4155C18.5795 13.6364 18.2216 13.7364 17.8661 13.6933Z" fill="#F9AB00"/>
</svg>
