<svg width="184" height="182" viewBox="0 0 184 182" fill="none" xmlns="http://www.w3.org/2000/svg">
<g filter="url(#filter0_d_6613_5440)">
<circle cx="95.4082" cy="86.6162" r="86.6162" fill="#4285F4"/>
<path d="M23.2327 81.1347L31.4427 84.8998L30.9979 89.4047L15.272 93.0103L15.7902 87.7623L25.3822 86.3178L25.396 86.1785L16.313 82.4679L16.7211 78.3345L26.3893 76.4755L26.403 76.3362L17.244 73.0401L17.7622 67.7921L32.4792 74.4038L32.0343 78.9087L23.2465 80.9954L23.2327 81.1347ZM35.7726 64.1963C35.2301 65.5122 34.5389 66.5355 33.6992 67.2661C32.8536 68.0112 31.9186 68.4628 30.8943 68.621C29.8729 68.7719 28.8193 68.6236 27.7335 68.1759C26.6405 67.7252 25.7864 67.0828 25.1712 66.2487C24.5417 65.4086 24.1967 64.4292 24.1363 63.3106C24.0687 62.189 24.3018 60.981 24.8354 59.6867C25.375 58.378 26.0641 57.3496 26.9025 56.6016C27.7452 55.8637 28.6772 55.4193 29.6986 55.2683C30.7229 55.1102 31.7816 55.2564 32.8746 55.7071C33.9532 56.1518 34.8052 56.7891 35.4305 57.6191C36.0571 58.4663 36.4042 59.4508 36.4718 60.5724C36.5393 61.6939 36.3063 62.9019 35.7726 64.1963ZM32.934 63.0006C33.0852 62.6339 33.1129 62.2709 33.017 61.9117C32.911 61.5566 32.6898 61.2257 32.3537 60.9188C32.0175 60.6119 31.5761 60.3458 31.0296 60.1205C30.4831 59.8952 29.9825 59.7729 29.5277 59.7536C29.0801 59.7373 28.7008 59.8207 28.3897 60.0038C28.0787 60.1868 27.8461 60.4653 27.6919 60.8392C27.5318 61.2275 27.4976 61.5962 27.5892 61.9453C27.6749 62.3087 27.8823 62.6424 28.2113 62.9463C28.5403 63.2503 28.9816 63.5164 29.5353 63.7447C30.0746 63.967 30.5789 64.0908 31.048 64.116C31.5028 64.1352 31.8908 64.0512 32.212 63.864C32.5362 63.6695 32.7768 63.3817 32.934 63.0006ZM41.2519 53.0414L38.7017 56.9777L29.0667 50.7355L31.5407 46.9167L33.3816 48.1093L33.4577 47.9918C32.921 47.3754 32.6302 46.7514 32.5852 46.1199C32.538 45.4776 32.7089 44.8561 33.098 44.2556C33.3179 43.9161 33.5793 43.6128 33.8821 43.3456L36.8294 45.2551C36.6522 45.3998 36.4618 45.6008 36.2581 45.8581C36.0478 46.1111 35.8665 46.3551 35.7143 46.5901C35.469 46.9687 35.3199 47.3633 35.2671 47.7739C35.2207 48.1887 35.2797 48.5698 35.4439 48.9172C35.6081 49.2645 35.873 49.5566 36.2385 49.7934L41.2519 53.0414ZM35.253 35.6201L46.9914 45.4264L43.9844 49.0258L32.2461 39.2195L35.253 35.6201ZM51.723 41.3631C51.024 41.9699 50.2407 42.3667 49.3729 42.5536C48.4714 42.7491 47.5593 42.6655 46.6366 42.3026C45.7197 41.9347 44.8406 41.2661 43.9992 40.297C43.0865 39.2457 42.5321 38.2334 42.3362 37.2602C42.1488 36.3207 42.2053 35.4426 42.5055 34.6257C42.8116 33.8037 43.3024 33.0995 43.9778 32.5131C44.4712 32.0848 44.9637 31.786 45.4553 31.6167C45.936 31.4466 46.4067 31.3778 46.8676 31.4103C47.3343 31.4377 47.7649 31.5481 48.1592 31.7413L48.2121 31.6954L44.3877 27.2904L47.9294 24.2156L57.9568 35.7656L54.4504 38.8098L53.2113 37.3826L53.1232 37.459C53.2431 37.87 53.2762 38.2996 53.2225 38.748C53.1731 39.2131 53.0225 39.6684 52.7705 40.1137C52.5244 40.554 52.1752 40.9705 51.723 41.3631ZM50.9541 37.8435C51.2712 37.5682 51.4763 37.2408 51.5692 36.8614C51.6563 36.4871 51.6314 36.0967 51.4947 35.6901C51.3588 35.2725 51.1098 34.8552 50.7478 34.4381C50.3704 34.0035 49.9875 33.687 49.599 33.4887C49.1995 33.2896 48.8135 33.2127 48.4409 33.2581C48.0632 33.2976 47.7128 33.4576 47.3898 33.738C47.0609 34.0236 46.8562 34.3455 46.7758 34.7037C46.6895 35.067 46.7198 35.4579 46.8667 35.8762C47.0144 36.2836 47.2744 36.7017 47.6466 37.1305C48.0086 37.5475 48.3865 37.8581 48.7801 38.0623C49.1678 38.2716 49.5476 38.3591 49.9194 38.3247C50.2861 38.2844 50.631 38.124 50.9541 37.8435ZM70.2509 29.7742C68.7932 30.4009 67.3658 30.6845 65.9685 30.6248C64.5325 30.5734 63.2503 30.151 62.1218 29.3578C60.9975 28.5543 60.1081 27.3916 59.4537 25.8696C58.7808 24.3047 58.5555 22.8353 58.7775 21.4614C59.0016 20.112 59.5727 18.9097 60.4906 17.8547C61.4086 16.7996 62.5928 15.9602 64.0434 15.3366C65.0509 14.9034 66.032 14.6255 66.9868 14.5028C67.9416 14.3802 68.8404 14.4128 69.6832 14.6008C70.5393 14.7999 71.3026 15.1575 71.9732 15.6735C72.6438 16.1895 73.2078 16.8614 73.6653 17.6891L69.2708 19.5786C68.9248 18.9315 68.4275 18.523 67.7787 18.3532C67.1269 18.1763 66.4009 18.2599 65.6006 18.6039C64.8789 18.9142 64.334 19.3306 63.9659 19.8529C63.5978 20.3752 63.4076 20.9862 63.3951 21.6858C63.3898 22.3823 63.5623 23.1379 63.9125 23.9525C64.2842 24.8171 64.7252 25.4784 65.2354 25.9363C65.7486 26.4015 66.3147 26.6745 66.9337 26.7555C67.5568 26.8262 68.2221 26.7095 68.9295 26.4054C69.694 26.0767 70.2471 25.6399 70.5886 25.0952C70.9342 24.5402 71.0249 23.9339 70.8607 23.2764L75.2552 21.3869C75.4694 22.023 75.5422 22.724 75.4737 23.4901C75.4092 24.2459 75.1915 24.9999 74.8206 25.752C74.4182 26.5685 73.8364 27.3224 73.0753 28.0137C72.3214 28.7019 71.3799 29.2887 70.2509 29.7742ZM79.9434 10.1245L83.3132 25.0442L78.7383 26.0775L75.3685 11.1578L79.9434 10.1245ZM88.5161 24.7613C87.6705 24.8213 86.9285 24.7492 86.2902 24.545C84.8955 24.1215 84.1465 23.1804 84.043 21.7218C83.9577 20.5193 84.3515 19.5868 85.2247 18.9244C86.0318 18.3213 87.1422 17.9267 88.556 17.7406C89.282 17.6423 89.8636 17.5426 90.3009 17.4414C90.7304 17.3407 91.0375 17.2176 91.2221 17.0719C91.4145 16.9257 91.5027 16.7401 91.4867 16.5151L91.4842 16.4802C91.4639 16.1931 91.3199 15.9772 91.0523 15.8324C90.7925 15.6871 90.4569 15.6291 90.0457 15.6582C89.588 15.6907 89.2258 15.8061 88.9591 16.0044C88.6997 16.1943 88.5511 16.4622 88.5132 16.808L84.2305 17.1119C84.243 16.4092 84.4498 15.7512 84.8507 15.1379C85.265 14.4925 85.8983 13.968 86.7508 13.5645C87.6033 13.1609 88.658 12.9145 89.9149 12.8253C90.8304 12.7603 91.6633 12.7948 92.4136 12.9287C93.1638 13.0626 93.8152 13.2854 94.3675 13.5971C94.9121 13.9094 95.3361 14.2809 95.6396 14.7116C95.9509 15.1418 96.1252 15.6206 96.1626 16.1482L96.7192 23.9921L92.3434 24.3026L92.2286 22.6849L92.1355 22.6915C91.9092 23.1287 91.6195 23.4962 91.2663 23.7942C90.5734 24.358 89.6566 24.6804 88.5161 24.7613ZM89.8441 22.0471C90.1932 22.0223 90.526 21.9324 90.8425 21.7774C91.159 21.6224 91.4018 21.418 91.571 21.1643C91.7473 20.9022 91.8237 20.6044 91.8 20.2708L91.7331 19.3281C91.4599 19.4333 91.1897 19.5266 90.9225 19.6079C90.6626 19.6809 90.3217 19.7675 89.9 19.8676C89.5464 19.9395 89.2571 20.038 89.032 20.1631C88.598 20.42 88.3955 20.7541 88.4247 21.1653C88.4467 21.4756 88.5879 21.7073 88.8483 21.8604C89.1087 22.0135 89.4406 22.0757 89.8441 22.0471ZM104.158 25.064C102.87 24.8924 101.774 24.5854 100.867 24.1429C99.9699 23.6937 99.2937 23.1445 98.8388 22.4954C98.385 21.8385 98.1636 21.1146 98.1749 20.3236L102.778 20.937C102.8 21.3009 102.967 21.6057 103.28 21.8514C103.601 22.0904 104.024 22.2448 104.548 22.3147C104.987 22.3733 105.351 22.355 105.638 22.2599C105.933 22.1658 106.096 22.007 106.125 21.7834C106.179 21.3825 105.723 21.0353 104.758 20.7419L102.516 20.0782C101.233 19.6953 100.3 19.1827 99.7191 18.5402C99.1388 17.89 98.9087 17.1139 99.0289 16.2119C99.1358 15.4101 99.4681 14.7717 100.026 14.2967C100.577 13.813 101.315 13.4876 102.239 13.3205C103.173 13.1468 104.256 13.1421 105.49 13.3065C106.723 13.4709 107.77 13.7674 108.631 14.1961C109.5 14.6257 110.143 15.1625 110.559 15.8065C110.984 16.4439 111.159 17.1616 111.084 17.9599L106.828 17.3926C106.842 17.057 106.692 16.7663 106.379 16.5207C106.076 16.2683 105.689 16.1108 105.218 16.0481C104.802 15.9926 104.45 16.0124 104.163 16.1075C103.877 16.1949 103.718 16.3543 103.687 16.5856C103.665 16.7552 103.728 16.9245 103.878 17.0936C104.028 17.2704 104.336 17.4254 104.805 17.5585L107.386 18.3263C108.686 18.7035 109.625 19.1896 110.205 19.7848C110.786 20.3723 111.021 21.0823 110.91 21.915C110.8 22.74 110.436 23.4094 109.818 23.9235C109.2 24.4452 108.398 24.8053 107.415 25.0037C106.439 25.2032 105.353 25.2233 104.158 25.064ZM116.897 28.1667C115.671 27.7374 114.659 27.2141 113.862 26.5969C113.074 25.975 112.523 25.3 112.21 24.5721C111.898 23.8368 111.829 23.083 112 22.3107L116.383 23.8455C116.33 24.2063 116.432 24.5387 116.689 24.8427C116.955 25.1419 117.337 25.3789 117.836 25.5537C118.255 25.7002 118.614 25.7561 118.915 25.7213C119.223 25.689 119.414 25.5665 119.489 25.3536C119.623 24.9718 119.247 24.5394 118.361 24.0562L116.3 22.9513C115.122 22.3161 114.313 21.6249 113.874 20.8778C113.438 20.1234 113.37 19.3168 113.671 18.4579C113.938 17.6945 114.393 17.1368 115.035 16.7849C115.673 16.4231 116.462 16.2542 117.401 16.2782C118.35 16.2974 119.412 16.5127 120.587 16.9241C121.761 17.3354 122.726 17.8382 123.483 18.4327C124.246 19.0296 124.766 19.6857 125.043 20.4008C125.33 21.1111 125.356 21.8495 125.12 22.6159L121.068 21.1968C121.149 20.8709 121.062 20.5559 120.806 20.2519C120.559 19.9432 120.212 19.7104 119.765 19.5536C119.368 19.4148 119.02 19.3628 118.719 19.3976C118.421 19.4251 118.233 19.5489 118.156 19.7691C118.1 19.9306 118.128 20.1094 118.24 20.3054C118.351 20.5088 118.622 20.7232 119.054 20.9487L121.425 22.2243C122.621 22.8573 123.443 23.5241 123.889 24.2245C124.339 24.9176 124.425 25.6606 124.147 26.4534C123.872 27.2389 123.38 27.8206 122.671 28.1985C121.959 28.5838 121.101 28.7738 120.098 28.7685C119.102 28.7658 118.035 28.5652 116.897 28.1667ZM139.322 36.7404L137.404 39.4851L127.171 32.334L135.933 19.7967L146.204 26.9745L144.286 29.7191L137.878 25.2413L136.401 27.3548L142.273 31.4583L140.402 34.136L134.53 30.0325L132.953 32.2894L139.322 36.7404ZM141.772 44.022L138.603 40.5642L147.067 32.8078L150.204 36.2312L148.587 37.7131L148.65 37.7819C149.389 37.4949 150.131 37.4584 150.876 37.6726C151.632 37.8872 152.33 38.3443 152.972 39.0439C153.592 39.7205 154.001 40.4375 154.199 41.1949C154.381 41.946 154.357 42.6799 154.128 43.3966C153.904 44.108 153.485 44.7448 152.872 45.3071L147.479 50.2495L144.31 46.7917L149.067 42.4327C149.485 42.049 149.699 41.6262 149.708 41.1642C149.728 40.7026 149.541 40.2568 149.147 39.8267C148.884 39.54 148.607 39.3462 148.314 39.2454C148.01 39.1331 147.706 39.1115 147.4 39.1808C147.094 39.25 146.804 39.4107 146.528 39.663L141.772 44.022ZM151.309 57.0285C150.609 55.816 150.216 54.66 150.129 53.5606C150.028 52.4516 150.227 51.443 150.726 50.5349C151.226 49.6268 152.008 48.8655 153.072 48.2511C154.109 47.6522 155.145 47.3688 156.178 47.4009C157.225 47.4252 158.204 47.7445 159.116 48.3589C160.038 48.9761 160.831 49.8607 161.496 51.0126C161.986 51.8613 162.317 52.6987 162.489 53.5247C162.66 54.3508 162.666 55.138 162.505 55.8864C162.341 56.6454 162.017 57.3357 161.531 57.9572C161.057 58.5816 160.425 59.1212 159.637 59.5762L158.819 60.0487L154.572 52.6929C154.247 52.9076 153.994 53.1614 153.813 53.4546C153.613 53.7767 153.515 54.1293 153.521 54.5123C153.533 54.8914 153.65 55.2729 153.872 55.6568C154.035 55.9398 154.215 56.1729 154.41 56.3563C154.606 56.5397 154.814 56.6753 155.036 56.7631C155.264 56.847 155.492 56.8768 155.721 56.8527L157.856 60.5508C157.084 60.8166 156.317 60.8644 155.554 60.6941C154.759 60.5153 154 60.1183 153.277 59.5031C152.56 58.884 151.904 58.0591 151.309 57.0285ZM158.568 55.0876C158.775 54.9323 158.944 54.7584 159.075 54.5658C159.482 53.963 159.461 53.2743 159.014 52.4996C158.788 52.1089 158.529 51.823 158.236 51.642C157.745 51.3509 157.183 51.3341 156.55 51.5916L158.568 55.0876ZM156.661 67.8142L155.053 63.4083L165.838 59.4727L167.398 63.7471L165.337 64.499L165.385 64.6305C166.201 64.5731 166.874 64.7166 167.405 65.0608C167.947 65.4098 168.34 65.9203 168.585 66.5926C168.724 66.9725 168.809 67.3638 168.84 67.7665L165.541 68.9704C165.532 68.7418 165.486 68.4687 165.403 68.1512C165.328 67.8309 165.242 67.5393 165.146 67.2763C164.991 66.8525 164.766 66.4959 164.47 66.2065C164.167 65.9198 163.827 65.7374 163.451 65.6594C163.074 65.5814 162.682 65.6171 162.273 65.7664L156.661 67.8142ZM154.489 78.6283C154.274 77.371 154.244 76.2516 154.4 75.2702C154.556 74.2888 154.875 73.4966 155.355 72.8937C155.836 72.2907 156.44 71.8957 157.165 71.7086L157.924 76.1478C157.686 76.2357 157.506 76.3809 157.382 76.5835C157.163 76.9603 157.118 77.5321 157.249 78.2988C157.485 79.6788 158.19 80.2687 159.363 80.0683L161.283 79.7402L161.26 79.6022C160.856 79.5053 160.491 79.3073 160.164 79.0082C159.828 78.7026 159.545 78.3208 159.317 77.8627C159.097 77.4032 158.937 76.8822 158.837 76.2995C158.68 75.3794 158.724 74.5078 158.97 73.6846C159.225 72.8204 159.724 72.0921 160.467 71.4996C161.219 70.9135 162.224 70.513 163.481 70.2982C164.861 70.0625 166.015 70.1179 166.942 70.4645C167.843 70.792 168.564 71.2961 169.106 71.9768C169.65 72.6651 169.998 73.4539 170.15 74.3433C170.26 74.9873 170.259 75.5634 170.149 76.0715C170.046 76.5782 169.863 77.0278 169.598 77.4202C169.334 77.8125 169.017 78.1271 168.647 78.3639L168.663 78.4559L170.652 78.116L171.434 82.6932L160.141 84.6224C159.19 84.7848 158.329 84.6438 157.559 84.1994C156.795 83.746 156.15 83.0434 155.625 82.0916C155.099 81.1398 154.721 79.9854 154.489 78.6283ZM162.026 77.5065C162.135 78.1428 162.45 78.6019 162.971 78.8836C163.502 79.1718 164.174 79.2464 164.986 79.1076C165.554 79.0106 166.023 78.8476 166.394 78.6185C166.772 78.3804 167.038 78.0904 167.192 77.7483C167.356 77.4126 167.401 77.0301 167.328 76.6008C167.254 76.1714 167.085 75.8294 166.821 75.5747C166.555 75.3124 166.205 75.1354 165.772 75.0438C165.347 74.9586 164.854 74.9638 164.295 75.0594C163.743 75.1537 163.285 75.3148 162.921 75.5426C162.557 75.7627 162.296 76.04 162.14 76.3743C161.992 76.7074 161.954 77.0848 162.026 77.5065ZM155.756 88.6901C155.781 88.1929 155.84 87.7091 155.933 87.2387C156.026 86.7761 156.144 86.3614 156.287 85.9947L159.161 87.1654L159.146 87.2347C158.965 87.7319 158.866 88.1631 158.848 88.5282C158.822 89.041 158.969 89.3831 159.287 89.5547L159.493 89.6583L171.698 85.6852L171.456 90.556L163.417 92.2595L163.41 92.3994L171.239 94.9375L170.995 99.8549L158.797 94.4833C158.172 94.2186 157.622 93.8525 157.146 93.385C156.114 92.3759 155.651 90.8109 155.756 88.6901Z" fill="#CDFFDA"/>
<path d="M147.061 88.6078C147.061 61.6654 123.882 39.824 95.2892 39.824C66.6978 39.824 43.5195 61.6654 43.5195 88.6078C43.5195 115.55 66.6978 137.392 95.2892 137.392C123.882 137.392 147.061 115.55 147.061 88.6078Z" fill="#0DA84A" stroke="#CDFFDA" stroke-width="2.6549" stroke-miterlimit="10" stroke-linejoin="round"/>
<path d="M117.64 88.6078C117.64 61.6654 107.632 39.824 95.2891 39.824C82.9479 39.824 72.9399 61.6654 72.9399 88.6078C72.9399 115.55 82.9479 137.392 95.2891 137.392C107.632 137.392 117.64 115.55 117.64 88.6078Z" stroke="#CDFFDA" stroke-width="2.6549" stroke-miterlimit="10" stroke-linejoin="round"/>
<path d="M47.1558 70.5312H143.389" stroke="#CDFFDA" stroke-width="2.6549" stroke-miterlimit="10" stroke-linejoin="round"/>
<path d="M47.1558 106.601H143.389" stroke="#CDFFDA" stroke-width="2.6549" stroke-miterlimit="10" stroke-linejoin="round"/>
<path d="M164.687 108.677C165.477 108.838 165.986 109.613 165.802 110.398C162.167 125.868 153.303 139.709 140.619 149.672C127.546 159.941 111.228 165.452 94.455 165.263C77.6823 165.074 61.498 159.196 48.6711 148.635C36.2259 138.388 27.6915 124.351 24.4232 108.803C24.2574 108.014 24.784 107.252 25.5774 107.109C26.3615 106.968 27.111 107.486 27.2753 108.266C30.4177 123.176 38.606 136.637 50.5426 146.465C62.8546 156.602 78.3891 162.244 94.4885 162.425C110.588 162.607 126.252 157.317 138.8 147.46C150.966 137.904 159.47 124.631 162.964 109.794C163.146 109.019 163.907 108.519 164.687 108.677Z" fill="#CDFFDA"/>
</g>
<defs>
<filter id="filter0_d_6613_5440" x="0.791992" y="0" width="181.232" height="181.232" filterUnits="userSpaceOnUse" color-interpolation-filters="sRGB">
<feFlood flood-opacity="0" result="BackgroundImageFix"/>
<feColorMatrix in="SourceAlpha" type="matrix" values="0 0 0 0 0 0 0 0 0 0 0 0 0 0 0 0 0 0 127 0" result="hardAlpha"/>
<feOffset dx="-4" dy="4"/>
<feGaussianBlur stdDeviation="2"/>
<feComposite in2="hardAlpha" operator="out"/>
<feColorMatrix type="matrix" values="0 0 0 0 0 0 0 0 0 0 0 0 0 0 0 0 0 0 0.25 0"/>
<feBlend mode="normal" in2="BackgroundImageFix" result="effect1_dropShadow_6613_5440"/>
<feBlend mode="normal" in="SourceGraphic" in2="effect1_dropShadow_6613_5440" result="shape"/>
</filter>
</defs>
</svg>
