<svg width="165" height="90" viewBox="0 0 165 90" fill="none" xmlns="http://www.w3.org/2000/svg">
<path d="M21.411 17.3385C22.0793 17.3385 22.5847 17.4763 22.9314 17.7478C23.276 18.0214 23.4493 18.4078 23.4493 18.909C23.4493 19.1262 23.4117 19.3664 23.3407 19.6274L22.1628 23.8127C21.8496 24.8382 21.4131 25.5545 20.8513 25.9597C20.2936 26.3607 19.4666 26.5612 18.3702 26.5612H1.57053C1.0693 26.5612 0.682929 26.4776 0.40934 26.3105C0.137839 26.1435 0 25.9179 0 25.6339C0 25.4898 0.0375927 25.3331 0.1086 25.1661C0.175431 24.9781 0.292385 24.8194 0.459463 24.6899C0.62654 24.5562 0.808237 24.4288 1.00246 24.3056C1.38048 24.0717 1.68957 23.8294 1.92974 23.5788C2.16783 23.3282 2.3725 22.9168 2.53958 22.3425L6.9003 6.93791C6.99428 6.62673 7.04231 6.32808 7.04231 6.04405C7.04231 5.78299 7.00054 5.5637 6.91701 5.38409C6.83347 5.20657 6.7186 4.99773 6.5745 4.75755C6.36147 4.44637 6.25705 4.19576 6.25705 4.00571C6.25705 3.9347 6.27793 3.80312 6.32388 3.61307C6.41786 3.30189 6.62671 3.0826 6.95042 2.95312C7.27205 2.81946 7.7691 2.75262 8.43741 2.75262H16.833C17.3343 2.75262 17.7206 2.83199 17.9942 2.98653C18.2657 3.14317 18.4036 3.36246 18.4036 3.64649C18.4036 3.76971 18.3702 3.92634 18.3033 4.11431C18.2302 4.28138 18.1279 4.43175 17.9942 4.56541C17.8648 4.6949 17.7457 4.78888 17.635 4.84945C17.5285 4.90583 17.4533 4.95805 17.4095 5.00817C17.0252 5.22119 16.7119 5.45719 16.4738 5.71825C16.2399 5.9814 16.0394 6.38656 15.8724 6.93791L11.261 23.1277H13.4748C14.0199 23.1277 14.4898 23.0337 14.8866 22.8437C15.2813 22.6557 15.6927 22.2986 16.123 21.7744L18.5874 18.8422C19.0385 18.3201 19.4729 17.9379 19.8906 17.6977C20.3083 17.4596 20.8137 17.3385 21.411 17.3385Z" fill="#F6B51E"/>
<path d="M36.3171 7.4715C39.3412 7.4715 41.532 7.95602 42.8916 8.92507C44.2491 9.88994 44.9299 11.12 44.9299 12.6175C44.9299 13.0686 44.8819 13.4863 44.7879 13.8706C44.4308 15.4411 43.4346 16.5668 41.7972 17.2455C40.164 17.9264 38.2406 18.2647 36.0247 18.2647C34.9053 18.2647 33.8569 18.1958 32.8836 18.0559C32.8607 19.2922 33.1948 20.161 33.8861 20.6623C34.5753 21.1635 35.5402 21.4141 36.7765 21.4141C37.3488 21.4141 37.898 21.3515 38.4223 21.222C38.9444 21.0883 39.6127 20.892 40.4272 20.6288C41.0892 20.3908 41.5403 20.2696 41.7805 20.2696C42.0416 20.2696 42.1731 20.4263 42.1731 20.7374C42.2003 21.5687 41.8912 22.4416 41.2459 23.3606C40.6047 24.2795 39.6524 25.0627 38.3888 25.708C37.1232 26.3492 35.5986 26.6687 33.8109 26.6687C31.1648 26.6687 28.9949 26.0046 27.3032 24.6721C25.6095 23.3355 24.7637 21.3932 24.7637 18.8411C24.7637 18.1227 24.8597 17.2873 25.0561 16.335C25.6513 13.4069 26.9545 11.1973 28.9657 9.71033C30.981 8.21917 33.4308 7.4715 36.3171 7.4715ZM33.1343 15.9089C33.2282 15.9319 33.3598 15.9423 33.5269 15.9423C34.5293 15.9423 35.2916 15.4787 35.8158 14.5472C36.338 13.6179 36.5886 12.582 36.5677 11.4396C36.5385 10.7713 36.3463 10.4371 35.9913 10.4371C35.7281 10.4371 35.419 10.646 35.064 11.0637C34.7069 11.4814 34.356 12.1079 34.0114 12.9433C33.6647 13.7745 33.3723 14.7623 33.1343 15.9089Z" fill="#F6B51E"/>
<path d="M56.9768 7.64417C59.7169 7.64417 61.9077 8.15166 63.5513 9.16457C65.1929 10.1796 66.0157 11.7209 66.0157 13.7926C66.0157 14.5841 65.8737 15.478 65.5897 16.4742L64.1194 21.4113C64.0964 21.5074 64.086 21.6265 64.086 21.7706C64.086 22.1507 64.2405 22.3386 64.5538 22.3386C64.8378 22.3386 65.0801 22.2133 65.2806 21.9627C65.4852 21.7121 65.6252 21.5868 65.6983 21.5868C65.8152 21.5868 65.9155 21.6703 65.999 21.8374C66.0826 22.0045 66.1243 22.1966 66.1243 22.4138C66.1452 23.055 65.9009 23.7087 65.3892 24.377C64.8754 25.0453 64.1904 25.5945 63.3341 26.0227C62.4758 26.4529 61.5339 26.6659 60.5105 26.6659C59.2741 26.6659 58.2132 26.4404 57.3277 25.9893C56.4464 25.534 55.8407 24.8657 55.5065 23.9843C54.7923 24.8427 53.9465 25.5047 52.967 25.9726C51.9917 26.4362 50.9453 26.6659 49.8259 26.6659C48.5603 26.6659 47.4994 26.4216 46.6431 25.9308C45.7847 25.4421 45.1477 24.8093 44.7301 24.0345C44.3124 23.2617 44.1035 22.4451 44.1035 21.5868C44.1035 21.2088 44.1411 20.8412 44.2121 20.4841C44.5901 18.8363 45.4172 17.5978 46.6932 16.7666C47.9672 15.9312 49.4876 15.5135 51.2544 15.5135C53.2301 15.5135 55.1724 15.8226 57.0771 16.4408L57.9709 14.085C58.2821 13.0825 58.4388 12.3056 58.4388 11.7543C58.4158 11.1862 58.2236 10.7602 57.8623 10.4761C57.5052 10.1879 56.9601 10.0417 56.225 10.0417C56.3628 10.426 56.4338 10.8186 56.4338 11.2196C56.4338 12.1051 56.0997 12.8716 55.4314 13.5169C54.7672 14.1581 53.8149 14.4776 52.5743 14.4776C51.409 14.4776 50.4984 14.2228 49.8426 13.7091C49.1848 13.1974 48.8569 12.5604 48.8569 11.796C48.8569 10.6056 49.5252 9.61568 50.8618 8.83041C52.1984 8.04097 54.2368 7.64417 56.9768 7.64417ZM54.9719 18.4791C54.3036 18.4791 53.7606 18.736 53.3429 19.2477C52.9252 19.7615 52.7164 20.3149 52.7164 20.9101C52.7164 21.2902 52.8041 21.5993 52.9837 21.8374C53.1675 22.0776 53.4223 22.1966 53.7522 22.1966C54.0634 22.1966 54.4038 22.0713 54.7714 21.8207C55.1432 21.5701 55.4147 21.1941 55.5817 20.6929L56.3336 18.5877C55.9263 18.5167 55.4731 18.4791 54.9719 18.4791Z" fill="#F6B51E"/>
<path d="M85.1388 7.64417C86.4754 7.64417 87.5405 8.05142 88.3383 8.86383C89.134 9.67207 89.5329 10.6724 89.5329 11.8629C89.5329 12.3202 89.4849 12.7379 89.3909 13.116C89.1507 14.0975 88.6975 14.8494 88.0292 15.3715C87.3651 15.8957 86.5694 16.1568 85.64 16.1568C84.7315 16.1568 84.0444 15.9437 83.5766 15.5135C83.113 15.0854 82.7036 14.511 82.3486 13.7926C82.1586 13.3916 81.981 13.0972 81.814 12.9071C81.6469 12.7129 81.4568 12.6147 81.2459 12.6147C81.0057 12.6147 80.7969 12.7129 80.6194 12.9071C80.4397 13.0972 80.2789 13.4292 80.1348 13.9012L77.378 22.8399C77.3321 22.9568 77.3112 23.1364 77.3112 23.3745C77.3112 23.6878 77.3989 23.9467 77.5785 24.1514C77.7561 24.3519 78.0004 24.5482 78.3137 24.7362C78.5977 24.9262 78.7857 25.0829 78.8817 25.204C78.9757 25.321 79.0112 25.4755 78.9903 25.6635C78.9402 25.9767 78.7648 26.2044 78.4641 26.3485C78.1675 26.4884 77.6642 26.5573 76.952 26.5573H67.8045C67.1822 26.5573 66.7331 26.4571 66.4595 26.2566C66.188 26.0519 66.0878 25.7804 66.1588 25.4463C66.2549 25.1622 66.5055 24.9116 66.9106 24.6944C67.2678 24.5065 67.5623 24.2809 67.7962 24.0178C68.0342 23.7567 68.2389 23.339 68.406 22.7647L71.5888 12.4393C71.6389 12.3182 71.664 12.1511 71.664 11.9381C71.664 11.677 71.6076 11.4744 71.4969 11.3282C71.3904 11.1841 71.2212 11.0066 70.9873 10.7936C70.7472 10.6056 70.578 10.4385 70.4778 10.2923C70.3817 10.1482 70.3712 9.95819 70.4443 9.72428C70.5884 9.17292 71.3403 8.6884 72.6999 8.27071C74.0574 7.85301 75.4755 7.64417 76.952 7.64417C77.9315 7.64417 78.7418 7.86763 79.383 8.31247C80.0283 8.75314 80.446 9.37759 80.6361 10.1837C81.7764 8.49208 83.278 7.64417 85.1388 7.64417Z" fill="#F6B51E"/>
<path d="M110.41 21.6202C110.36 21.7204 110.335 21.8666 110.335 22.0546C110.335 22.2217 110.377 22.3532 110.46 22.4472C110.544 22.5433 110.657 22.5892 110.803 22.5892C111.087 22.5892 111.329 22.4639 111.529 22.2133C111.734 21.9627 111.874 21.8374 111.947 21.8374C112.064 21.8374 112.158 21.9168 112.231 22.0713C112.302 22.2279 112.34 22.4117 112.34 22.6227C112.361 23.3139 112.133 23.9885 111.655 24.6443C111.181 25.3022 110.485 25.8389 109.566 26.2566C108.647 26.6743 107.545 26.8831 106.258 26.8831C104.688 26.8831 103.437 26.5197 102.507 25.7888C101.576 25.0599 101.1 24.0888 101.079 22.8733C101.079 21.994 101.292 21.0062 101.722 19.9076L103.685 14.7617C103.806 14.4505 103.869 14.1999 103.869 14.0098C103.869 13.6986 103.765 13.4543 103.56 13.2747C103.359 13.0972 103.117 13.0074 102.833 13.0074C102.303 13.0074 101.799 13.2538 101.321 13.7425C100.847 14.2333 100.504 14.8348 100.294 15.5469L98.0714 22.8399C97.9753 23.103 97.9294 23.3536 97.9294 23.5917C97.9294 23.8757 97.9879 24.1076 98.1048 24.2851C98.226 24.4647 98.3972 24.6506 98.6144 24.8448C98.7815 24.9847 98.8984 25.1163 98.9653 25.2374C99.0363 25.3544 99.0509 25.4964 99.007 25.6635C98.911 25.9767 98.6833 26.2044 98.322 26.3485C97.9649 26.4884 97.4052 26.5573 96.6429 26.5573H88.4979C87.8755 26.5573 87.4265 26.4571 87.1529 26.2566C86.8814 26.0519 86.7812 25.7804 86.8522 25.4463C86.9482 25.1622 87.1988 24.9116 87.604 24.6944C87.9611 24.5065 88.2556 24.2809 88.4895 24.0178C88.7276 23.7567 88.9323 23.339 89.0994 22.7647L92.2822 12.4393C92.3323 12.3182 92.3574 12.1511 92.3574 11.9381C92.3574 11.677 92.301 11.4744 92.1903 11.3282C92.0838 11.1841 91.9146 11.0066 91.6807 10.7936C91.4405 10.6056 91.2714 10.4385 91.1711 10.2923C91.075 10.1482 91.0646 9.95819 91.1377 9.72428C91.2818 9.17292 92.0336 8.6884 93.3932 8.27071C94.7507 7.85301 96.1688 7.64417 97.6454 7.64417C98.8358 7.64417 99.7777 7.97414 100.469 8.62992C101.158 9.28779 101.467 10.1984 101.396 11.3616C102.376 9.95819 103.414 8.98914 104.512 8.45449C105.609 7.91567 106.801 7.64417 108.088 7.64417C109.541 7.64417 110.713 8.08692 111.605 8.97243C112.501 9.85376 112.95 10.9982 112.95 12.4059C112.95 13.141 112.829 13.8678 112.59 14.5862L110.41 21.6202Z" fill="#F6B51E"/>
<path d="M24.9325 14.5839C25.6008 14.5839 26.1062 14.7217 26.4529 14.9932C26.7975 15.2668 26.9708 15.6532 26.9708 16.1544C26.9708 16.3716 26.9332 16.6118 26.8622 16.8729L25.6843 21.0582C25.371 22.0836 24.9345 22.7999 24.3727 23.2051C23.8151 23.6061 22.9881 23.8066 21.8916 23.8066H5.09201C4.59078 23.8066 4.20441 23.723 3.93082 23.556C3.65932 23.3889 3.52148 23.1633 3.52148 22.8793C3.52148 22.7352 3.55908 22.5786 3.63008 22.4115C3.69692 22.2235 3.81387 22.0648 3.98095 21.9353C4.14802 21.8017 4.32972 21.6743 4.52395 21.551C4.90196 21.3171 5.21105 21.0749 5.45123 20.8242C5.68931 20.5736 5.89398 20.1622 6.06106 19.5879L10.4218 4.18334C10.5158 3.87215 10.5638 3.5735 10.5638 3.28947C10.5638 3.02841 10.522 2.80912 10.4385 2.62952C10.355 2.452 10.2401 2.24315 10.096 2.00298C9.88296 1.69179 9.77853 1.44118 9.77853 1.25113C9.77853 1.18012 9.79942 1.04855 9.84537 0.858496C9.93935 0.547314 10.1482 0.328025 10.4719 0.19854C10.7935 0.0648778 11.2906 -0.00195312 11.9589 -0.00195312H20.3545C20.8558 -0.00195312 21.2421 0.0774089 21.5157 0.231955C21.7872 0.38859 21.9251 0.607879 21.9251 0.891911C21.9251 1.01513 21.8916 1.17177 21.8248 1.35973C21.7517 1.52681 21.6494 1.67718 21.5157 1.81084C21.3862 1.94032 21.2672 2.0343 21.1565 2.09487C21.05 2.15126 20.9748 2.20347 20.931 2.25359C20.5467 2.46662 20.2334 2.70261 19.9953 2.96367C19.7614 3.22682 19.5609 3.63198 19.3938 4.18334L14.7825 20.3731H16.9963C17.5414 20.3731 18.0113 20.2792 18.4081 20.0891C18.8028 19.9011 19.2142 19.544 19.6445 19.0198L22.1088 16.0876C22.56 15.5655 22.9944 15.1833 23.4121 14.9431C23.8297 14.705 24.3352 14.5839 24.9325 14.5839Z" fill="#34A853"/>
<path d="M39.8386 4.72073C42.8627 4.72073 45.0535 5.20526 46.4131 6.17431C47.7706 7.13918 48.4514 8.36929 48.4514 9.86672C48.4514 10.3178 48.4034 10.7355 48.3094 11.1198C47.9523 12.6903 46.9561 13.816 45.3187 14.4948C43.6855 15.1756 41.762 15.5139 39.5462 15.5139C38.4268 15.5139 37.3783 15.445 36.4051 15.3051C36.3821 16.5415 36.7163 17.4103 37.4076 17.9115C38.0968 18.4127 39.0617 18.6633 40.298 18.6633C40.8703 18.6633 41.4195 18.6007 41.9437 18.4712C42.4659 18.3375 43.1342 18.1412 43.9487 17.8781C44.6107 17.64 45.0618 17.5189 45.302 17.5189C45.5631 17.5189 45.6946 17.6755 45.6946 17.9867C45.7218 18.8179 45.4127 19.6909 44.7673 20.6098C44.1262 21.5287 43.1738 22.3119 41.9103 22.9572C40.6447 23.5984 39.1201 23.9179 37.3324 23.9179C34.6863 23.9179 32.5164 23.2538 30.8247 21.9214C29.131 20.5847 28.2852 18.6425 28.2852 16.0904C28.2852 15.3719 28.3812 14.5365 28.5775 13.5842C29.1728 10.6562 30.476 8.44656 32.4872 6.95957C34.5025 5.4684 36.9523 4.72073 39.8386 4.72073ZM36.6557 13.1581C36.7497 13.1811 36.8813 13.1916 37.0484 13.1916C38.0508 13.1916 38.8131 12.7279 39.3373 11.7965C39.8594 10.8671 40.1101 9.83121 40.0892 8.68882C40.0599 8.02051 39.8678 7.68636 39.5128 7.68636C39.2496 7.68636 38.9405 7.8952 38.5855 8.3129C38.2284 8.73059 37.8775 9.35713 37.5329 10.1925C37.1862 11.0237 36.8938 12.0116 36.6557 13.1581Z" fill="#34A853"/>
<path d="M60.4964 4.89725C63.2364 4.89725 65.4272 5.40475 67.0709 6.41765C68.7124 7.43265 69.5353 8.97394 69.5353 11.0457C69.5353 11.8372 69.3932 12.7311 69.1092 13.7273L67.6389 18.6644C67.6159 18.7605 67.6055 18.8795 67.6055 19.0236C67.6055 19.4037 67.7601 19.5917 68.0733 19.5917C68.3574 19.5917 68.5996 19.4664 68.8001 19.2158C69.0048 18.9652 69.1447 18.8399 69.2178 18.8399C69.3348 18.8399 69.435 18.9234 69.5185 19.0905C69.6021 19.2576 69.6439 19.4497 69.6439 19.6669C69.6647 20.3081 69.4204 20.9617 68.9087 21.63C68.3949 22.2984 67.7099 22.8476 66.8537 23.2758C65.9953 23.706 65.0534 23.919 64.0301 23.919C62.7937 23.919 61.7327 23.6935 60.8472 23.2423C59.9659 22.7871 59.3602 22.1188 59.0261 21.2374C58.3118 22.0958 57.466 22.7578 56.4865 23.2256C55.5112 23.6893 54.4649 23.919 53.3454 23.919C52.0798 23.919 51.0189 23.6747 50.1626 23.1839C49.3043 22.6952 48.6673 22.0624 48.2496 21.2875C47.8319 20.5148 47.623 19.6982 47.623 18.8399C47.623 18.4618 47.6606 18.0943 47.7316 17.7371C48.1097 16.0893 48.9367 14.8509 50.2127 14.0197C51.4867 13.1843 53.0071 12.7666 54.774 12.7666C56.7497 12.7666 58.6919 13.0757 60.5966 13.6939L61.4905 11.3381C61.8017 10.3356 61.9583 9.55871 61.9583 9.00735C61.9353 8.43929 61.7432 8.01324 61.3819 7.72921C61.0247 7.441 60.4797 7.29481 59.7445 7.29481C59.8824 7.67909 59.9534 8.07172 59.9534 8.4727C59.9534 9.35821 59.6192 10.1247 58.9509 10.77C58.2868 11.4112 57.3344 11.7307 56.0939 11.7307C54.9285 11.7307 54.0179 11.4759 53.3622 10.9622C52.7043 10.4505 52.3764 9.8135 52.3764 9.04912C52.3764 7.85869 53.0447 6.86876 54.3813 6.0835C55.7179 5.29406 57.7563 4.89725 60.4964 4.89725ZM58.4914 15.7322C57.8231 15.7322 57.2801 15.9891 56.8624 16.5008C56.4447 17.0145 56.2359 17.568 56.2359 18.1632C56.2359 18.5433 56.3236 18.8524 56.5032 19.0905C56.687 19.3306 56.9418 19.4497 57.2718 19.4497C57.5829 19.4497 57.9234 19.3244 58.2909 19.0738C58.6627 18.8231 58.9342 18.4472 59.1013 17.946L59.8531 15.8408C59.4459 15.7698 58.9927 15.7322 58.4914 15.7322Z" fill="#34A853"/>
<path d="M88.6603 4.89725C89.9969 4.89725 91.062 5.3045 91.8598 6.11691C92.6555 6.92515 93.0544 7.92553 93.0544 9.11595C93.0544 9.57333 93.0064 9.99102 92.9124 10.369C92.6722 11.3506 92.219 12.1025 91.5507 12.6246C90.8866 13.1488 90.0909 13.4098 89.1615 13.4098C88.253 13.4098 87.5659 13.1968 87.0981 12.7666C86.6345 12.3385 86.2251 11.7641 85.8701 11.0457C85.68 10.6447 85.5025 10.3502 85.3354 10.1602C85.1684 9.96596 84.9783 9.8678 84.7674 9.8678C84.5272 9.8678 84.3184 9.96596 84.1408 10.1602C83.9612 10.3502 83.8004 10.6823 83.6563 11.1543L80.8995 20.0929C80.8536 20.2099 80.8327 20.3895 80.8327 20.6276C80.8327 20.9409 80.9204 21.1998 81.1 21.4045C81.2775 21.605 81.5219 21.8013 81.8352 21.9893C82.1192 22.1793 82.3072 22.336 82.4032 22.4571C82.4972 22.574 82.5327 22.7286 82.5118 22.9165C82.4617 23.2298 82.2863 23.4575 81.9855 23.6016C81.689 23.7415 81.1857 23.8104 80.4735 23.8104H71.326C70.7036 23.8104 70.2546 23.7102 69.981 23.5097C69.7095 23.305 69.6093 23.0335 69.6803 22.6993C69.7764 22.4153 70.027 22.1647 70.4321 21.9475C70.7893 21.7595 71.0837 21.534 71.3176 21.2708C71.5557 21.0098 71.7604 20.5921 71.9275 20.0178L75.1103 9.69237C75.1604 9.57124 75.1855 9.40416 75.1855 9.19114C75.1855 8.93008 75.1291 8.7275 75.0184 8.5813C74.9119 8.4372 74.7427 8.25968 74.5088 8.04666C74.2686 7.85869 74.0995 7.69162 73.9992 7.54542C73.9032 7.40132 73.8927 7.21127 73.9658 6.97736C74.1099 6.42601 74.8618 5.94148 76.2214 5.52379C77.5789 5.10609 78.9969 4.89725 80.4735 4.89725C81.453 4.89725 82.2633 5.12071 82.9045 5.56556C83.5498 6.00622 83.9675 6.63068 84.1575 7.43682C85.2978 5.74517 86.7995 4.89725 88.6603 4.89725Z" fill="#34A853"/>
<path d="M113.932 18.8733C113.881 18.9735 113.856 19.1197 113.856 19.3077C113.856 19.4748 113.898 19.6063 113.982 19.7003C114.065 19.7964 114.178 19.8423 114.324 19.8423C114.608 19.8423 114.85 19.717 115.051 19.4664C115.256 19.2158 115.396 19.0905 115.469 19.0905C115.586 19.0905 115.68 19.1698 115.753 19.3244C115.824 19.481 115.861 19.6648 115.861 19.8757C115.882 20.567 115.655 21.2416 115.176 21.8974C114.702 22.5552 114.007 23.092 113.088 23.5097C112.169 23.9274 111.066 24.1362 109.78 24.1362C108.209 24.1362 106.958 23.7728 106.029 23.0419C105.097 22.313 104.621 21.3418 104.6 20.1264C104.6 19.2471 104.813 18.2593 105.244 17.1607L107.207 12.0147C107.328 11.7036 107.39 11.4529 107.39 11.2629C107.39 10.9517 107.286 10.7074 107.081 10.5278C106.881 10.3502 106.639 10.2604 106.355 10.2604C105.824 10.2604 105.321 10.5069 104.843 10.9956C104.368 11.4864 104.026 12.0878 103.815 12.8L101.593 20.0929C101.497 20.3561 101.451 20.6067 101.451 20.8448C101.451 21.1288 101.509 21.3606 101.626 21.5382C101.747 21.7178 101.919 21.9036 102.136 22.0979C102.303 22.2378 102.42 22.3694 102.487 22.4905C102.558 22.6075 102.572 22.7495 102.529 22.9165C102.432 23.2298 102.205 23.4575 101.844 23.6016C101.486 23.7415 100.927 23.8104 100.164 23.8104H92.0194C91.397 23.8104 90.948 23.7102 90.6744 23.5097C90.4029 23.305 90.3026 23.0335 90.3736 22.6993C90.4697 22.4153 90.7203 22.1647 91.1255 21.9475C91.4826 21.7595 91.7771 21.534 92.011 21.2708C92.2491 21.0098 92.4538 20.5921 92.6208 20.0178L95.8037 9.69237C95.8538 9.57124 95.8788 9.40416 95.8788 9.19114C95.8788 8.93008 95.8225 8.7275 95.7118 8.5813C95.6053 8.4372 95.4361 8.25968 95.2022 8.04666C94.962 7.85869 94.7928 7.69162 94.6926 7.54542C94.5965 7.40132 94.5861 7.21127 94.6592 6.97736C94.8033 6.42601 95.5551 5.94148 96.9147 5.52379C98.2722 5.10609 99.6903 4.89725 101.167 4.89725C102.357 4.89725 103.299 5.22723 103.99 5.883C104.68 6.54087 104.989 7.45144 104.918 8.61472C105.897 7.21127 106.935 6.24222 108.034 5.70757C109.13 5.16875 110.323 4.89725 111.609 4.89725C113.063 4.89725 114.234 5.34 115.126 6.22551C116.022 7.10685 116.471 8.25133 116.471 9.65895C116.471 10.3941 116.35 11.1209 116.112 11.8393L113.932 18.8733Z" fill="#34A853"/>
<path d="M34.5321 44.8038C35.2004 44.8038 35.7058 44.9417 36.0525 45.2132C36.3971 45.4867 36.5704 45.8731 36.5704 46.3743C36.5704 46.5915 36.5328 46.8317 36.4618 47.0928L35.2839 51.2781C34.9706 52.3035 34.5342 53.0198 33.9724 53.425C33.4147 53.826 32.5877 54.0265 31.4913 54.0265H14.6916C14.1904 54.0265 13.804 53.943 13.5304 53.7759C13.2589 53.6088 13.1211 53.3832 13.1211 53.0992C13.1211 52.9551 13.1587 52.7985 13.2297 52.6314C13.2965 52.4434 13.4135 52.2847 13.5806 52.1552C13.7476 52.0216 13.9293 51.8942 14.1236 51.7709C14.5016 51.537 14.8107 51.2948 15.0508 51.0442C15.2889 50.7935 15.4936 50.3821 15.6607 49.8078L20.0214 34.4032C20.1154 34.0921 20.1634 33.7934 20.1634 33.5094C20.1634 33.2483 20.1216 33.029 20.0381 32.8494C19.9546 32.6719 19.8397 32.4631 19.6956 32.2229C19.4826 31.9117 19.3781 31.6611 19.3781 31.471C19.3781 31.4 19.399 31.2685 19.445 31.0784C19.539 30.7672 19.7478 30.5479 20.0715 30.4184C20.3931 30.2848 20.8902 30.218 21.5585 30.218H29.9541C30.4554 30.218 30.8417 30.2973 31.1153 30.4519C31.3868 30.6085 31.5247 30.8278 31.5247 31.1118C31.5247 31.235 31.4913 31.3917 31.4244 31.5796C31.3513 31.7467 31.249 31.8971 31.1153 32.0307C30.9858 32.1602 30.8668 32.2542 30.7561 32.3148C30.6496 32.3712 30.5744 32.4234 30.5306 32.4735C30.1463 32.6865 29.833 32.9225 29.5949 33.1836C29.361 33.4467 29.1605 33.8519 28.9934 34.4032L24.3821 50.593H26.5959C27.141 50.593 27.6109 50.4991 28.0077 50.309C28.4024 50.1211 28.8138 49.7639 29.2441 49.2397L31.7085 46.3075C32.1596 45.7854 32.594 45.4032 33.0117 45.163C33.4294 44.9249 33.9348 44.8038 34.5321 44.8038Z" fill="#F6B51E"/>
<path d="M46.7225 35.1159C48.103 35.1159 49.1138 35.3812 49.755 35.9096C50.4003 36.4338 50.724 37.1459 50.724 38.0481C50.724 38.5995 50.6405 39.1258 50.4734 39.627L47.182 50.3116C47.1089 50.5957 47.0734 50.8463 47.0734 51.0635C47.0734 51.3705 47.1319 51.6148 47.2488 51.7986C47.3699 51.9782 47.5412 52.1495 47.7584 52.3166C47.9255 52.4836 48.0424 52.6215 48.1093 52.7259C48.1803 52.8324 48.1949 52.9682 48.151 53.1352C48.0278 53.4485 47.7876 53.6761 47.4326 53.8203C47.0755 53.9602 46.5262 54.0291 45.7869 54.0291H37.6419C37.0195 54.0291 36.5642 53.9289 36.2802 53.7284C35.9961 53.5237 35.9022 53.2522 35.9961 52.918C36.0922 52.634 36.3428 52.3834 36.748 52.1662C37.1051 51.9782 37.3996 51.7527 37.6335 51.4895C37.8716 51.2285 38.0763 50.8108 38.2433 50.2364L41.3593 39.9111C41.4303 39.6939 41.4679 39.5163 41.4679 39.3764C41.4679 39.1154 41.4053 38.9065 41.2841 38.7499C41.1672 38.5953 40.9876 38.4324 40.7495 38.2653C40.5093 38.0774 40.3422 37.9103 40.2483 37.7641C40.1522 37.62 40.1418 37.43 40.2149 37.196C40.3527 36.6447 41.1025 36.1602 42.462 35.7425C43.8195 35.3248 45.2397 35.1159 46.7225 35.1159ZM49.1117 27.2215C50.0411 27.2215 50.8159 27.5264 51.4341 28.1321C52.0523 28.7398 52.3614 29.4833 52.3614 30.3626C52.3614 30.987 52.1985 31.5969 51.8769 32.1921C51.5594 32.7894 51.1083 33.2697 50.5235 33.6373C49.9388 34.0049 49.2892 34.1887 48.5771 34.1887C47.6686 34.1887 46.9105 33.8858 46.3048 33.2781C45.6971 32.6724 45.3796 31.9143 45.3525 31.0058C45.3525 30.4106 45.507 29.8238 45.8203 29.2432C46.1315 28.6584 46.5721 28.178 47.1402 27.7979C47.7125 27.4137 48.3703 27.2215 49.1117 27.2215Z" fill="#F6B51E"/>
<path d="M62.1604 34.799C64.1361 34.799 65.8465 34.9786 67.2897 35.3336C68.7307 35.6908 69.8397 36.192 70.6145 36.8373C71.3872 37.4785 71.7757 38.2053 71.7757 39.0177C71.7757 39.8531 71.4457 40.5339 70.7899 41.056C70.1383 41.5802 69.2278 41.8413 68.0582 41.8413C66.8657 41.8413 65.857 41.5447 65.0341 40.9474C64.2154 40.3522 63.8061 39.6004 63.8061 38.6919C63.8061 38.387 63.8521 38.0883 63.9481 37.798C63.5179 37.6811 63.1378 37.6226 62.8036 37.6226C62.2063 37.6226 61.7114 37.7688 61.3167 38.057C60.9261 38.341 60.7423 38.7462 60.7653 39.2683C60.7653 39.8865 61.0744 40.4107 61.6926 40.8388C62.3108 41.2691 63.3132 41.8058 64.7 42.4511C65.8904 42.9753 66.8741 43.4578 67.6489 43.8963C68.4216 44.337 69.0774 44.8905 69.612 45.5588C70.1467 46.2271 70.414 47.0123 70.414 47.9146C70.414 48.1109 70.366 48.4701 70.272 48.9922C69.8919 50.5857 68.831 51.8471 67.0892 52.7765C65.3516 53.708 63.0647 54.1716 60.2306 54.1716C57.0332 54.1716 54.4999 53.7435 52.6286 52.8851C50.7615 52.0288 49.8301 50.8468 49.8301 49.3431C49.8301 48.3197 50.1392 47.5449 50.7574 47.0207C51.3755 46.4986 52.1963 46.2354 53.2217 46.2354C54.4122 46.2354 55.4313 46.6072 56.2793 47.3465C57.1251 48.0816 57.5491 49.0235 57.5491 50.1701C57.5491 50.4771 57.5115 50.7966 57.4405 51.1308C58.0127 51.277 58.562 51.348 59.0862 51.348C59.7044 51.348 60.216 51.1809 60.6233 50.8468C61.0284 50.5126 61.2331 50.049 61.2331 49.4517C61.2039 48.9066 60.9282 48.4388 60.4061 48.0482C59.8819 47.6535 59.0486 47.1794 57.9083 46.6281C56.8327 46.1268 55.9493 45.6569 55.2601 45.2163C54.5688 44.7777 53.9778 44.2221 53.4891 43.5538C52.9983 42.8855 52.7539 42.1003 52.7539 41.198C52.7539 39.2432 53.5684 37.6894 55.2016 36.5366C56.839 35.3796 59.1572 34.799 62.1604 34.799Z" fill="#F6B51E"/>
<path d="M87.5744 35.5844C88.0255 35.5844 88.3764 35.6805 88.627 35.8684C88.8776 36.0585 89.0029 36.3196 89.0029 36.6537C89.0029 36.754 88.9778 36.921 88.9277 37.1549C88.6207 38.2075 87.9085 38.7338 86.7891 38.7338H84.709L82.0274 47.5555C81.9105 47.9189 81.852 48.2886 81.852 48.6666C81.852 49.0968 81.971 49.3934 82.2112 49.5604C82.4493 49.7275 82.7834 49.8111 83.2137 49.8111C83.5917 49.8111 84.0678 49.7651 84.6422 49.669C84.9262 49.598 85.1768 49.5604 85.394 49.5604C85.5611 49.5604 85.6864 49.6168 85.7699 49.7275C85.8535 49.834 85.8953 49.9698 85.8953 50.1369C85.9161 50.6109 85.5632 51.1874 84.8343 51.8661C84.1096 52.5469 83.1259 53.1317 81.8854 53.6204C80.649 54.1091 79.279 54.3556 77.7753 54.3556C76.1546 54.3556 74.8535 53.9859 73.874 53.2445C72.8987 52.5052 72.4121 51.4902 72.4121 50.2037C72.4121 49.6085 72.5082 49.0383 72.7045 48.4911L74.9935 41.4154C75.1104 41.0103 75.1689 40.6865 75.1689 40.4464C75.1689 39.9681 75.054 39.565 74.8264 39.2351C74.6029 38.9009 74.2876 38.5542 73.8824 38.1908C73.5253 37.8567 73.2746 37.5789 73.1305 37.3554C72.9843 37.1278 72.9488 36.8605 73.0219 36.5535C73.1159 36.2423 73.3185 36.0021 73.6318 35.835C73.943 35.668 74.4296 35.5844 75.0937 35.5844H77.0986L79.3542 33.3289C80.1394 32.5436 80.8579 31.9985 81.5095 31.6915C82.1653 31.3803 83.0173 31.2237 84.0658 31.2237C85.5695 31.2237 86.3213 31.7959 86.3213 32.9362C86.3213 33.2996 86.2733 33.6338 86.1793 33.9387L85.6781 35.5844H87.5744Z" fill="#F6B51E"/>
<path d="M99.0847 34.9408C102.109 34.9408 104.3 35.4253 105.659 36.3944C107.017 37.3592 107.697 38.5893 107.697 40.0868C107.697 40.5379 107.649 40.9556 107.555 41.3399C107.198 42.9104 106.202 44.0361 104.565 44.7148C102.932 45.3957 101.008 45.734 98.7923 45.734C97.6728 45.734 96.6244 45.6651 95.6512 45.5251C95.6282 46.7615 95.9624 47.6303 96.6537 48.1316C97.3429 48.6328 98.3077 48.8834 99.5441 48.8834C100.116 48.8834 100.666 48.8208 101.19 48.6913C101.712 48.5576 102.38 48.3613 103.195 48.0981C103.857 47.8601 104.308 47.7389 104.548 47.7389C104.809 47.7389 104.941 47.8956 104.941 48.2067C104.968 49.038 104.659 49.9109 104.013 50.8299C103.372 51.7488 102.42 52.532 101.156 53.1773C99.8908 53.8185 98.3662 54.138 96.5785 54.138C93.9324 54.138 91.7625 53.4739 90.0708 52.1414C88.3771 50.8048 87.5312 48.8625 87.5312 46.3104C87.5312 45.592 87.6273 44.7566 87.8236 43.8043C88.4188 40.8762 89.7221 38.6666 91.7332 37.1796C93.7486 35.6885 96.1984 34.9408 99.0847 34.9408ZM95.9018 43.3782C95.9958 43.4012 96.1274 43.4116 96.2945 43.4116C97.2969 43.4116 98.0592 42.948 98.5834 42.0165C99.1055 41.0872 99.3562 40.0513 99.3353 38.9089C99.306 38.2406 99.1139 37.9064 98.7589 37.9064C98.4957 37.9064 98.1866 38.1153 97.8316 38.533C97.4744 38.9507 97.1236 39.5772 96.779 40.4126C96.4323 41.2438 96.1399 42.2316 95.9018 43.3782Z" fill="#F6B51E"/>
<path d="M129.107 49.093C129.057 49.1932 129.032 49.3394 129.032 49.5274C129.032 49.6944 129.074 49.826 129.157 49.92C129.241 50.0161 129.354 50.062 129.5 50.062C129.784 50.062 130.026 49.9367 130.227 49.6861C130.431 49.4355 130.571 49.3102 130.644 49.3102C130.761 49.3102 130.855 49.3895 130.928 49.5441C130.999 49.7007 131.037 49.8845 131.037 50.0954C131.058 50.7867 130.83 51.4613 130.352 52.1171C129.878 52.7749 129.183 53.3117 128.264 53.7294C127.345 54.1471 126.242 54.3559 124.955 54.3559C123.385 54.3559 122.134 53.9925 121.205 53.2616C120.273 52.5327 119.797 51.5615 119.776 50.3461C119.776 49.4668 119.989 48.479 120.419 47.3804L122.382 42.2344C122.504 41.9233 122.566 41.6726 122.566 41.4826C122.566 41.1714 122.462 40.9271 122.257 40.7475C122.057 40.5699 121.814 40.4801 121.53 40.4801C121 40.4801 120.497 40.7266 120.018 41.2153C119.544 41.7061 119.202 42.3075 118.991 43.0197L116.769 50.3126C116.673 50.5758 116.627 50.8264 116.627 51.0645C116.627 51.3485 116.685 51.5803 116.802 51.7579C116.923 51.9375 117.094 52.1233 117.312 52.3176C117.479 52.4575 117.596 52.5891 117.663 52.7102C117.734 52.8272 117.748 52.9692 117.704 53.1362C117.608 53.4495 117.381 53.6772 117.019 53.8213C116.662 53.9612 116.102 54.0301 115.34 54.0301H107.195C106.573 54.0301 106.124 53.9299 105.85 53.7294C105.579 53.5247 105.478 53.2532 105.549 52.919C105.645 52.635 105.896 52.3844 106.301 52.1672C106.658 51.9792 106.953 51.7537 107.187 51.4905C107.425 51.2295 107.63 50.8118 107.797 50.2375L110.979 39.9121C111.03 39.7909 111.055 39.6239 111.055 39.4108C111.055 39.1498 110.998 38.9472 110.888 38.801C110.781 38.6569 110.612 38.4794 110.378 38.2664C110.138 38.0784 109.969 37.9113 109.868 37.7651C109.772 37.621 109.762 37.431 109.835 37.1971C109.979 36.6457 110.731 36.1612 112.091 35.7435C113.448 35.3258 114.866 35.1169 116.343 35.1169C117.533 35.1169 118.475 35.4469 119.166 36.1027C119.855 36.7606 120.165 37.6711 120.094 38.8344C121.073 37.431 122.111 36.4619 123.21 35.9273C124.306 35.3884 125.498 35.1169 126.785 35.1169C128.239 35.1169 129.41 35.5597 130.302 36.4452C131.198 37.3265 131.647 38.471 131.647 39.8787C131.647 40.6138 131.526 41.3406 131.288 42.059L129.107 49.093Z" fill="#F6B51E"/>
<path d="M38.0536 42.0532C38.7219 42.0532 39.2273 42.191 39.574 42.4625C39.9186 42.7361 40.0919 43.1225 40.0919 43.6237C40.0919 43.8409 40.0543 44.0811 39.9833 44.3422L38.8054 48.5275C38.4921 49.5529 38.0556 50.2692 37.4938 50.6744C36.9362 51.0754 36.1092 51.2759 35.0127 51.2759H18.2131C17.7119 51.2759 17.3255 51.1923 17.0519 51.0253C16.7804 50.8582 16.6426 50.6326 16.6426 50.3486C16.6426 50.2045 16.6802 50.0479 16.7512 49.8808C16.818 49.6928 16.935 49.5341 17.102 49.4046C17.2691 49.271 17.4508 49.1436 17.645 49.0203C18.0231 48.7864 18.3321 48.5442 18.5723 48.2935C18.8104 48.0429 19.0151 47.6315 19.1822 47.0572L23.5429 31.6526C23.6369 31.3415 23.6849 31.0428 23.6849 30.7588C23.6849 30.4977 23.6431 30.2784 23.5596 30.0988C23.476 29.9213 23.3612 29.7124 23.2171 29.4723C23.0041 29.1611 22.8996 28.9105 22.8996 28.7204C22.8996 28.6494 22.9205 28.5178 22.9665 28.3278C23.0604 28.0166 23.2693 27.7973 23.593 27.6678C23.9146 27.5342 24.4117 27.4673 25.08 27.4673H33.4756C33.9769 27.4673 34.3632 27.5467 34.6368 27.7013C34.9083 27.8579 35.0462 28.0772 35.0462 28.3612C35.0462 28.4844 35.0127 28.6411 34.9459 28.829C34.8728 28.9961 34.7705 29.1465 34.6368 29.2801C34.5073 29.4096 34.3883 29.5036 34.2776 29.5642C34.1711 29.6206 34.0959 29.6728 34.052 29.7229C33.6678 29.9359 33.3545 30.1719 33.1164 30.433C32.8825 30.6961 32.682 31.1013 32.5149 31.6526L27.9036 47.8424H30.1174C30.6625 47.8424 31.1324 47.7485 31.5292 47.5584C31.9239 47.3704 32.3353 47.0133 32.7656 46.4891L35.2299 43.5569C35.6811 43.0348 36.1155 42.6526 36.5331 42.4124C36.9508 42.1743 37.4562 42.0532 38.0536 42.0532Z" fill="#34A853"/>
<path d="M50.244 32.3654C51.6245 32.3654 52.6353 32.6307 53.2765 33.159C53.9218 33.6832 54.2455 34.3954 54.2455 35.2976C54.2455 35.849 54.162 36.3753 53.9949 36.8765L50.7035 47.5611C50.6304 47.8451 50.5949 48.0958 50.5949 48.313C50.5949 48.62 50.6533 48.8643 50.7703 49.0481C50.8914 49.2277 51.0627 49.399 51.2799 49.566C51.447 49.7331 51.5639 49.871 51.6307 49.9754C51.7018 50.0819 51.7164 50.2176 51.6725 50.3847C51.5493 50.698 51.3091 50.9256 50.9541 51.0697C50.597 51.2097 50.0477 51.2786 49.3084 51.2786H41.1633C40.541 51.2786 40.0857 51.1783 39.8017 50.9778C39.5176 50.7732 39.4237 50.5017 39.5176 50.1675C39.6137 49.8835 39.8643 49.6329 40.2695 49.4157C40.6266 49.2277 40.9211 49.0022 41.155 48.739C41.3931 48.4779 41.5977 48.0603 41.7648 47.4859L44.8808 37.1605C44.9518 36.9433 44.9894 36.7658 44.9894 36.6259C44.9894 36.3648 44.9268 36.156 44.8056 35.9994C44.6887 35.8448 44.5091 35.6819 44.271 35.5148C44.0308 35.3269 43.8637 35.1598 43.7698 35.0136C43.6737 34.8695 43.6632 34.6794 43.7363 34.4455C43.8742 33.8942 44.6239 33.4097 45.9835 32.992C47.341 32.5743 48.7612 32.3654 50.244 32.3654ZM52.6332 24.471C53.5626 24.471 54.3374 24.7759 54.9556 25.3816C55.5738 25.9893 55.8829 26.7328 55.8829 27.6121C55.8829 28.2365 55.72 28.8463 55.3983 29.4416C55.0809 30.0389 54.6298 30.5192 54.045 30.8868C53.4602 31.2544 52.8107 31.4381 52.0986 31.4381C51.1901 31.4381 50.432 31.1353 49.8263 30.5276C49.2186 29.9219 48.9011 29.1638 48.874 28.2553C48.874 27.6601 49.0285 27.0732 49.3418 26.4926C49.653 25.9079 50.0936 25.4275 50.6617 25.0474C51.2339 24.6631 51.8918 24.471 52.6332 24.471Z" fill="#34A853"/>
<path d="M65.6819 32.0481C67.6576 32.0481 69.368 32.2277 70.8112 32.5828C72.2522 32.9399 73.3612 33.4411 74.136 34.0865C74.9087 34.7276 75.2972 35.4544 75.2972 36.2668C75.2972 37.1022 74.9672 37.7831 74.3114 38.3052C73.6598 38.8294 72.7493 39.0904 71.5797 39.0904C70.3872 39.0904 69.3785 38.7939 68.5556 38.1966C67.7369 37.6014 67.3276 36.8495 67.3276 35.941C67.3276 35.6361 67.3735 35.3375 67.4696 35.0472C67.0394 34.9302 66.6593 34.8717 66.3251 34.8717C65.7278 34.8717 65.2329 35.0179 64.8381 35.3061C64.4476 35.5902 64.2638 35.9953 64.2868 36.5174C64.2868 37.1356 64.5959 37.6598 65.2141 38.088C65.8322 38.5182 66.8347 39.0549 68.2215 39.7003C69.4119 40.2245 70.3955 40.7069 71.1704 41.1455C71.9431 41.5862 72.5989 42.1396 73.1335 42.8079C73.6682 43.4762 73.9355 44.2615 73.9355 45.1637C73.9355 45.36 73.8875 45.7192 73.7935 46.2414C73.4134 47.8349 72.3524 49.0963 70.6107 50.0257C68.8731 50.9571 66.5862 51.4208 63.7521 51.4208C60.5547 51.4208 58.0214 50.9926 56.1501 50.1343C54.283 49.278 53.3516 48.0959 53.3516 46.5922C53.3516 45.5689 53.6607 44.794 54.2788 44.2698C54.897 43.7477 55.7178 43.4846 56.7432 43.4846C57.9337 43.4846 58.9528 43.8563 59.8008 44.5956C60.6466 45.3308 61.0705 46.2727 61.0705 47.4192C61.0705 47.7263 61.0329 48.0458 60.9619 48.3799C61.5342 48.5261 62.0834 48.5971 62.6077 48.5971C63.2258 48.5971 63.7375 48.4301 64.1448 48.0959C64.5499 47.7618 64.7546 47.2981 64.7546 46.7008C64.7254 46.1557 64.4497 45.6879 63.9276 45.2974C63.4034 44.9026 62.5701 44.4286 61.4298 43.8772C60.3542 43.376 59.4708 42.9061 58.7816 42.4654C58.0903 42.0268 57.4993 41.4713 57.0106 40.803C56.5198 40.1347 56.2754 39.3494 56.2754 38.4472C56.2754 36.4924 57.0899 34.9386 58.7231 33.7857C60.3605 32.6287 62.6787 32.0481 65.6819 32.0481Z" fill="#34A853"/>
<path d="M91.0959 32.8332C91.547 32.8332 91.8978 32.9293 92.1485 33.1173C92.3991 33.3073 92.5244 33.5684 92.5244 33.9025C92.5244 34.0028 92.4993 34.1698 92.4492 34.4038C92.1422 35.4563 91.43 35.9826 90.3106 35.9826H88.2305L85.5489 44.8043C85.4319 45.1677 85.3735 45.5374 85.3735 45.9154C85.3735 46.3456 85.4925 46.6422 85.7327 46.8093C85.9708 46.9763 86.3049 47.0599 86.7351 47.0599C87.1132 47.0599 87.5893 47.0139 88.1637 46.9179C88.4477 46.8468 88.6983 46.8093 88.9155 46.8093C89.0826 46.8093 89.2079 46.8656 89.2914 46.9763C89.375 47.0828 89.4167 47.2186 89.4167 47.3857C89.4376 47.8598 89.0847 48.4362 88.3558 49.1149C87.6311 49.7958 86.6474 50.3805 85.4069 50.8692C84.1705 51.3579 82.8005 51.6044 81.2968 51.6044C79.6761 51.6044 78.375 51.2347 77.3955 50.4933C76.4202 49.754 75.9336 48.739 75.9336 47.4525C75.9336 46.8573 76.0297 46.2871 76.226 45.74L78.5149 38.6642C78.6319 38.2591 78.6904 37.9354 78.6904 37.6952C78.6904 37.2169 78.5755 36.8138 78.3479 36.4839C78.1244 36.1497 77.809 35.803 77.4039 35.4396C77.0467 35.1055 76.7961 34.8277 76.652 34.6042C76.5058 34.3766 76.4703 34.1093 76.5434 33.8023C76.6374 33.4911 76.84 33.2509 77.1533 33.0838C77.4644 32.9168 77.9511 32.8332 78.6152 32.8332H80.6201L82.8757 30.5777C83.6609 29.7924 84.3794 29.2473 85.031 28.9403C85.6867 28.6291 86.5388 28.4725 87.5872 28.4725C89.0909 28.4725 89.8428 29.0447 89.8428 30.185C89.8428 30.5484 89.7948 30.8826 89.7008 31.1875L89.1995 32.8332H91.0959Z" fill="#34A853"/>
<path d="M102.606 32.1905C105.63 32.1905 107.821 32.675 109.181 33.6441C110.538 34.6089 111.219 35.839 111.219 37.3365C111.219 37.7876 111.171 38.2053 111.077 38.5896C110.72 40.1601 109.724 41.2858 108.086 41.9645C106.453 42.6454 104.53 42.9837 102.314 42.9837C101.194 42.9837 100.146 42.9148 99.1727 42.7748C99.1497 44.0112 99.4839 44.88 100.175 45.3813C100.864 45.8825 101.829 46.1331 103.066 46.1331C103.638 46.1331 104.187 46.0704 104.711 45.941C105.233 45.8073 105.902 45.611 106.716 45.3478C107.378 45.1098 107.829 44.9886 108.07 44.9886C108.331 44.9886 108.462 45.1453 108.462 45.4564C108.489 46.2876 108.18 47.1606 107.535 48.0796C106.894 48.9985 105.941 49.7817 104.678 50.427C103.412 51.0681 101.888 51.3877 100.1 51.3877C97.4539 51.3877 95.284 50.7236 93.5923 49.3911C91.8986 48.0545 91.0527 46.1122 91.0527 43.5601C91.0527 42.8417 91.1488 42.0063 91.3451 41.0539C91.9403 38.1259 93.2435 35.9163 95.2547 34.4293C97.2701 32.9382 99.7199 32.1905 102.606 32.1905ZM99.4233 40.6279C99.5173 40.6509 99.6489 40.6613 99.8159 40.6613C100.818 40.6613 101.581 40.1977 102.105 39.2662C102.627 38.3369 102.878 37.301 102.857 36.1586C102.828 35.4903 102.635 35.1561 102.28 35.1561C102.017 35.1561 101.708 35.365 101.353 35.7827C100.996 36.2003 100.645 36.8269 100.3 37.6623C99.9538 38.4935 99.6614 39.4813 99.4233 40.6279Z" fill="#34A853"/>
<path d="M132.629 46.3387C132.579 46.4389 132.554 46.5851 132.554 46.7731C132.554 46.9401 132.595 47.0717 132.679 47.1657C132.762 47.2618 132.875 47.3077 133.021 47.3077C133.305 47.3077 133.548 47.1824 133.748 46.9318C133.953 46.6812 134.093 46.5559 134.166 46.5559C134.283 46.5559 134.377 46.6352 134.45 46.7898C134.521 46.9464 134.559 47.1302 134.559 47.3411C134.579 48.0324 134.352 48.707 133.874 49.3628C133.399 50.0206 132.704 50.5574 131.785 50.9751C130.866 51.3928 129.763 51.6016 128.477 51.6016C126.906 51.6016 125.655 51.2382 124.726 50.5072C123.795 49.7784 123.318 48.8072 123.298 47.5917C123.298 46.7125 123.511 45.7247 123.941 44.6261L125.904 39.4801C126.025 39.169 126.088 38.9183 126.088 38.7283C126.088 38.4171 125.983 38.1728 125.779 37.9931C125.578 37.8156 125.336 37.7258 125.052 37.7258C124.521 37.7258 124.018 37.9723 123.54 38.461C123.066 38.9518 122.723 39.5532 122.512 40.2654L120.29 47.5583C120.194 47.8215 120.148 48.0721 120.148 48.3102C120.148 48.5942 120.207 48.826 120.324 49.0036C120.445 49.1832 120.616 49.369 120.833 49.5633C121 49.7032 121.117 49.8348 121.184 49.9559C121.255 50.0728 121.27 50.2149 121.226 50.3819C121.13 50.6952 120.902 50.9229 120.541 51.067C120.184 51.2069 119.624 51.2758 118.862 51.2758H110.717C110.094 51.2758 109.645 51.1756 109.372 50.9751C109.1 50.7704 109 50.4989 109.071 50.1647C109.167 49.8807 109.418 49.6301 109.823 49.4129C110.18 49.2249 110.474 48.9994 110.708 48.7362C110.946 48.4752 111.151 48.0575 111.318 47.4831L114.501 37.1578C114.551 37.0366 114.576 36.8696 114.576 36.6565C114.576 36.3955 114.52 36.1929 114.409 36.0467C114.303 35.9026 114.133 35.7251 113.899 35.512C113.659 35.3241 113.49 35.157 113.39 35.0108C113.294 34.8667 113.283 34.6767 113.356 34.4428C113.501 33.8914 114.252 33.4069 115.612 32.9892C116.969 32.5715 118.388 32.3626 119.864 32.3626C121.055 32.3626 121.996 32.6926 122.688 33.3484C123.377 34.0063 123.686 34.9168 123.615 36.0801C124.594 34.6767 125.632 33.7076 126.731 33.173C127.827 32.6341 129.02 32.3626 130.306 32.3626C131.76 32.3626 132.932 32.8054 133.823 33.6909C134.719 34.5722 135.168 35.7167 135.168 37.1243C135.168 37.8595 135.047 38.5863 134.809 39.3047L132.629 46.3387Z" fill="#34A853"/>
<path d="M56.1453 65.8446C55.7652 67.2272 55.051 68.3048 53.9984 69.0776C52.95 69.8524 51.628 70.3348 50.0303 70.5228C51.1768 70.6189 52.0352 70.953 52.6033 71.5253C53.1755 72.0996 53.4637 72.8514 53.4637 73.7808C53.4637 74.1379 53.4052 74.5786 53.2883 75.1007L52.8957 76.855C52.8455 77.0952 52.8205 77.2623 52.8205 77.3563C52.8205 77.6633 52.8915 77.8951 53.0377 78.0496C53.1818 78.2063 53.3844 78.2835 53.6475 78.2835C54.1425 78.2835 54.5038 78.3566 54.7335 78.5007C54.9611 78.6407 55.0384 78.9017 54.9674 79.286C54.8713 79.8332 54.5852 80.3678 54.107 80.8899C53.6329 81.4142 52.9583 81.8506 52.0853 82.2015C51.2165 82.5461 50.1639 82.7194 48.9276 82.7194C47.3508 82.7194 46.0977 82.3686 45.1683 81.6669C44.2431 80.961 43.7816 79.9522 43.7816 78.6428C43.7816 78.1415 43.8505 77.6048 43.9904 77.0305L44.5668 74.7415C44.6608 74.4366 44.7089 74.115 44.7089 73.7808C44.7089 73.2294 44.5209 72.8368 44.1492 72.6029C43.7816 72.3648 43.1926 72.2437 42.3865 72.2437H41.0248L39.3791 78.1749C39.3331 78.3211 39.3123 78.4987 39.3123 78.7096C39.3123 79.0437 39.3958 79.332 39.5629 79.57C39.73 79.8102 39.9555 80.0608 40.2395 80.3219C40.4567 80.489 40.6238 80.6519 40.7408 80.8064C40.8577 80.9568 40.9162 81.1155 40.9162 81.2826C40.9162 81.6898 40.7241 81.976 40.3398 82.143C39.9597 82.3101 39.4042 82.3936 38.669 82.3936H29.697C29.0725 82.3936 28.6089 82.283 28.3019 82.0595C27.9907 81.8318 27.8821 81.5144 27.9761 81.1071C28.0262 80.8899 28.1181 80.7187 28.2517 80.5892C28.3812 80.4555 28.5754 80.3052 28.8365 80.1381C29.2417 79.9042 29.5633 79.6578 29.7972 79.3946C30.0353 79.1273 30.2274 78.7221 30.3736 78.1749L34.7343 62.7704C34.8283 62.4592 34.8764 62.1606 34.8764 61.8765C34.8764 61.6155 34.8346 61.3962 34.751 61.2166C34.6675 61.0391 34.5547 60.8302 34.4169 60.59C34.1997 60.2789 34.0911 60.0282 34.0911 59.8382C34.0911 59.7672 34.1162 59.6356 34.1663 59.4456C34.2603 59.1344 34.467 58.9151 34.7845 58.7856C35.1061 58.6519 35.6031 58.5851 36.2715 58.5851H48.2509C49.8924 58.5851 51.3272 58.8357 52.5531 59.337C53.777 59.8382 54.7189 60.5232 55.3768 61.392C56.0325 62.2608 56.3625 63.2445 56.3625 64.3409C56.3625 64.8422 56.2894 65.3434 56.1453 65.8446ZM46.9978 65.4854C47.1148 64.9403 47.1733 64.5226 47.1733 64.2323C47.1733 62.9688 46.482 62.336 45.1015 62.336H43.5978L42.0273 68.6682H43.531C44.4603 68.6682 45.1934 68.4427 45.728 67.9916C46.2627 67.5363 46.6846 66.7009 46.9978 65.4854Z" fill="#F6B51E"/>
<path d="M68.0866 63.3079C71.1107 63.3079 73.3015 63.7924 74.6611 64.7615C76.0186 65.7263 76.6994 66.9564 76.6994 68.4539C76.6994 68.905 76.6514 69.3227 76.5574 69.707C76.2003 71.2775 75.2041 72.4032 73.5667 73.0819C71.9336 73.7628 70.0101 74.1011 67.7942 74.1011C66.6748 74.1011 65.6264 74.0322 64.6532 73.8922C64.6302 75.1286 64.9643 75.9974 65.6556 76.4987C66.3448 76.9999 67.3097 77.2505 68.5461 77.2505C69.1183 77.2505 69.6676 77.1878 70.1918 77.0584C70.7139 76.9247 71.3822 76.7284 72.1967 76.4652C72.8588 76.2272 73.3099 76.106 73.55 76.106C73.8111 76.106 73.9427 76.2627 73.9427 76.5738C73.9698 77.405 73.6607 78.278 73.0154 79.197C72.3742 80.1159 71.4219 80.8991 70.1584 81.5444C68.8928 82.1856 67.3682 82.5051 65.5804 82.5051C62.9344 82.5051 60.7644 81.841 59.0728 80.5085C57.379 79.1719 56.5332 77.2296 56.5332 74.6775C56.5332 73.9591 56.6293 73.1237 56.8256 72.1713C57.4208 69.2433 58.724 67.0337 60.7352 65.5467C62.7506 64.0556 65.2003 63.3079 68.0866 63.3079ZM64.9038 71.7453C64.9978 71.7683 65.1293 71.7787 65.2964 71.7787C66.2989 71.7787 67.0612 71.3151 67.5854 70.3836C68.1075 69.4543 68.3581 68.4184 68.3372 67.276C68.308 66.6077 68.1158 66.2735 67.7608 66.2735C67.4977 66.2735 67.1886 66.4824 66.8335 66.9001C66.4764 67.3177 66.1255 67.9443 65.7809 68.7797C65.4343 69.6109 65.1419 70.5987 64.9038 71.7453Z" fill="#F6B51E"/>
<path d="M94.6765 63.3424C96.5081 63.3424 97.947 63.9522 98.9954 65.1719C100.048 66.3874 100.574 68.0414 100.574 70.1341C100.574 71.2535 100.418 72.4356 100.106 73.6761C99.3922 76.6334 98.0598 78.8806 96.105 80.4177C94.1502 81.9548 91.8863 82.7234 89.3133 82.7234C87.6697 82.7234 86.2412 82.3767 85.0278 81.6791L83.8833 85.5052C83.7872 85.7663 83.7413 86.0169 83.7413 86.257C83.7413 86.5181 83.7997 86.7374 83.9167 86.917C84.0336 87.0945 84.1882 87.2679 84.3845 87.4349C84.5725 87.6292 84.6957 87.7858 84.7521 87.9028C84.8126 88.0197 84.821 88.1617 84.7771 88.3288C84.6811 88.64 84.4534 88.8593 84.0921 88.9888C83.735 89.1224 83.1899 89.1893 82.4548 89.1893H74.268C73.6456 89.1893 73.1966 89.0848 72.923 88.8802C72.6515 88.6797 72.5721 88.4249 72.6891 88.12C72.7392 87.9236 72.8269 87.7691 72.9481 87.6521C73.065 87.5352 73.23 87.4287 73.4409 87.3347C73.7981 87.0945 74.0842 86.8502 74.3014 86.5996C74.5144 86.3489 74.7024 85.948 74.8694 85.3966L80.0906 68.2795C80.1616 68.0623 80.1992 67.8848 80.1992 67.7449C80.1992 67.4838 80.1366 67.275 80.0154 67.1183C79.8985 66.9638 79.7189 66.8009 79.4808 66.6338C79.2469 66.4458 79.0798 66.2788 78.9796 66.1326C78.8835 65.9885 78.873 65.7984 78.9461 65.5645C79.0902 65.0132 79.8421 64.5286 81.2017 64.1109C82.5592 63.6932 83.9773 63.4844 85.4538 63.4844C86.5001 63.4844 87.3627 63.7496 88.0435 64.278C88.7223 64.8022 89.1086 65.529 89.2047 66.4584C90.8253 64.3824 92.6486 63.3424 94.6765 63.3424ZM90.533 73.9601C91.101 71.8383 91.385 70.3742 91.385 69.566C91.385 69.0648 91.3057 68.7369 91.1511 68.5803C91.0008 68.4257 90.7794 68.3463 90.4912 68.3463C90.2782 68.3463 90.0067 68.4508 89.6725 68.6554C89.3384 68.8559 89.0042 69.1964 88.67 69.6746L85.8464 79.0393C86.1305 79.3233 86.4751 79.4653 86.8823 79.4653C87.5276 79.4653 88.1396 79.104 88.7202 78.3793C89.3049 77.6505 89.9085 76.1781 90.533 73.9601Z" fill="#F6B51E"/>
<path d="M112.799 63.3079C115.824 63.3079 118.014 63.7924 119.374 64.7615C120.731 65.7263 121.412 66.9564 121.412 68.4539C121.412 68.905 121.364 69.3227 121.27 69.707C120.913 71.2775 119.917 72.4032 118.28 73.0819C116.646 73.7628 114.723 74.1011 112.507 74.1011C111.388 74.1011 110.339 74.0322 109.366 73.8922C109.343 75.1286 109.677 75.9974 110.369 76.4987C111.058 76.9999 112.023 77.2505 113.259 77.2505C113.831 77.2505 114.38 77.1878 114.905 77.0584C115.427 76.9247 116.095 76.7284 116.91 76.4652C117.572 76.2272 118.023 76.106 118.263 76.106C118.524 76.106 118.656 76.2627 118.656 76.5738C118.683 77.405 118.374 78.278 117.728 79.197C117.087 80.1159 116.135 80.8991 114.871 81.5444C113.606 82.1856 112.081 82.5051 110.293 82.5051C107.647 82.5051 105.477 81.841 103.786 80.5085C102.092 79.1719 101.246 77.2296 101.246 74.6775C101.246 73.9591 101.342 73.1237 101.538 72.1713C102.134 69.2433 103.437 67.0337 105.448 65.5467C107.463 64.0556 109.913 63.3079 112.799 63.3079ZM109.617 71.7453C109.711 71.7683 109.842 71.7787 110.009 71.7787C111.012 71.7787 111.774 71.3151 112.298 70.3836C112.82 69.4543 113.071 68.4184 113.05 67.276C113.021 66.6077 112.829 66.2735 112.474 66.2735C112.211 66.2735 111.901 66.4824 111.546 66.9001C111.189 67.3177 110.838 67.9443 110.494 68.7797C110.147 69.6109 109.855 70.5987 109.617 71.7453Z" fill="#F6B51E"/>
<path d="M133.459 63.4805C136.199 63.4805 138.39 63.988 140.034 65.0009C141.675 66.0159 142.498 67.5572 142.498 69.6289C142.498 70.4204 142.356 71.3143 142.072 72.3105L140.602 77.2476C140.579 77.3437 140.568 77.4628 140.568 77.6069C140.568 77.987 140.723 78.1749 141.036 78.1749C141.32 78.1749 141.563 78.0496 141.763 77.799C141.968 77.5484 142.108 77.4231 142.181 77.4231C142.298 77.4231 142.398 77.5066 142.481 77.6737C142.565 77.8408 142.607 78.0329 142.607 78.2501C142.628 78.8913 142.383 79.545 141.872 80.2133C141.358 80.8816 140.673 81.4308 139.817 81.859C138.958 82.2892 138.016 82.5022 136.993 82.5022C135.757 82.5022 134.696 82.2767 133.81 81.8256C132.929 81.3703 132.323 80.702 131.989 79.8206C131.275 80.679 130.429 81.341 129.449 81.8089C128.474 82.2725 127.428 82.5022 126.308 82.5022C125.043 82.5022 123.982 82.2579 123.126 81.7671C122.267 81.2784 121.63 80.6456 121.212 79.8708C120.795 79.098 120.586 78.2814 120.586 77.4231C120.586 77.0451 120.624 76.6775 120.695 76.3204C121.073 74.6726 121.9 73.4341 123.176 72.6029C124.45 71.7675 125.97 71.3498 127.737 71.3498C129.713 71.3498 131.655 71.6589 133.559 72.2771L134.453 69.9213C134.765 68.9188 134.921 68.1419 134.921 67.5906C134.898 67.0225 134.706 66.5965 134.345 66.3124C133.988 66.0242 133.443 65.878 132.707 65.878C132.845 66.2623 132.916 66.6549 132.916 67.0559C132.916 67.9414 132.582 68.7079 131.914 69.3532C131.25 69.9944 130.297 70.3139 129.057 70.3139C127.891 70.3139 126.981 70.0591 126.325 69.5454C125.667 69.0337 125.339 68.3967 125.339 67.6323C125.339 66.4419 126.008 65.452 127.344 64.6667C128.681 63.8773 130.719 63.4805 133.459 63.4805ZM131.454 74.3154C130.786 74.3154 130.243 74.5723 129.825 75.084C129.408 75.5978 129.199 76.1512 129.199 76.7464C129.199 77.1265 129.286 77.4356 129.466 77.6737C129.65 77.9139 129.905 78.0329 130.235 78.0329C130.546 78.0329 130.886 77.9076 131.254 77.657C131.626 77.4064 131.897 77.0304 132.064 76.5292L132.816 74.424C132.409 74.353 131.956 74.3154 131.454 74.3154Z" fill="#F6B51E"/>
<path d="M160.051 63.951C160.502 63.951 160.853 64.0471 161.104 64.235C161.354 64.4251 161.479 64.6861 161.479 65.0203C161.479 65.1205 161.454 65.2876 161.404 65.5215C161.097 66.5741 160.385 67.1004 159.266 67.1004H157.186L154.504 75.9221C154.387 76.2855 154.329 76.6551 154.329 77.0332C154.329 77.4634 154.448 77.7599 154.688 77.927C154.926 78.0941 155.26 78.1776 155.69 78.1776C156.068 78.1776 156.544 78.1317 157.119 78.0356C157.403 77.9646 157.653 77.927 157.871 77.927C158.038 77.927 158.163 77.9834 158.247 78.0941C158.33 78.2006 158.372 78.3364 158.372 78.5034C158.393 78.9775 158.04 79.5539 157.311 80.2327C156.586 80.9135 155.603 81.4983 154.362 81.987C153.126 82.4757 151.756 82.7221 150.252 82.7221C148.631 82.7221 147.33 82.3525 146.351 81.6111C145.375 80.8718 144.889 79.8568 144.889 78.5703C144.889 77.9751 144.985 77.4049 145.181 76.8577L147.47 69.782C147.587 69.3768 147.645 69.0531 147.645 68.8129C147.645 68.3347 147.531 67.9316 147.303 67.6016C147.079 67.2675 146.764 66.9208 146.359 66.5574C146.002 66.2232 145.751 65.9455 145.607 65.722C145.461 65.4944 145.425 65.227 145.499 64.92C145.592 64.6089 145.795 64.3687 146.108 64.2016C146.42 64.0345 146.906 63.951 147.57 63.951H149.575L151.831 61.6954C152.616 60.9102 153.334 60.3651 153.986 60.0581C154.642 59.7469 155.494 59.5903 156.542 59.5903C158.046 59.5903 158.798 60.1625 158.798 61.3028C158.798 61.6662 158.75 62.0004 158.656 62.3053L158.155 63.951H160.051Z" fill="#F6B51E"/>
<path d="M59.6668 63.0975C59.2867 64.4801 58.5724 65.5577 57.5198 66.3305C56.4714 67.1053 55.1494 67.5877 53.5518 67.7757C54.6983 67.8718 55.5567 68.2059 56.1248 68.7782C56.697 69.3525 56.9852 70.1043 56.9852 71.0337C56.9852 71.3908 56.9267 71.8315 56.8098 72.3536L56.4171 74.1079C56.367 74.3481 56.342 74.5152 56.342 74.6092C56.342 74.9162 56.413 75.148 56.5592 75.3025C56.7033 75.4592 56.9058 75.5364 57.169 75.5364C57.664 75.5364 58.0253 75.6095 58.255 75.7536C58.4826 75.8936 58.5599 76.1546 58.4889 76.5389C58.3928 77.0861 58.1067 77.6207 57.6285 78.1428C57.1544 78.6671 56.4798 79.1035 55.6068 79.4544C54.738 79.799 53.6854 79.9723 52.4491 79.9723C50.8723 79.9723 49.6192 79.6215 48.6898 78.9198C47.7646 78.2139 47.3031 77.2051 47.3031 75.8957C47.3031 75.3944 47.372 74.8577 47.5119 74.2834L48.0883 71.9944C48.1823 71.6895 48.2303 71.3679 48.2303 71.0337C48.2303 70.4823 48.0424 70.0897 47.6706 69.8558C47.3031 69.6177 46.7141 69.4966 45.908 69.4966H44.5463L42.9006 75.4278C42.8546 75.574 42.8337 75.7516 42.8337 75.9625C42.8337 76.2966 42.9173 76.5849 43.0844 76.8229C43.2514 77.0631 43.477 77.3137 43.761 77.5748C43.9782 77.7419 44.1453 77.9048 44.2623 78.0593C44.3792 78.2097 44.4377 78.3684 44.4377 78.5355C44.4377 78.9427 44.2455 79.2288 43.8613 79.3959C43.4812 79.563 42.9256 79.6465 42.1905 79.6465H33.2184C32.594 79.6465 32.1303 79.5359 31.8233 79.3124C31.5122 79.0847 31.4036 78.7673 31.4975 78.36C31.5477 78.1428 31.6396 77.9716 31.7732 77.8421C31.9027 77.7084 32.0969 77.5581 32.358 77.391C32.7632 77.1571 33.0848 76.9107 33.3187 76.6475C33.5568 76.3802 33.7489 75.975 33.8951 75.4278L38.2558 60.0233C38.3498 59.7121 38.3978 59.4135 38.3978 59.1294C38.3978 58.8684 38.3561 58.6491 38.2725 58.4695C38.189 58.292 38.0762 58.0831 37.9384 57.8429C37.7212 57.5318 37.6126 57.2811 37.6126 57.0911C37.6126 57.0201 37.6376 56.8885 37.6878 56.6985C37.7817 56.3873 37.9885 56.168 38.3059 56.0385C38.6276 55.9048 39.1246 55.838 39.7929 55.838H51.7724C53.4139 55.838 54.8487 56.0886 56.0746 56.5899C57.2985 57.0911 58.2404 57.7761 58.8982 58.6449C59.554 59.5137 59.884 60.4974 59.884 61.5938C59.884 62.0951 59.8109 62.5963 59.6668 63.0975ZM50.5193 62.7383C50.6363 62.1932 50.6947 61.7755 50.6947 61.4852C50.6947 60.2217 50.0035 59.5889 48.623 59.5889H47.1193L45.5488 65.9211H47.0525C47.9818 65.9211 48.7149 65.6956 49.2495 65.2445C49.7842 64.7892 50.206 63.9538 50.5193 62.7383Z" fill="#34A853"/>
<path d="M71.6081 60.5571C74.6322 60.5571 76.823 61.0417 78.1826 62.0107C79.5401 62.9756 80.2209 64.2057 80.2209 65.7031C80.2209 66.1542 80.1729 66.5719 80.0789 66.9562C79.7218 68.5267 78.7256 69.6524 77.0882 70.3312C75.455 71.012 73.5316 71.3503 71.3157 71.3503C70.1963 71.3503 69.1479 71.2814 68.1747 71.1415C68.1517 72.3779 68.4858 73.2467 69.1771 73.7479C69.8663 74.2491 70.8312 74.4997 72.0676 74.4997C72.6398 74.4997 73.1891 74.4371 73.7133 74.3076C74.2354 74.1739 74.9037 73.9776 75.7182 73.7145C76.3802 73.4764 76.8314 73.3553 77.0715 73.3553C77.3326 73.3553 77.4642 73.5119 77.4642 73.8231C77.4913 74.6543 77.1822 75.5273 76.5369 76.4462C75.8957 77.3651 74.9434 78.1483 73.6799 78.7936C72.4142 79.4348 70.8897 79.7543 69.1019 79.7543C66.4558 79.7543 64.2859 79.0902 62.5943 77.7577C60.9005 76.4211 60.0547 74.4789 60.0547 71.9267C60.0547 71.2083 60.1508 70.3729 60.3471 69.4206C60.9423 66.4926 62.2455 64.283 64.2567 62.796C66.2721 61.3048 68.7218 60.5571 71.6081 60.5571ZM68.4253 68.9945C68.5192 69.0175 68.6508 69.028 68.8179 69.028C69.8204 69.028 70.5827 68.5643 71.1069 67.6329C71.629 66.7035 71.8796 65.6676 71.8587 64.5252C71.8295 63.8569 71.6373 63.5228 71.2823 63.5228C71.0191 63.5228 70.7101 63.7316 70.355 64.1493C69.9979 64.567 69.647 65.1935 69.3024 66.0289C68.9557 66.8601 68.6634 67.848 68.4253 68.9945Z" fill="#34A853"/>
<path d="M98.198 60.5878C100.03 60.5878 101.469 61.1976 102.517 62.4173C103.569 63.6328 104.096 65.2868 104.096 67.3795C104.096 68.4989 103.939 69.681 103.628 70.9215C102.914 73.8788 101.581 76.126 99.6265 77.6631C97.6717 79.2002 95.4078 79.9687 92.8348 79.9687C91.1911 79.9687 89.7626 79.6221 88.5492 78.9245L87.4048 82.7506C87.3087 83.0116 87.2627 83.2623 87.2627 83.5024C87.2627 83.7635 87.3212 83.9828 87.4382 84.1624C87.5551 84.3399 87.7097 84.5133 87.906 84.6803C88.094 84.8746 88.2172 85.0312 88.2736 85.1481C88.3341 85.2651 88.3425 85.4071 88.2986 85.5742C88.2026 85.8854 87.9749 86.1047 87.6136 86.2341C87.2565 86.3678 86.7114 86.4346 85.9762 86.4346H77.7895C77.1671 86.4346 76.7181 86.3302 76.4445 86.1255C76.173 85.9251 76.0936 85.6703 76.2106 85.3653C76.2607 85.169 76.3484 85.0145 76.4695 84.8975C76.5865 84.7806 76.7515 84.6741 76.9624 84.5801C77.3195 84.3399 77.6057 84.0956 77.8229 83.8449C78.0359 83.5943 78.2239 83.1933 78.3909 82.642L83.6121 65.5249C83.6831 65.3077 83.7207 65.1302 83.7207 64.9903C83.7207 64.7292 83.658 64.5204 83.5369 64.3637C83.42 64.2092 83.2404 64.0463 83.0023 63.8792C82.7684 63.6912 82.6013 63.5242 82.501 63.378C82.405 63.2339 82.3945 63.0438 82.4676 62.8099C82.6117 62.2585 83.3636 61.774 84.7232 61.3563C86.0807 60.9386 87.4987 60.7298 88.9753 60.7298C90.0216 60.7298 90.8841 60.995 91.565 61.5234C92.2437 62.0476 92.6301 62.7744 92.7262 63.7038C94.3468 61.6278 96.1701 60.5878 98.198 60.5878ZM94.0544 71.2055C94.6225 69.0837 94.9065 67.6196 94.9065 66.8114C94.9065 66.3102 94.8272 65.9823 94.6726 65.8256C94.5223 65.6711 94.3009 65.5917 94.0127 65.5917C93.7996 65.5917 93.5281 65.6962 93.194 65.9008C92.8598 66.1013 92.5257 66.4417 92.1915 66.92L89.3679 76.2847C89.6519 76.5687 89.9965 76.7107 90.4038 76.7107C91.0491 76.7107 91.6611 76.3494 92.2416 75.6247C92.8264 74.8959 93.43 73.4235 94.0544 71.2055Z" fill="#34A853"/>
<path d="M116.321 60.5571C119.345 60.5571 121.536 61.0417 122.895 62.0107C124.253 62.9756 124.934 64.2057 124.934 65.7031C124.934 66.1542 124.886 66.5719 124.792 66.9562C124.435 68.5267 123.438 69.6524 121.801 70.3312C120.168 71.012 118.244 71.3503 116.029 71.3503C114.909 71.3503 113.861 71.2814 112.888 71.1415C112.865 72.3779 113.199 73.2467 113.89 73.7479C114.579 74.2491 115.544 74.4997 116.78 74.4997C117.353 74.4997 117.902 74.4371 118.426 74.3076C118.948 74.1739 119.617 73.9776 120.431 73.7145C121.093 73.4764 121.544 73.3553 121.784 73.3553C122.045 73.3553 122.177 73.5119 122.177 73.8231C122.204 74.6543 121.895 75.5273 121.25 76.4462C120.609 77.3651 119.656 78.1483 118.393 78.7936C117.127 79.4348 115.603 79.7543 113.815 79.7543C111.169 79.7543 108.999 79.0902 107.307 77.7577C105.613 76.4211 104.768 74.4789 104.768 71.9267C104.768 71.2083 104.864 70.3729 105.06 69.4206C105.655 66.4926 106.958 64.283 108.97 62.796C110.985 61.3048 113.435 60.5571 116.321 60.5571ZM113.138 68.9945C113.232 69.0175 113.364 69.028 113.531 69.028C114.533 69.028 115.296 68.5643 115.82 67.6329C116.342 66.7035 116.592 65.6676 116.572 64.5252C116.542 63.8569 116.35 63.5228 115.995 63.5228C115.732 63.5228 115.423 63.7316 115.068 64.1493C114.711 64.567 114.36 65.1935 114.015 66.0289C113.669 66.8601 113.376 67.848 113.138 68.9945Z" fill="#34A853"/>
<path d="M136.979 60.7297C139.719 60.7297 141.91 61.2372 143.553 62.2501C145.195 63.2651 146.018 64.8064 146.018 66.8782C146.018 67.6697 145.876 68.5636 145.592 69.5598L144.121 74.4969C144.098 74.593 144.088 74.712 144.088 74.8561C144.088 75.2362 144.242 75.4242 144.556 75.4242C144.84 75.4242 145.082 75.2989 145.283 75.0483C145.487 74.7977 145.627 74.6723 145.7 74.6723C145.817 74.6723 145.917 74.7559 146.001 74.923C146.085 75.09 146.126 75.2822 146.126 75.4994C146.147 76.1405 145.903 76.7942 145.391 77.4625C144.877 78.1308 144.192 78.6801 143.336 79.1083C142.478 79.5385 141.536 79.7515 140.512 79.7515C139.276 79.7515 138.215 79.5259 137.33 79.0748C136.448 78.6196 135.843 77.9512 135.509 77.0699C134.794 77.9283 133.948 78.5903 132.969 79.0581C131.994 79.5218 130.947 79.7515 129.828 79.7515C128.562 79.7515 127.501 79.5071 126.645 79.0164C125.787 78.5277 125.15 77.8949 124.732 77.12C124.314 76.3473 124.105 75.5307 124.105 74.6723C124.105 74.2943 124.143 73.9268 124.214 73.5696C124.592 71.9218 125.419 70.6834 126.695 69.8522C127.969 69.0168 129.49 68.5991 131.256 68.5991C133.232 68.5991 135.174 68.9082 137.079 69.5264L137.973 67.1706C138.284 66.1681 138.441 65.3912 138.441 64.8398C138.418 64.2718 138.226 63.8457 137.864 63.5617C137.507 63.2735 136.962 63.1273 136.227 63.1273C136.365 63.5116 136.436 63.9042 136.436 64.3052C136.436 65.1907 136.102 65.9572 135.433 66.6025C134.769 67.2437 133.817 67.5632 132.576 67.5632C131.411 67.5632 130.5 67.3084 129.845 66.7946C129.187 66.283 128.859 65.646 128.859 64.8816C128.859 63.6912 129.527 62.7012 130.864 61.916C132.2 61.1265 134.239 60.7297 136.979 60.7297ZM134.974 71.5647C134.306 71.5647 133.763 71.8216 133.345 72.3333C132.927 72.847 132.718 73.4005 132.718 73.9957C132.718 74.3758 132.806 74.6849 132.986 74.923C133.169 75.1631 133.424 75.2822 133.754 75.2822C134.065 75.2822 134.406 75.1569 134.773 74.9063C135.145 74.6556 135.417 74.2797 135.584 73.7785L136.336 71.6733C135.928 71.6023 135.475 71.5647 134.974 71.5647Z" fill="#34A853"/>
<path d="M163.572 61.2001C164.024 61.2001 164.374 61.2962 164.625 61.4841C164.876 61.6742 165.001 61.9352 165.001 62.2694C165.001 62.3696 164.976 62.5367 164.926 62.7706C164.619 63.8232 163.907 64.3495 162.787 64.3495H160.707L158.025 73.1712C157.909 73.5346 157.85 73.9043 157.85 74.2823C157.85 74.7125 157.969 75.0091 158.209 75.1761C158.447 75.3432 158.781 75.4268 159.212 75.4268C159.59 75.4268 160.066 75.3808 160.64 75.2847C160.924 75.2137 161.175 75.1761 161.392 75.1761C161.559 75.1761 161.684 75.2325 161.768 75.3432C161.852 75.4497 161.893 75.5855 161.893 75.7526C161.914 76.2266 161.561 76.803 160.832 77.4818C160.108 78.1626 159.124 78.7474 157.883 79.2361C156.647 79.7248 155.277 79.9713 153.773 79.9713C152.153 79.9713 150.852 79.6016 149.872 78.8602C148.897 78.1209 148.41 77.1059 148.41 75.8194C148.41 75.2242 148.506 74.654 148.703 74.1068L150.992 67.0311C151.108 66.6259 151.167 66.3022 151.167 66.0621C151.167 65.5838 151.052 65.1807 150.824 64.8507C150.601 64.5166 150.286 64.1699 149.88 63.8065C149.523 63.4724 149.273 63.1946 149.129 62.9711C148.982 62.7435 148.947 62.4762 149.02 62.1692C149.114 61.858 149.317 61.6178 149.63 61.4507C149.941 61.2836 150.428 61.2001 151.092 61.2001H153.097L155.352 58.9446C156.137 58.1593 156.856 57.6142 157.508 57.3072C158.163 56.996 159.015 56.8394 160.064 56.8394C161.568 56.8394 162.319 57.4116 162.319 58.5519C162.319 58.9153 162.271 59.2495 162.177 59.5544L161.676 61.2001H163.572Z" fill="#34A853"/>
</svg>
