<svg width="20" height="20" viewBox="0 0 20 20" fill="none" xmlns="http://www.w3.org/2000/svg">
<path fill-rule="evenodd" clip-rule="evenodd" d="M2.68293 0C1.97137 0 1.28896 0.282665 0.785811 0.785811C0.282665 1.28896 0 1.97137 0 2.68293C0 3.39448 0.282665 4.0769 0.785811 4.58004C1.28896 5.08319 1.97137 5.36585 2.68293 5.36585C3.39448 5.36585 4.0769 5.08319 4.58004 4.58004C5.08319 4.0769 5.36585 3.39448 5.36585 2.68293C5.36585 1.97137 5.08319 1.28896 4.58004 0.785811C4.0769 0.282665 3.39448 0 2.68293 0ZM1.46341 2.68293C1.46341 2.35949 1.5919 2.0493 1.8206 1.8206C2.0493 1.5919 2.35949 1.46341 2.68293 1.46341C3.00636 1.46341 3.31655 1.5919 3.54525 1.8206C3.77396 2.0493 3.90244 2.35949 3.90244 2.68293C3.90244 3.00636 3.77396 3.31655 3.54525 3.54525C3.31655 3.77396 3.00636 3.90244 2.68293 3.90244C2.35949 3.90244 2.0493 3.77396 1.8206 3.54525C1.5919 3.31655 1.46341 3.00636 1.46341 2.68293ZM0 6.58537C0 6.39131 0.0770903 6.20519 0.214312 6.06797C0.351534 5.93075 0.537647 5.85366 0.731707 5.85366H4.63415C4.82821 5.85366 5.01432 5.93075 5.15154 6.06797C5.28876 6.20519 5.36585 6.39131 5.36585 6.58537V19.2683C5.36585 19.4624 5.28876 19.6485 5.15154 19.7857C5.01432 19.9229 4.82821 20 4.63415 20H0.731707C0.537647 20 0.351534 19.9229 0.214312 19.7857C0.0770903 19.6485 0 19.4624 0 19.2683V6.58537ZM1.46341 7.31707V18.5366H3.90244V7.31707H1.46341ZM6.82927 6.58537C6.82927 6.39131 6.90636 6.20519 7.04358 6.06797C7.1808 5.93075 7.36692 5.85366 7.56098 5.85366H11.4634C11.6575 5.85366 11.8436 5.93075 11.9808 6.06797C12.118 6.20519 12.1951 6.39131 12.1951 6.58537V7.00878L12.6195 6.82634C13.3512 6.51364 14.1275 6.31775 14.92 6.24585C17.6273 6 20 8.12683 20 10.8585V19.2683C20 19.4624 19.9229 19.6485 19.7857 19.7857C19.6485 19.9229 19.4624 20 19.2683 20H15.3659C15.1718 20 14.9857 19.9229 14.8485 19.7857C14.7112 19.6485 14.6341 19.4624 14.6341 19.2683V12.439C14.6341 12.1156 14.5057 11.8054 14.277 11.5767C14.0483 11.348 13.7381 11.2195 13.4146 11.2195C13.0912 11.2195 12.781 11.348 12.5523 11.5767C12.3236 11.8054 12.1951 12.1156 12.1951 12.439V19.2683C12.1951 19.4624 12.118 19.6485 11.9808 19.7857C11.8436 19.9229 11.6575 20 11.4634 20H7.56098C7.36692 20 7.1808 19.9229 7.04358 19.7857C6.90636 19.6485 6.82927 19.4624 6.82927 19.2683V6.58537ZM8.29268 7.31707V18.5366H10.7317V12.439C10.7317 11.7275 11.0144 11.0451 11.5175 10.5419C12.0207 10.0388 12.7031 9.7561 13.4146 9.7561C14.1262 9.7561 14.8086 10.0388 15.3118 10.5419C15.8149 11.0451 16.0976 11.7275 16.0976 12.439V18.5366H18.5366V10.8585C18.5366 9.00098 16.9161 7.53366 15.0537 7.70341C14.4138 7.76163 13.7871 7.91964 13.1961 8.17171L11.7522 8.79122C11.6408 8.83906 11.5193 8.85848 11.3986 8.84774C11.2779 8.837 11.1617 8.79644 11.0605 8.7297C10.9593 8.66295 10.8763 8.57212 10.8189 8.46536C10.7615 8.3586 10.7316 8.23926 10.7317 8.11805V7.31707H8.29268Z" fill="#FCF6DF"/>
</svg>
