<svg width="171" height="166" viewBox="0 0 171 166" fill="none" xmlns="http://www.w3.org/2000/svg">
<g clip-path="url(#clip0_7183_6205)">
<mask id="mask0_7183_6205" style="mask-type:luminance" maskUnits="userSpaceOnUse" x="0" y="0" width="171" height="165">
<path d="M52.8613 0.00512695L170.162 57.6484L117.46 164.895L0.158942 107.252L52.8613 0.00512695Z" fill="white"/>
</mask>
<g mask="url(#mask0_7183_6205)">
<mask id="mask1_7183_6205" style="mask-type:luminance" maskUnits="userSpaceOnUse" x="13" y="26" width="131" height="113">
<path d="M143.781 111.257L116.509 31.2821L103.333 58.0938L39.6857 26.8166L13.3345 80.4399L76.9822 111.717L63.8066 138.529L143.781 111.257Z" fill="white"/>
</mask>
<g mask="url(#mask1_7183_6205)">
<path d="M52.8613 0.00488281L170.162 57.6481L117.46 164.895L0.158942 107.252L52.8613 0.00488281Z" fill="#00A142"/>
</g>
</g>
<mask id="mask2_7183_6205" style="mask-type:luminance" maskUnits="userSpaceOnUse" x="0" y="0" width="171" height="165">
<path d="M52.8594 0.00720215L170.157 57.6486L117.456 164.892L0.15884 107.25L52.8594 0.00720215Z" fill="white"/>
</mask>
<g mask="url(#mask2_7183_6205)">
<mask id="mask3_7183_6205" style="mask-type:luminance" maskUnits="userSpaceOnUse" x="13" y="26" width="131" height="113">
<path d="M143.774 111.254L116.505 31.2833L103.33 58.0931L39.6847 26.8168L13.3344 80.4382L76.9802 111.715L63.8046 138.526L143.774 111.254Z" fill="white"/>
</mask>
<g mask="url(#mask3_7183_6205)">
<path d="M143.774 111.254L116.505 31.2833L103.33 58.0931L39.6847 26.8168L13.3344 80.4382L76.9802 111.715L63.8046 138.526L143.774 111.254Z" stroke="#FFE7A5" stroke-width="8.82688"/>
</g>
</g>
<path d="M46.7343 46.0935L45.2005 45.3398L43.4454 47.2776L41.7537 46.4463L47.8962 39.6451L50.1594 40.7572L48.5281 49.7753L46.2724 48.6669L46.7343 46.0935ZM46.9689 44.7993L47.2864 43.0325L46.0817 44.3633L46.9689 44.7993Z" fill="#FCF6DF"/>
<path d="M54.0565 52.4922L49.2596 50.1349L53.1465 42.2252L55.4021 43.3337L52.3465 49.5516L54.6096 50.6637L54.0565 52.4922Z" fill="#FCF6DF"/>
<path d="M59.5897 55.2109L54.7928 52.8536L58.6797 44.944L60.9353 46.0524L57.8797 52.2704L60.1428 53.3825L59.5897 55.2109Z" fill="#FCF6DF"/>
<path d="M69.7513 60.2042L67.4881 59.0921L68.0342 55.1507L67.4628 54.8698L65.7964 58.2608L63.5408 57.1523L67.4277 49.2427L70.2548 50.6319C70.6758 50.8388 71.0586 51.0713 71.406 51.3283C71.7422 51.5939 72.0065 51.8824 72.2025 52.1958C72.3939 52.5139 72.5031 52.8569 72.5281 53.2239C72.5531 53.5909 72.4603 53.9887 72.2516 54.4135C72.0225 54.8796 71.7372 55.2132 71.3967 55.4122C71.0572 55.6187 70.6767 55.7281 70.2562 55.7385L69.7513 60.2042ZM68.017 53.742C68.252 53.8575 68.4782 53.929 68.6966 53.9547C68.9085 53.9794 69.1041 53.9659 69.2846 53.9169C69.4482 53.8736 69.5947 53.7986 69.7214 53.6928C69.8453 53.5927 69.9428 53.4703 70.0148 53.3236C70.0832 53.1845 70.1214 53.0307 70.1278 52.8658C70.136 52.6971 70.1086 52.5296 70.0457 52.368C69.9687 52.2065 69.8571 52.049 69.709 51.8945C69.5543 51.7392 69.3604 51.6019 69.1254 51.4864L68.017 53.742Z" fill="#FCF6DF"/>
<path d="M78.0032 54.1236C78.6047 54.4192 79.0747 54.7972 79.416 55.2566C79.7405 55.7218 79.9566 56.227 80.0634 56.7695C80.1692 57.3139 80.174 57.874 80.0787 58.4479C79.9796 59.0293 79.8027 59.5794 79.5468 60.1001C79.2826 60.6377 78.9525 61.1195 78.5564 61.5456C78.1594 61.9736 77.7131 62.312 77.2184 62.5589C76.7227 62.8077 76.1926 62.9416 75.6288 62.9633C75.0539 62.9794 74.4666 62.8401 73.8651 62.5446C73.2579 62.2462 72.7907 61.8673 72.4635 61.4078C72.1306 60.9455 71.9108 60.4431 71.8049 59.8987C71.6925 59.3534 71.6858 58.7924 71.7821 58.2166C71.8774 57.6427 72.0572 57.087 72.3213 56.5494C72.5772 56.0287 72.9046 55.5525 73.3043 55.1189C73.7004 54.6928 74.1486 54.3553 74.6499 54.1093C75.1446 53.8623 75.6785 53.7257 76.2506 53.7011C76.8116 53.6851 77.3961 53.8253 78.0032 54.1236ZM74.4562 61.3416C74.6066 61.4155 74.7809 61.4311 74.9848 61.3866C75.1802 61.3403 75.3967 61.2227 75.6343 61.0337C75.869 60.8457 76.1191 60.5789 76.3818 60.2343C76.624 59.8936 76.8766 59.4553 77.1408 58.9177C77.3967 58.3971 77.5883 57.9312 77.7157 57.52C77.8298 57.0978 77.8882 56.7367 77.8918 56.4398C77.8953 56.1382 77.8562 55.8949 77.7744 55.71C77.6841 55.5233 77.5661 55.393 77.4157 55.3191C77.2654 55.2452 77.0882 55.2305 76.8872 55.274C76.6833 55.3185 76.4649 55.4352 76.2302 55.6233C75.9954 55.8066 75.7509 56.0762 75.4976 56.4301C75.2387 56.7766 74.9832 57.211 74.7273 57.7317C74.4631 58.2693 74.2744 58.7389 74.1638 59.1443C74.0402 59.5573 73.9762 59.9156 73.9726 60.2172C73.9663 60.5198 74.0073 60.7639 74.0976 60.9507C74.1851 61.1383 74.3058 61.2677 74.4562 61.3416Z" fill="#FCF6DF"/>
<path d="M82.7792 63.8061L81.2454 63.0524L79.4903 64.9903L77.7986 64.1589L83.9412 57.3577L86.2043 58.4698L84.573 67.4879L82.3174 66.3795L82.7792 63.8061ZM83.0138 62.5119L83.3313 60.7451L82.1266 62.076L83.0138 62.5119Z" fill="#FCF6DF"/>
<path d="M92.2966 61.4643C92.9282 61.7747 93.4171 62.1712 93.766 62.6531C94.0953 63.1323 94.3189 63.6412 94.4359 64.1771C94.5389 64.7131 94.5463 65.2488 94.4582 65.7842C94.3739 66.3215 94.2274 66.8049 94.0186 67.2297C93.7747 67.7259 93.4556 68.1665 93.0611 68.5514C92.6498 68.942 92.1985 69.2429 91.7035 69.4524C91.1974 69.6704 90.6614 69.7781 90.0985 69.7745C89.5337 69.784 88.9699 69.6492 88.4097 69.374L85.3045 67.848L89.1914 59.9384L92.2966 61.4643ZM88.6894 68.1019C88.9695 68.2396 89.2583 68.2788 89.5557 68.2196C89.8363 68.1662 90.1146 68.0415 90.3924 67.8467C90.6552 67.6538 90.9073 67.4066 91.1479 67.1071C91.3846 66.8011 91.5903 66.4728 91.763 66.1213C91.9376 65.766 92.0718 65.4026 92.1676 65.032C92.2568 64.6604 92.3012 64.3042 92.2989 63.967C92.2825 63.6299 92.2139 63.3279 92.0903 63.0618C91.9499 62.8014 91.7406 62.6005 91.4605 62.4629L90.8891 62.1821L88.118 67.8211L88.6894 68.1019Z" fill="#FCF6DF"/>
<path d="M97.4796 71.7307C97.5655 71.5559 97.5473 71.3509 97.4267 71.1166C97.3023 70.8758 97.1309 70.6073 96.9154 70.3146C96.6979 70.0211 96.4634 69.7005 96.2119 69.3529C95.9547 69.0025 95.7367 68.634 95.5598 68.2484C95.3793 67.8796 95.2708 67.4879 95.2332 67.0704C95.1874 66.6699 95.2698 66.2553 95.4795 65.8286C95.5829 65.6181 95.7538 65.408 95.9959 65.1956C96.2268 64.9917 96.5132 64.8314 96.858 64.7139C97.2 64.5972 97.5931 64.5477 98.0334 64.5634C98.4569 64.5848 98.9187 64.7184 99.4149 64.9622C100.077 65.2874 100.616 65.7089 101.035 66.2249C101.442 66.7494 101.755 67.447 101.975 68.3203L100.58 68.802C100.553 68.6017 100.51 68.3753 100.448 68.121C100.381 67.8779 100.291 67.6332 100.181 67.3923C100.06 67.1533 99.9174 66.9314 99.753 66.7246C99.5802 66.5159 99.3758 66.3525 99.1352 66.2343C98.8532 66.0957 98.6141 66.0505 98.4186 66.0968C98.2148 66.1413 98.0805 66.234 98.0122 66.3731C97.9253 66.5498 97.9446 66.7576 98.0689 66.9984C98.1895 67.2327 98.3609 67.4966 98.584 67.7929C98.8024 68.0939 99.0425 68.4173 99.3025 68.7621C99.5484 69.1069 99.7626 69.4689 99.9469 69.8442C100.124 70.2298 100.235 70.6252 100.281 71.0258C100.321 71.4376 100.236 71.8578 100.027 72.2826C99.9239 72.4932 99.753 72.6985 99.5183 72.9006C99.2819 73.1158 98.9908 73.2808 98.6488 73.3974C98.304 73.515 97.9175 73.5607 97.4883 73.5365C97.0517 73.5227 96.5881 73.3929 96.0919 73.149C95.7611 72.9864 95.4601 72.8059 95.1927 72.6045C94.9215 72.3965 94.6801 72.1565 94.4722 71.8863C94.2624 71.6152 94.0842 71.3083 93.9375 70.9609C93.7713 70.6248 93.6365 70.2342 93.5323 69.791L94.919 69.3056C94.9503 69.5077 94.9987 69.7321 95.0659 69.9752C95.1276 70.2296 95.2146 70.4753 95.3295 70.7115C95.4398 70.9524 95.5847 71.1799 95.7613 71.3904C95.9257 71.5972 96.1273 71.7569 96.3641 71.8733C96.6442 72.0109 96.8843 72.0589 97.0882 72.0144C97.2799 71.9663 97.4103 71.8717 97.4796 71.7307Z" fill="#FCF6DF"/>
<path d="M40.0428 62.8631L35.2459 60.5059L39.1328 52.5962L41.3884 53.7046L38.3328 59.9226L40.596 61.0347L40.0428 62.8631Z" fill="#FCF6DF"/>
<path d="M46.6931 64.0305L45.576 65.5818L40.7791 63.2245L44.666 55.3148L49.1848 57.5354L48.6316 59.3638L46.0903 58.115L45.3957 59.5285L47.6588 60.6406L46.8238 62.3398L44.5607 61.2277L43.866 62.6412L46.6931 64.0305Z" fill="#FCF6DF"/>
<path d="M51.5722 65.729L50.0384 64.9753L48.2833 66.9131L46.5916 66.0818L52.7341 59.2806L54.9973 60.3927L53.3659 69.4108L51.1103 68.3024L51.5722 65.729ZM51.8068 64.4348L52.1243 62.6679L50.9196 63.9988L51.8068 64.4348Z" fill="#FCF6DF"/>
<path d="M61.0915 63.3862C61.7231 63.6965 62.212 64.0931 62.5609 64.575C62.8902 65.0541 63.1138 65.5631 63.2308 66.099C63.3338 66.635 63.3413 67.1707 63.2532 67.7061C63.1688 68.2434 63.0223 68.7268 62.8135 69.1516C62.5697 69.6478 62.2505 70.0884 61.856 70.4732C61.4447 70.8639 60.9934 71.1648 60.4985 71.3743C59.9923 71.5923 59.4563 71.6999 58.8934 71.6963C58.3286 71.7058 57.7648 71.5711 57.2046 71.2958L54.0994 69.7699L57.9863 61.8602L61.0915 63.3862ZM57.4844 70.0238C57.7644 70.1614 58.0532 70.2007 58.3506 70.1415C58.6313 70.088 58.9095 69.9634 59.1873 69.7685C59.4501 69.5757 59.7022 69.3285 59.9428 69.029C60.1795 68.723 60.3852 68.3946 60.5579 68.0431C60.7325 67.6879 60.8667 67.3245 60.9625 66.9538C61.0518 66.5823 61.0961 66.2261 61.0938 65.8889C61.0774 65.5518 61.0089 65.2497 60.8853 64.9837C60.7448 64.7233 60.5355 64.5224 60.2554 64.3848L59.684 64.104L56.9129 69.743L57.4844 70.0238Z" fill="#FCF6DF"/>
<path d="M71.9014 70.7981L68.8458 77.0161L66.5752 75.9003L69.6308 69.6823L67.6609 68.7143L68.7704 67.1593L74.4244 69.9378L73.8713 71.7662L71.9014 70.7981Z" fill="#FCF6DF"/>
<path d="M78.9602 71.8508C79.5617 72.1464 80.0317 72.5244 80.373 72.9838C80.6975 73.4489 80.9136 73.9542 81.0204 74.4967C81.1262 75.0411 81.131 75.6012 81.0357 76.1751C80.9367 76.7565 80.7597 77.3066 80.5038 77.8272C80.2397 78.3648 79.9095 78.8467 79.5135 79.2728C79.1165 79.7008 78.6701 80.0391 78.1754 80.2861C77.6798 80.5349 77.1496 80.6688 76.5859 80.6904C76.0109 80.7066 75.4236 80.5673 74.8221 80.2717C74.215 79.9734 73.7478 79.5945 73.4205 79.1349C73.0876 78.6727 72.8678 78.1702 72.7619 77.6258C72.6495 77.0806 72.6429 76.5195 72.7391 75.9438C72.8344 75.3699 73.0142 74.8141 73.2784 74.2766C73.5342 73.7559 73.8616 73.2797 74.2614 72.8461C74.6574 72.42 75.1056 72.0825 75.6069 71.8364C76.1016 71.5895 76.6355 71.4528 77.2077 71.4283C77.7686 71.4122 78.3531 71.5524 78.9602 71.8508ZM75.4133 79.0687C75.5636 79.1426 75.738 79.1583 75.9418 79.1138C76.1373 79.0675 76.3538 78.9499 76.5913 78.7609C76.8261 78.5729 77.0762 78.3061 77.3389 77.9615C77.581 77.6207 77.8337 77.1825 78.0979 76.6449C78.3537 76.1242 78.5453 75.6583 78.6727 75.2472C78.7869 74.8249 78.8453 74.4639 78.8488 74.167C78.8524 73.8653 78.8132 73.6221 78.7314 73.4372C78.6411 73.2505 78.5231 73.1202 78.3728 73.0463C78.2224 72.9724 78.0453 72.9577 77.8442 73.0012C77.6403 73.0457 77.4219 73.1624 77.1872 73.3504C76.9524 73.5338 76.7079 73.8033 76.4547 74.1573C76.1957 74.5037 75.9402 74.9382 75.6843 75.4589C75.4202 75.9965 75.2314 76.4661 75.1209 76.8715C74.9973 77.2845 74.9332 77.6427 74.9297 77.9444C74.9233 78.2469 74.9644 78.4911 75.0546 78.6778C75.1421 78.8655 75.2629 78.9949 75.4133 79.0687Z" fill="#FCF6DF"/>
<path d="M35.406 68.0231C36.0376 68.3335 36.5264 68.7301 36.8754 69.2119C37.2046 69.6911 37.4283 70.2 37.5453 70.7359C37.6483 71.2719 37.6557 71.8076 37.5676 72.3431C37.4833 72.8804 37.3367 73.3637 37.128 73.7885C36.8841 74.2848 36.5649 74.7253 36.1705 75.1102C35.7592 75.5008 35.3079 75.8018 34.8129 76.0113C34.3067 76.2292 33.7708 76.3369 33.2078 76.3333C32.6431 76.3428 32.0792 76.2081 31.5191 75.9328L28.4139 74.4069L32.3008 66.4972L35.406 68.0231ZM31.7988 74.6608C32.0789 74.7984 32.3676 74.8376 32.6651 74.7784C32.9457 74.725 33.224 74.6004 33.5018 74.4055C33.7646 74.2126 34.0167 73.9655 34.2572 73.666C34.494 73.3599 34.6996 73.0316 34.8724 72.6801C35.0469 72.3249 35.1812 71.9614 35.277 71.5908C35.3662 71.2193 35.4106 70.863 35.4083 70.5259C35.3919 70.1888 35.3233 69.8867 35.1997 69.6206C35.0593 69.3603 34.85 69.1594 34.5699 69.0218L33.9985 68.741L31.2274 74.38L31.7988 74.6608Z" fill="#FCF6DF"/>
<path d="M41.9431 78.9546L40.826 80.506L36.0291 78.1487L39.916 70.239L44.4348 72.4596L43.8816 74.288L41.3403 73.0392L40.6457 74.4527L42.9088 75.5648L42.0738 77.264L39.8107 76.1519L39.116 77.5654L41.9431 78.9546Z" fill="#FCF6DF"/>
<path d="M52.29 76.318L46.1474 83.1192L43.8843 82.0071L45.5156 72.989L47.7712 74.0974L46.7573 79.7319L50.5983 75.4867L52.29 76.318Z" fill="#FCF6DF"/>
<path d="M53.7511 80.8918L56.0143 82.0039L55.4564 83.1392L53.1932 82.0271L51.3902 85.6962L49.1346 84.5878L53.0215 76.6781L57.5402 78.8987L56.9871 80.7271L54.4458 79.4782L53.7511 80.8918Z" fill="#FCF6DF"/>
<path d="M60.6892 88.1653L59.5721 89.7166L54.7752 87.3594L58.6621 79.4497L63.1808 81.6703L62.6277 83.4987L60.0864 82.2498L59.3918 83.6634L61.6549 84.7755L60.8199 86.4747L58.5568 85.3626L57.8621 86.7761L60.6892 88.1653Z" fill="#FCF6DF"/>
<path d="M65.4718 90.5161C65.5577 90.3413 65.5394 90.1363 65.4189 89.902C65.2945 89.6612 65.1231 89.3927 64.9075 89.1C64.6901 88.8065 64.4556 88.4859 64.204 88.1383C63.9469 87.7879 63.7289 87.4194 63.552 87.0338C63.3715 86.665 63.263 86.2733 63.2254 85.8558C63.1796 85.4553 63.262 85.0407 63.4716 84.614C63.5751 84.4035 63.746 84.1934 63.9881 83.981C64.2189 83.7771 64.5054 83.6168 64.8502 83.4993C65.1922 83.3826 65.5853 83.3331 66.0256 83.3488C66.4491 83.3702 66.9109 83.5038 67.4071 83.7476C68.0688 84.0728 68.6084 84.4943 69.0269 85.0103C69.4342 85.5348 69.7471 86.2324 69.9667 87.1057L68.5725 87.5874C68.5449 87.3871 68.5022 87.1607 68.4405 86.9064C68.3732 86.6633 68.2835 86.4186 68.1732 86.1777C68.0526 85.9387 67.9096 85.7168 67.7452 85.51C67.5724 85.3013 67.368 85.1379 67.1274 85.0197C66.8454 84.8811 66.6063 84.8359 66.4108 84.8822C66.207 84.9267 66.0727 85.0194 66.0044 85.1585C65.9175 85.3352 65.9368 85.543 66.0611 85.7838C66.1817 86.0181 66.353 86.282 66.5761 86.5783C66.7946 86.8793 67.0347 87.2027 67.2947 87.5475C67.5406 87.8923 67.7548 88.2543 67.9391 88.6296C68.1159 89.0152 68.2273 89.4106 68.2732 89.8112C68.3135 90.223 68.2283 90.6432 68.0196 91.068C67.9161 91.2786 67.7452 91.4839 67.5105 91.686C67.2741 91.9012 66.983 92.0662 66.641 92.1828C66.2962 92.3004 65.9097 92.3461 65.4805 92.3219C65.0439 92.3081 64.5803 92.1783 64.0841 91.9344C63.7533 91.7718 63.4523 91.5913 63.1849 91.3899C62.9137 91.1819 62.6723 90.9419 62.4644 90.6717C62.2545 90.4006 62.0763 90.0937 61.9297 89.7463C61.7635 89.4102 61.6287 89.0196 61.5245 88.5764L62.9111 88.091C62.9425 88.2931 62.9909 88.5175 63.0581 88.7606C63.1198 89.015 63.2068 89.2607 63.3217 89.4969C63.432 89.7378 63.5769 89.9653 63.7535 90.1758C63.9179 90.3826 64.1195 90.5423 64.3563 90.6587C64.6364 90.7963 64.8765 90.8443 65.0804 90.7998C65.2721 90.7517 65.4025 90.6571 65.4718 90.5161Z" fill="#FCF6DF"/>
<path d="M74.7217 89.4423L71.6661 95.6603L69.3955 94.5445L72.4511 88.3265L70.4812 87.3585L71.5907 85.8035L77.2448 88.5819L76.6916 90.4103L74.7217 89.4423Z" fill="#FCF6DF"/>
<path d="M82.3827 100.927L77.5857 98.5695L81.4727 90.6598L83.7283 91.7682L80.6727 97.9862L82.9358 99.0983L82.3827 100.927Z" fill="#FCF6DF"/>
<path d="M87.7753 100.777L86.2415 100.023L84.4864 101.961L82.7947 101.13L88.9372 94.3283L91.2004 95.4404L89.5691 104.459L87.3135 103.35L87.7753 100.777ZM88.0099 99.4825L88.3274 97.7157L87.1227 99.0465L88.0099 99.4825Z" fill="#FCF6DF"/>
<path d="M99.0477 103.506L97.6585 106.333C97.3144 106.563 96.9268 106.725 96.4966 106.817C96.3105 106.863 96.1084 106.895 95.8903 106.911C95.66 106.924 95.4164 106.916 95.1633 106.89C94.9008 106.854 94.625 106.794 94.3378 106.708C94.046 106.628 93.7445 106.51 93.4287 106.355C92.8159 106.054 92.3394 105.684 91.9973 105.241C91.643 104.794 91.4008 104.318 91.2718 103.811C91.1428 103.3 91.1186 102.774 91.1973 102.234C91.2619 101.694 91.4167 101.18 91.6587 100.687C91.9044 100.187 92.2291 99.7356 92.631 99.3357C93.0329 98.9357 93.4934 98.6253 94.0145 98.4007C94.5263 98.1808 95.0894 98.0748 95.7021 98.0818C96.311 98.0964 96.9472 98.2643 97.6088 98.5895C98.0299 98.7964 98.3623 99.0507 98.6069 99.3507C98.8526 99.6581 99.0345 99.9528 99.1525 100.235C99.2953 100.562 99.395 100.9 99.448 101.248L98.1921 101.676C98.2298 101.434 98.2244 101.198 98.176 100.968C98.1391 100.778 98.059 100.58 97.9359 100.374C97.8118 100.171 97.6092 99.9991 97.3291 99.8615C97.0321 99.7156 96.734 99.6764 96.4366 99.7403C96.1336 99.8107 95.8442 99.9439 95.5664 100.143C95.2869 100.356 95.0236 100.621 94.7739 100.939C94.5297 101.256 94.3194 101.598 94.1402 101.963C93.9749 102.299 93.8443 102.646 93.7503 103.003C93.6441 103.357 93.593 103.689 93.5961 104.001C93.5926 104.312 93.6469 104.586 93.7591 104.828C93.8657 105.067 94.0392 105.246 94.2798 105.364C94.4189 105.432 94.5448 105.48 94.6592 105.504C94.7793 105.525 94.8814 105.536 94.9704 105.535C95.0687 105.534 95.1651 105.524 95.2586 105.499L96.2304 103.522L94.8169 102.827L95.6493 101.836L99.0477 103.506Z" fill="#FCF6DF"/>
<path d="M105.079 101.942C105.681 102.238 106.151 102.616 106.492 103.075C106.817 103.54 107.033 104.046 107.14 104.588C107.245 105.133 107.25 105.693 107.155 106.267C107.056 106.848 106.879 107.398 106.623 107.919C106.359 108.456 106.029 108.938 105.633 109.364C105.236 109.792 104.789 110.131 104.295 110.378C103.799 110.626 103.269 110.76 102.705 110.782C102.13 110.798 101.543 110.659 100.941 110.363C100.334 110.065 99.8669 109.686 99.5396 109.226C99.2068 108.764 98.9869 108.262 98.8811 107.717C98.7687 107.172 98.762 106.611 98.8582 106.035C98.9536 105.461 99.1333 104.906 99.3975 104.368C99.6534 103.847 99.9807 103.371 100.38 102.938C100.777 102.512 101.225 102.174 101.726 101.928C102.221 101.681 102.755 101.544 103.327 101.52C103.888 101.504 104.472 101.644 105.079 101.942ZM101.532 109.16C101.683 109.234 101.857 109.25 102.061 109.205C102.256 109.159 102.473 109.041 102.71 108.852C102.945 108.664 103.195 108.398 103.458 108.053C103.7 107.712 103.953 107.274 104.217 106.736C104.473 106.216 104.664 105.75 104.792 105.339C104.906 104.916 104.964 104.555 104.968 104.259C104.972 103.957 104.932 103.714 104.851 103.529C104.76 103.342 104.642 103.212 104.492 103.138C104.342 103.064 104.164 103.049 103.963 103.093C103.759 103.137 103.541 103.254 103.306 103.442C103.072 103.625 102.827 103.895 102.574 104.249C102.315 104.595 102.059 105.03 101.803 105.55C101.539 106.088 101.351 106.558 101.24 106.963C101.116 107.376 101.052 107.734 101.049 108.036C101.042 108.338 101.083 108.583 101.174 108.769C101.261 108.957 101.382 109.086 101.532 109.16Z" fill="#FCF6DF"/>
<path d="M110.079 112.438C110.165 112.263 110.147 112.058 110.026 111.824C109.902 111.583 109.731 111.314 109.515 111.022C109.298 110.728 109.063 110.408 108.811 110.06C108.554 109.709 108.336 109.341 108.159 108.955C107.979 108.587 107.87 108.195 107.833 107.777C107.787 107.377 107.869 106.962 108.079 106.536C108.183 106.325 108.353 106.115 108.595 105.903C108.826 105.699 109.113 105.538 109.458 105.421C109.8 105.304 110.193 105.255 110.633 105.27C111.057 105.292 111.518 105.425 112.015 105.669C112.676 105.994 113.216 106.416 113.634 106.932C114.042 107.456 114.355 108.154 114.574 109.027L113.18 109.509C113.152 109.309 113.11 109.082 113.048 108.828C112.981 108.585 112.891 108.34 112.781 108.099C112.66 107.86 112.517 107.638 112.353 107.432C112.18 107.223 111.975 107.06 111.735 106.941C111.453 106.803 111.214 106.758 111.018 106.804C110.814 106.848 110.68 106.941 110.612 107.08C110.525 107.257 110.544 107.465 110.669 107.705C110.789 107.94 110.96 108.204 111.184 108.5C111.402 108.801 111.642 109.124 111.902 109.469C112.148 109.814 112.362 110.176 112.546 110.551C112.723 110.937 112.835 111.332 112.881 111.733C112.921 112.145 112.836 112.565 112.627 112.99C112.524 113.2 112.353 113.406 112.118 113.608C111.882 113.823 111.59 113.988 111.248 114.104C110.904 114.222 110.517 114.268 110.088 114.244C109.651 114.23 109.188 114.1 108.692 113.856C108.361 113.693 108.06 113.513 107.792 113.311C107.521 113.104 107.28 112.864 107.072 112.593C106.862 112.322 106.684 112.015 106.537 111.668C106.371 111.332 106.236 110.941 106.132 110.498L107.519 110.013C107.55 110.215 107.598 110.439 107.666 110.682C107.727 110.937 107.814 111.182 107.929 111.419C108.039 111.659 108.184 111.887 108.361 112.097C108.525 112.304 108.727 112.464 108.964 112.58C109.244 112.718 109.484 112.766 109.688 112.721C109.879 112.673 110.01 112.579 110.079 112.438Z" fill="#FCF6DF"/>
</g>
<defs>
<clipPath id="clip0_7183_6205">
<rect width="131.091" height="119.832" fill="white" transform="translate(52.8496) rotate(26.1701)"/>
</clipPath>
</defs>
</svg>
