<svg width="170" height="170" viewBox="0 0 170 170" fill="none" xmlns="http://www.w3.org/2000/svg">
<mask id="mask0_7183_6632" style="mask-type:luminance" maskUnits="userSpaceOnUse" x="0" y="0" width="170" height="170">
<path d="M0.392578 0.394531H169.596V169.597H0.392578V0.394531Z" fill="white"/>
</mask>
<g mask="url(#mask0_7183_6632)">
<mask id="mask1_7183_6632" style="mask-type:luminance" maskUnits="userSpaceOnUse" x="0" y="0" width="169" height="170">
<path d="M88.9653 3.06937L90.074 5.19454C91.0352 7.03531 92.8338 8.28619 94.8932 8.55216C96.9499 8.81551 99.0066 8.05445 100.4 6.51916L101.922 4.83903C103.094 3.54339 104.892 3.0167 106.578 3.47228C108.263 3.92787 109.551 5.28935 109.912 6.99844L110.362 9.13415C110.789 11.1619 112.182 12.8526 114.091 13.661C116 14.4695 118.186 14.293 119.94 13.187L121.928 11.9335C123.432 10.9881 125.336 10.9512 126.873 11.8413C128.411 12.7314 129.328 14.401 129.257 16.1759L129.159 18.496C129.075 20.5711 130.01 22.5594 131.661 23.8181C133.315 25.0796 135.477 25.4535 137.457 24.8215L139.469 24.1789C141.147 23.6417 142.98 24.0868 144.223 25.3297C145.465 26.5727 145.913 28.4056 145.379 30.0804L144.731 32.1213C144.099 34.1017 144.475 36.2663 145.737 37.9175C146.998 39.5713 148.986 40.5035 151.064 40.4193L153.35 40.3245C155.128 40.2507 156.8 41.1672 157.692 42.7077C158.583 44.2456 158.551 46.1496 157.603 47.6559L156.347 49.66C155.243 51.4165 155.067 53.6022 155.878 55.5141C156.687 57.4259 158.38 58.8217 160.41 59.2509L162.517 59.6959C164.226 60.0594 165.59 61.3471 166.048 63.0351C166.504 64.7232 165.98 66.5244 164.684 67.7016L163.009 69.2237C161.471 70.622 160.713 72.6814 160.976 74.7407C161.242 76.8027 162.496 78.604 164.337 79.5678L166.443 80.6738C168.016 81.4955 168.998 83.1229 168.998 84.8952C168.998 86.6701 168.016 88.2976 166.443 89.1192L164.337 90.2226C162.496 91.1891 161.242 92.9904 160.976 95.0497C160.713 97.1117 161.471 99.171 163.009 100.569L164.684 102.091C165.98 103.266 166.504 105.07 166.048 106.758C165.59 108.443 164.226 109.734 162.517 110.097L160.41 110.542C158.38 110.971 156.687 112.367 155.878 114.279C155.067 116.188 155.243 118.374 156.347 120.133L157.603 122.135C158.551 123.641 158.583 125.547 157.692 127.085C156.8 128.623 155.128 129.542 153.35 129.469L151.064 129.374C148.986 129.29 146.998 130.222 145.737 131.876C144.475 133.527 144.099 135.691 144.731 137.672L145.379 139.71C145.913 141.387 145.465 143.22 144.223 144.461C142.98 145.704 141.147 146.149 139.469 145.614L137.457 144.972C135.477 144.34 133.315 144.714 131.661 145.972C130.01 147.234 129.075 149.219 129.159 151.297L129.257 153.617C129.328 155.392 128.411 157.062 126.873 157.952C125.336 158.842 123.432 158.805 121.928 157.86L119.94 156.606C118.186 155.5 116 155.324 114.091 156.132C112.182 156.941 110.789 158.631 110.362 160.659L109.912 162.795C109.551 164.501 108.263 165.865 106.578 166.321C104.892 166.776 103.094 166.247 101.922 164.954L100.4 163.274C99.0066 161.736 96.9499 160.978 94.8932 161.241C92.8338 161.504 91.0352 162.758 90.074 164.596L88.9653 166.721C88.1463 168.291 86.5215 169.275 84.7518 169.275C82.9822 169.275 81.3573 168.291 80.5383 166.721L79.4297 164.596C78.4685 162.758 76.6698 161.504 74.6131 161.241C72.5538 160.978 70.4971 161.736 69.1066 163.274L67.5845 164.954C66.41 166.247 64.6114 166.776 62.926 166.321C61.2432 165.865 59.9555 164.501 59.5947 162.795L59.1444 160.659C58.7151 158.631 57.322 156.941 55.4128 156.132C53.5036 155.324 51.3205 155.5 49.564 156.606L47.5757 157.86C46.072 158.805 44.1681 158.842 42.6302 157.952C41.0922 157.062 40.1758 155.392 40.2495 153.617L40.3443 151.297C40.4286 149.219 39.4964 147.234 37.8426 145.972C36.1914 144.714 34.0268 144.34 32.0464 144.972L30.0345 145.614C28.3596 146.149 26.5268 145.704 25.2811 144.461C24.0382 143.22 23.5905 141.387 24.1251 139.71L24.7729 137.672C25.4049 135.691 25.0283 133.527 23.7669 131.876C22.5055 130.222 20.5173 129.29 18.4421 129.374L16.1537 129.469C14.3761 129.542 12.7065 128.623 11.8138 127.085C10.9211 125.547 10.9553 123.641 11.9007 122.135L13.1568 120.133C14.2629 118.374 14.4367 116.188 13.6282 114.279C12.8171 112.367 11.1265 110.971 9.09346 110.542L6.98936 110.097C5.27763 109.734 3.91351 108.443 3.4553 106.758C2.99971 105.07 3.5264 103.266 4.81941 102.091L6.49427 100.569C8.03219 99.171 8.79062 97.1117 8.52728 95.0497C8.26394 92.9904 7.00779 91.1891 5.16966 90.2226L3.06028 89.1192C1.49076 88.2976 0.505859 86.6701 0.505859 84.8952C0.505859 83.1229 1.49076 81.4955 3.06028 80.6738L5.16966 79.5678C7.00779 78.604 8.26394 76.8027 8.52728 74.7407C8.79062 72.6814 8.03219 70.622 6.49427 69.2237L4.81941 67.7016C3.5264 66.5244 2.99971 64.7232 3.4553 63.0351C3.91351 61.3471 5.27763 60.0594 6.98936 59.6959L9.09346 59.2509C11.1265 58.8217 12.8171 57.4259 13.6282 55.5141C14.4367 53.6022 14.2629 51.4165 13.1568 49.66L11.9007 47.6559C10.9553 46.1496 10.9211 44.2456 11.8138 42.7077C12.7065 41.1672 14.3761 40.2507 16.1537 40.3245L18.4421 40.4193C20.5173 40.5035 22.5055 39.5713 23.7669 37.9175C25.0283 36.2663 25.4049 34.1017 24.7729 32.1213L24.1251 30.0804C23.5905 28.4056 24.0382 26.5727 25.2811 25.3297C26.5268 24.0868 28.3596 23.6417 30.0345 24.1789L32.0464 24.8215C34.0268 25.4535 36.1914 25.0796 37.8426 23.8181C39.4964 22.5594 40.4286 20.5711 40.3443 18.496L40.2495 16.1759C40.1758 14.401 41.0922 12.7314 42.6302 11.8413C44.1681 10.9512 46.072 10.9881 47.5757 11.9335L49.564 13.187C51.3205 14.293 53.5036 14.4695 55.4128 13.661C57.322 12.8526 58.7151 11.1619 59.1444 9.13415L59.5947 6.99844C59.9555 5.28935 61.2432 3.92787 62.926 3.47228C64.6114 3.0167 66.41 3.54339 67.5845 4.83903L69.1066 6.51916C70.4971 8.05445 72.5538 8.81551 74.6131 8.55216C76.6698 8.28619 78.4685 7.03531 79.4297 5.19454L80.5383 3.06937C81.3573 1.50248 82.9822 0.517578 84.7518 0.517578C86.5215 0.517578 88.1463 1.50248 88.9653 3.06937Z" fill="white"/>
</mask>
<g mask="url(#mask1_7183_6632)">
<path d="M-5 -4.99756H174.505V174.507H-5V-4.99756Z" fill="#CCF6C5"/>
</g>
</g>
<mask id="mask2_7183_6632" style="mask-type:luminance" maskUnits="userSpaceOnUse" x="0" y="0" width="170" height="170">
<path d="M0.392578 0.394531H169.606V169.608H0.392578V0.394531Z" fill="white"/>
</mask>
<g mask="url(#mask2_7183_6632)">
<mask id="mask3_7183_6632" style="mask-type:luminance" maskUnits="userSpaceOnUse" x="0" y="0" width="169" height="170">
<path d="M88.96 3.13407L90.0687 5.25924C91.0299 7.10001 92.8285 8.35089 94.8852 8.61686C96.9446 8.8802 98.9987 8.11914 100.392 6.58386L101.914 4.90373C103.086 3.60808 104.884 3.0814 106.57 3.53698C108.255 3.99256 109.543 5.35405 109.904 7.06314L110.354 9.19885C110.781 11.2266 112.174 12.9172 114.083 13.7257C115.992 14.5342 118.178 14.3577 119.932 13.2517L121.92 11.9982C123.424 11.0501 125.328 11.0159 126.866 11.906C128.403 12.7961 129.32 14.4657 129.246 16.2406L129.151 18.5607C129.067 20.6358 129.999 22.6241 131.653 23.8828C133.304 25.1416 135.469 25.5156 137.449 24.8835L139.461 24.241C141.136 23.7064 142.969 24.1514 144.212 25.3944C145.458 26.6374 145.903 28.4703 145.371 30.1451L144.72 32.1834C144.091 34.1637 144.465 36.3284 145.726 37.9796C146.988 39.6334 148.976 40.5656 151.054 40.4813L153.342 40.3865C155.117 40.3128 156.789 41.2319 157.682 42.7698C158.572 44.3077 158.54 46.2143 157.595 47.718L156.336 49.722C155.233 51.4785 155.056 53.6643 155.868 55.5761C156.676 57.488 158.369 58.8811 160.4 59.313L162.506 59.758C164.215 60.1188 165.58 61.4092 166.038 63.0972C166.493 64.7852 165.967 66.5865 164.674 67.761L162.999 69.2858C161.461 70.6815 160.702 72.7408 160.966 74.8028C161.232 76.8621 162.485 78.6634 164.326 79.6299L166.433 80.7333C168.002 81.5549 168.987 83.1824 168.987 84.9546C168.987 86.7296 168.002 88.357 166.433 89.1787L164.326 90.2821C162.485 91.2485 161.232 93.0498 160.966 95.1091C160.702 97.1711 161.461 99.2305 162.999 100.626L164.674 102.151C165.967 103.325 166.493 105.127 166.038 106.815C165.58 108.503 164.215 109.793 162.506 110.154L160.4 110.599C158.369 111.031 156.676 112.424 155.868 114.336C155.056 116.248 155.233 118.433 156.336 120.19L157.595 122.194C158.54 123.698 158.572 125.604 157.682 127.142C156.789 128.68 155.117 129.599 153.342 129.525L151.054 129.431C148.976 129.346 146.988 130.279 145.726 131.932C144.465 133.584 144.091 135.748 144.72 137.729L145.371 139.767C145.903 141.442 145.458 143.275 144.212 144.518C142.969 145.76 141.136 146.206 139.461 145.671L137.449 145.028C135.469 144.396 133.304 144.77 131.653 146.029C129.999 147.288 129.067 149.276 129.151 151.351L129.246 153.671C129.32 155.446 128.403 157.116 126.866 158.006C125.328 158.896 123.424 158.862 121.92 157.914L119.932 156.66C118.178 155.554 115.992 155.378 114.083 156.186C112.174 156.995 110.781 158.685 110.354 160.713L109.904 162.849C109.543 164.558 108.255 165.919 106.57 166.375C104.884 166.831 103.086 166.304 101.914 165.008L100.392 163.328C98.9987 161.793 96.9446 161.032 94.8852 161.295C92.8285 161.561 91.0299 162.812 90.0687 164.653L88.96 166.778C88.141 168.345 86.5162 169.33 84.7466 169.33C82.9769 169.33 81.3521 168.345 80.5331 166.778L79.4244 164.653C78.4632 162.812 76.6646 161.561 74.6079 161.295C72.5485 161.032 70.4944 161.793 69.1014 163.328L67.5792 165.008C66.4074 166.304 64.6087 166.831 62.9233 166.375C61.2379 165.919 59.9502 164.558 59.5894 162.849L59.1391 160.713C58.7125 158.685 57.3194 156.995 55.4102 156.186C53.5009 155.378 51.3152 155.554 49.5613 156.66L47.5731 157.914C46.0694 158.862 44.1654 158.896 42.6275 158.006C41.0896 157.116 40.1732 155.446 40.2469 153.671L40.3417 151.351C40.426 149.276 39.4937 147.288 37.84 146.029C36.1888 144.77 34.0241 144.396 32.0464 145.028L30.0318 145.671C28.357 146.206 26.5241 145.76 25.2811 144.518C24.0355 143.275 23.5905 141.442 24.1224 139.767L24.7729 137.729C25.4023 135.748 25.0283 133.584 23.7669 131.932C22.5055 130.279 20.5173 129.346 18.4395 129.431L16.151 129.525C14.3761 129.599 12.7039 128.68 11.8112 127.142C10.9211 125.604 10.9527 123.698 11.8981 122.194L13.1568 120.19C14.2602 118.433 14.4367 116.248 13.6256 114.336C12.8171 112.424 11.1238 111.031 9.09346 110.599L6.98672 110.154C5.27763 109.793 3.91351 108.503 3.4553 106.815C2.99971 105.127 3.5264 103.325 4.81941 102.151L6.49427 100.626C8.03219 99.2305 8.79062 97.1711 8.52728 95.1091C8.2613 93.0498 7.00779 91.2485 5.16702 90.2821L3.06028 89.1787C1.49076 88.357 0.505859 86.7296 0.505859 84.9546C0.505859 83.1824 1.49076 81.5549 3.06028 80.7333L5.16702 79.6299C7.00779 78.6634 8.2613 76.8621 8.52728 74.8028C8.79062 72.7408 8.03219 70.6815 6.49427 69.2858L4.81941 67.761C3.5264 66.5865 2.99971 64.7852 3.4553 63.0972C3.91351 61.4092 5.27763 60.1188 6.98672 59.758L9.09346 59.313C11.1238 58.8811 12.8171 57.488 13.6256 55.5761C14.4367 53.6643 14.2602 51.4785 13.1568 49.722L11.8981 47.718C10.9527 46.2143 10.9211 44.3077 11.8112 42.7698C12.7039 41.2319 14.3761 40.3128 16.151 40.3865L18.4395 40.4813C20.5173 40.5656 22.5055 39.6334 23.7669 37.9796C25.0283 36.3284 25.4023 34.1637 24.7729 32.1834L24.1224 30.1451C23.5905 28.4703 24.0355 26.6374 25.2811 25.3944C26.5241 24.1514 28.357 23.7064 30.0318 24.241L32.0464 24.8835C34.0241 25.5156 36.1888 25.1416 37.84 23.8828C39.4937 22.6241 40.426 20.6358 40.3417 18.5607L40.2469 16.2406C40.1732 14.4657 41.0896 12.7961 42.6275 11.906C44.1654 11.0159 46.0694 11.0501 47.5731 11.9982L49.5613 13.2517C51.3152 14.3577 53.5009 14.5342 55.4102 13.7257C57.3194 12.9172 58.7125 11.2266 59.1391 9.19885L59.5894 7.06314C59.9502 5.35405 61.2379 3.99256 62.9233 3.53698C64.6087 3.0814 66.4074 3.60808 67.5792 4.90373L69.1014 6.58386C70.4944 8.11914 72.5485 8.8802 74.6079 8.61686C76.6646 8.35089 78.4632 7.10001 79.4244 5.25924L80.5331 3.13407C81.3521 1.56718 82.9769 0.582275 84.7466 0.582275C86.5162 0.582275 88.141 1.56718 88.96 3.13407Z" fill="white"/>
</mask>
<g mask="url(#mask3_7183_6632)">
<path d="M88.96 3.13407L90.0687 5.25924C91.0299 7.10001 92.8285 8.35089 94.8853 8.61686C96.9446 8.8802 98.9987 8.11914 100.392 6.58386L101.914 4.90373C103.086 3.60808 104.884 3.0814 106.57 3.53698C108.255 3.99256 109.543 5.35405 109.904 7.06314L110.354 9.19885C110.781 11.2266 112.174 12.9172 114.083 13.7257C115.992 14.5342 118.178 14.3577 119.932 13.2517L121.92 11.9982C123.424 11.0501 125.328 11.0159 126.866 11.906C128.404 12.7961 129.32 14.4657 129.246 16.2406L129.151 18.5607C129.067 20.6358 129.999 22.6241 131.653 23.8828C133.304 25.1416 135.469 25.5156 137.449 24.8835L139.461 24.241C141.136 23.7064 142.969 24.1514 144.212 25.3944C145.458 26.6374 145.903 28.4703 145.371 30.1451L144.72 32.1834C144.091 34.1637 144.465 36.3284 145.726 37.9796C146.988 39.6334 148.976 40.5656 151.054 40.4813L153.342 40.3865C155.117 40.3128 156.789 41.2319 157.682 42.7698C158.572 44.3077 158.54 46.2143 157.595 47.718L156.336 49.722C155.233 51.4785 155.056 53.6643 155.868 55.5761C156.676 57.488 158.369 58.8811 160.4 59.313L162.506 59.758C164.215 60.1188 165.58 61.4092 166.038 63.0972C166.493 64.7852 165.967 66.5865 164.674 67.761L162.999 69.2858C161.461 70.6815 160.703 72.7408 160.966 74.8028C161.232 76.8621 162.485 78.6634 164.326 79.6299L166.433 80.7333C168.002 81.5549 168.987 83.1824 168.987 84.9547C168.987 86.7296 168.002 88.357 166.433 89.1787L164.326 90.2821C162.485 91.2485 161.232 93.0498 160.966 95.1091C160.703 97.1711 161.461 99.2305 162.999 100.626L164.674 102.151C165.967 103.325 166.493 105.127 166.038 106.815C165.58 108.503 164.215 109.793 162.506 110.154L160.4 110.599C158.369 111.031 156.676 112.424 155.868 114.336C155.056 116.248 155.233 118.433 156.336 120.19L157.595 122.194C158.54 123.698 158.572 125.604 157.682 127.142C156.789 128.68 155.117 129.599 153.342 129.525L151.054 129.431C148.976 129.346 146.988 130.279 145.726 131.932C144.465 133.584 144.091 135.748 144.72 137.729L145.371 139.767C145.903 141.442 145.458 143.275 144.212 144.517C142.969 145.76 141.136 146.206 139.461 145.671L137.449 145.028C135.469 144.396 133.304 144.77 131.653 146.029C129.999 147.288 129.067 149.276 129.151 151.351L129.246 153.671C129.32 155.446 128.404 157.116 126.866 158.006C125.328 158.896 123.424 158.862 121.92 157.914L119.932 156.66C118.178 155.554 115.992 155.378 114.083 156.186C112.174 156.995 110.781 158.685 110.354 160.713L109.904 162.849C109.543 164.558 108.255 165.919 106.57 166.375C104.884 166.831 103.086 166.304 101.914 165.008L100.392 163.328C98.9987 161.793 96.9446 161.032 94.8853 161.295C92.8285 161.561 91.0299 162.812 90.0687 164.653L88.96 166.778C88.141 168.345 86.5162 169.33 84.7466 169.33C82.9769 169.33 81.3521 168.345 80.5331 166.778L79.4244 164.653C78.4632 162.812 76.6646 161.561 74.6079 161.295C72.5485 161.032 70.4945 161.793 69.1014 163.328L67.5792 165.008C66.4074 166.304 64.6087 166.831 62.9233 166.375C61.238 165.919 59.9502 164.558 59.5894 162.849L59.1391 160.713C58.7125 158.685 57.3194 156.995 55.4102 156.186C53.5009 155.378 51.3152 155.554 49.5613 156.66L47.5731 157.914C46.0694 158.862 44.1654 158.896 42.6275 158.006C41.0896 157.116 40.1732 155.446 40.2469 153.671L40.3417 151.351C40.426 149.276 39.4938 147.288 37.84 146.029C36.1888 144.77 34.0241 144.396 32.0464 145.028L30.0318 145.671C28.357 146.206 26.5241 145.76 25.2811 144.517C24.0355 143.275 23.5905 141.442 24.1224 139.767L24.7729 137.729C25.4023 135.748 25.0283 133.584 23.7669 131.932C22.5055 130.279 20.5173 129.346 18.4395 129.431L16.151 129.525C14.3761 129.599 12.7039 128.68 11.8112 127.142C10.9211 125.604 10.9527 123.698 11.8981 122.194L13.1568 120.19C14.2602 118.433 14.4367 116.248 13.6256 114.336C12.8171 112.424 11.1238 111.031 9.09347 110.599L6.98672 110.154C5.27763 109.793 3.91351 108.503 3.4553 106.815C2.99971 105.127 3.5264 103.325 4.81941 102.151L6.49427 100.626C8.03219 99.2305 8.79062 97.1711 8.52728 95.1091C8.2613 93.0498 7.00779 91.2485 5.16703 90.2821L3.06028 89.1787C1.49076 88.357 0.505859 86.7296 0.505859 84.9547C0.505859 83.1824 1.49076 81.5549 3.06028 80.7333L5.16703 79.6299C7.00779 78.6634 8.2613 76.8621 8.52728 74.8028C8.79062 72.7408 8.03219 70.6815 6.49427 69.2858L4.81941 67.761C3.5264 66.5865 2.99971 64.7852 3.4553 63.0972C3.91351 61.4092 5.27763 60.1188 6.98672 59.758L9.09347 59.313C11.1238 58.8811 12.8171 57.488 13.6256 55.5761C14.4367 53.6643 14.2602 51.4785 13.1568 49.722L11.8981 47.718C10.9527 46.2143 10.9211 44.3077 11.8112 42.7698C12.7039 41.2319 14.3761 40.3128 16.151 40.3865L18.4395 40.4813C20.5173 40.5656 22.5055 39.6334 23.7669 37.9796C25.0283 36.3284 25.4023 34.1637 24.7729 32.1834L24.1224 30.1451C23.5905 28.4703 24.0355 26.6374 25.2811 25.3944C26.5241 24.1514 28.357 23.7064 30.0318 24.241L32.0464 24.8835C34.0241 25.5156 36.1888 25.1416 37.84 23.8828C39.4938 22.6241 40.426 20.6358 40.3417 18.5607L40.2469 16.2406C40.1732 14.4657 41.0896 12.7961 42.6275 11.906C44.1654 11.0159 46.0694 11.0501 47.5731 11.9982L49.5613 13.2517C51.3152 14.3577 53.5009 14.5342 55.4102 13.7257C57.3194 12.9172 58.7125 11.2266 59.1391 9.19885L59.5894 7.06314C59.9502 5.35405 61.238 3.99256 62.9233 3.53698C64.6087 3.0814 66.4074 3.60808 67.5792 4.90373L69.1014 6.58386C70.4945 8.11914 72.5485 8.8802 74.6079 8.61686C76.6646 8.35089 78.4632 7.10001 79.4244 5.25924L80.5331 3.13407C81.3521 1.56718 82.9769 0.582275 84.7466 0.582275C86.5162 0.582275 88.141 1.56718 88.96 3.13407Z" stroke="white" stroke-width="5.05596"/>
</g>
</g>
<mask id="mask4_7183_6632" style="mask-type:luminance" maskUnits="userSpaceOnUse" x="34" y="70" width="38" height="14">
<path d="M34.9688 70.5071H71.1784V83.9902H34.9688V70.5071Z" fill="white"/>
</mask>
<g mask="url(#mask4_7183_6632)">
<path d="M38.7791 79.9783C39.211 79.5622 39.6719 79.1777 40.1433 78.8038C40.3539 78.63 39.664 79.1698 39.8826 79.0039L40.0327 78.8907C40.1327 78.817 40.2302 78.7432 40.3302 78.6721C40.5567 78.5088 40.7832 78.3508 41.0123 78.1955C41.5337 77.8479 42.0683 77.5213 42.6134 77.2132C43.3297 76.8156 44.0644 76.4548 44.8202 76.1335L44.3172 76.3468C46.0342 75.6226 47.8171 75.1328 49.6657 74.8774L49.1074 74.9511C50.9271 74.7141 52.7468 74.7193 54.5639 74.9643L54.0056 74.8905C55.7885 75.1381 57.5054 75.6094 59.1645 76.3073L58.6615 76.0966C59.678 76.5311 60.6577 77.0394 61.5952 77.6266C62.0297 77.8979 62.4537 78.1876 62.8671 78.493L63.1225 78.6827L63.249 78.7775C63.5149 78.9776 62.846 78.4614 63.0383 78.6142C63.2305 78.7696 63.4149 78.9118 63.5992 79.0645C64.7079 79.9862 65.7165 81.0053 66.625 82.1219C66.7066 82.2193 66.7856 82.3221 66.8673 82.4221C66.9489 82.5248 66.4538 81.8823 66.6619 82.1588L66.754 82.2799C66.8462 82.4063 66.9384 82.5327 67.0279 82.6591C67.3255 83.1384 67.7442 83.4623 68.2841 83.6256C68.8529 83.7783 69.3954 83.7072 69.9063 83.4123C70.8016 82.8382 71.3362 81.5057 70.662 80.534C69.3559 78.6932 67.8206 77.0684 66.0562 75.6595C64.2918 74.2506 62.3668 73.113 60.2837 72.2492C53.8792 69.5657 46.5083 70.2215 40.4909 73.5791C38.7818 74.5192 37.2202 75.6621 35.8007 77.0025C35.0054 77.7662 34.9765 79.2199 35.8007 79.9783C36.0009 80.1705 36.23 80.318 36.4881 80.4233C36.7461 80.5261 37.0121 80.5787 37.2913 80.5787C37.5678 80.5787 37.8337 80.5261 38.0918 80.4233C38.3499 80.318 38.579 80.1705 38.7791 79.9783Z" fill="#34A853"/>
</g>
<path d="M67.8558 116.063C68.7933 117.159 69.8335 118.144 70.979 119.021C73.3596 120.912 76.001 122.307 78.9056 123.211C85.4339 125.183 92.6679 123.945 98.2613 120.09C99.8387 119.031 101.263 117.799 102.535 116.387C102.93 115.969 103.136 115.474 103.152 114.899C103.146 114.32 102.941 113.822 102.535 113.412C101.74 112.682 100.331 112.527 99.557 113.412C99.0593 113.975 98.5299 114.507 97.9664 115.007C97.7452 115.208 97.5161 115.402 97.2843 115.595C97.1632 115.695 97.0394 115.795 96.913 115.895L96.8366 115.955C96.6207 116.129 97.1421 115.721 97.1052 115.747C97.0236 115.805 96.9446 115.871 96.863 115.932C96.2415 116.398 95.5989 116.83 94.9353 117.227C94.061 117.754 93.1525 118.215 92.215 118.615L92.718 118.402C91.0299 119.113 89.2787 119.592 87.4616 119.84L88.0199 119.766C86.2029 120 84.3884 119.998 82.5714 119.755L83.1323 119.832C81.3495 119.582 79.6298 119.108 77.9708 118.412L78.4738 118.623C76.8331 117.923 75.2978 117.038 73.8679 115.971L73.644 115.797C74.2102 116.221 74.0259 116.095 73.9048 116L73.7994 115.916C73.6519 115.8 73.5097 115.684 73.3649 115.571C73.1174 115.363 72.8751 115.152 72.6354 114.936C72.2483 114.589 71.8744 114.225 71.5136 113.843C71.2819 113.601 71.0554 113.348 70.8342 113.088C70.5076 112.695 69.8387 112.471 69.3463 112.471C68.7669 112.477 68.2719 112.682 67.8584 113.088C67.4502 113.498 67.2448 113.996 67.2422 114.576C67.2685 115.147 67.4739 115.642 67.8584 116.063H67.8558Z" fill="#34A853"/>
<path d="M133.675 77.0025C132.477 75.8702 131.168 74.8774 129.754 74.0268C127.189 72.4414 124.419 71.3986 121.445 70.893C117.714 70.2952 113.853 70.548 110.282 71.8226C107.38 72.8681 104.773 74.4139 102.464 76.4574C101.086 77.6662 99.8724 79.0224 98.8216 80.5261C98.5214 80.9527 98.474 81.6637 98.6083 82.1483C98.7637 82.696 99.0876 83.1147 99.5774 83.4044C100.654 83.9759 101.779 83.6151 102.456 82.6512C102.532 82.5433 102.608 82.4353 102.687 82.33L102.84 82.1246C103.027 81.8796 102.445 82.6302 102.627 82.4011C102.666 82.351 102.703 82.301 102.743 82.2536C103.111 81.7901 103.501 81.3424 103.909 80.9132C104.455 80.3338 105.029 79.7861 105.634 79.2673C105.792 79.133 105.953 78.9987 106.116 78.867L106.382 78.6537C106.509 78.5536 106.73 78.3983 106.172 78.817L106.327 78.6985C106.73 78.3956 107.141 78.1059 107.565 77.8321C108.6 77.1579 109.685 76.5812 110.822 76.0966L110.314 76.3073C111.97 75.6095 113.69 75.1381 115.47 74.8905L114.912 74.9669C116.732 74.7194 118.551 74.7167 120.371 74.9537L119.813 74.88C121.659 75.1354 123.442 75.6253 125.161 76.3495L124.658 76.1335C125.92 76.6707 127.126 77.3159 128.271 78.0664C128.716 78.3588 129.138 78.6695 129.575 78.9881C129.82 79.1725 129.209 78.7037 129.311 78.788L129.451 78.896L129.691 79.0829C129.833 79.2015 129.975 79.32 130.115 79.4411C130.315 79.6149 130.51 79.7913 130.699 79.973C131.495 80.7367 132.898 80.8236 133.675 79.973C134.455 79.1224 134.526 77.811 133.675 76.9973V77.0025Z" fill="#34A853"/>
<path d="M24.1199 53.4615C24.6202 52.7663 25.2101 52.1553 25.8895 51.6287C26.5637 51.102 27.1193 50.7544 27.5538 50.5858L28.1964 50.333L29.6922 53.1982C29.5658 53.2482 29.3946 53.3219 29.176 53.4194C28.9522 53.5116 28.594 53.7301 28.1016 54.0725C27.6039 54.4096 27.2141 54.7756 26.9324 55.168C26.5821 55.6604 26.4162 56.1134 26.4373 56.5268C26.4583 56.9429 26.6453 57.2747 26.9956 57.5275C27.1799 57.6539 27.3932 57.7119 27.6381 57.6961C27.8778 57.675 28.1911 57.5776 28.5756 57.4011C28.9548 57.2273 29.2814 57.0614 29.5552 56.906C29.8239 56.7454 30.2347 56.4952 30.7877 56.1581C31.7305 55.5841 32.7154 55.218 33.7477 55.0626C34.78 54.9099 35.678 55.11 36.4443 55.6631C37.1869 56.1897 37.7399 56.7849 38.0981 57.4433C38.4615 58.1043 38.6353 58.7784 38.6142 59.4657C38.5932 60.1557 38.4562 60.8351 38.2034 61.5093C37.9559 62.1834 37.5977 62.8471 37.129 63.5001C36.7287 64.0637 36.2758 64.5719 35.7701 65.0275C35.2645 65.4857 34.7958 65.836 34.3692 66.0809C33.9478 66.3284 33.5475 66.5391 33.1683 66.7129C32.7891 66.8894 32.4941 66.9973 32.2835 67.0395L31.9675 67.1343L30.5454 63.9004C30.7429 63.853 30.9984 63.774 31.3144 63.6687C31.6304 63.5581 32.1255 63.3211 32.7996 62.9629C33.4659 62.5995 33.9504 62.2019 34.2533 61.7726C35.1434 60.5296 35.1697 59.6079 34.327 59.0022C34.1427 58.8758 33.9425 58.8021 33.7266 58.781C33.5159 58.76 33.2552 58.81 32.9471 58.9285C32.6311 59.0497 32.3677 59.1655 32.1571 59.2761C31.9464 59.3815 31.6146 59.5684 31.1564 59.8344C30.6929 60.0951 30.3453 60.2821 30.1135 60.3927C29.1734 60.8983 28.2596 61.159 27.3748 61.1722C26.4899 61.188 25.7157 60.9563 25.0468 60.477C23.896 59.6553 23.2561 58.5572 23.1297 57.1799C23.0033 55.7974 23.3351 54.557 24.1199 53.4615Z" fill="#34A853"/>
<path d="M44.9771 48.0088L39.805 52.9386C40.2817 53.4389 40.7952 53.6549 41.343 53.5917C41.896 53.5232 42.3674 53.3073 42.7545 52.9491C43.1469 52.5699 43.4076 52.217 43.534 51.8852C43.6656 51.5481 43.7289 51.082 43.7236 50.4842L46.3675 49.6731C46.81 51.6271 46.1674 53.4284 44.4399 55.0769C43.3707 56.104 42.0961 56.6149 40.6161 56.6149C39.1414 56.6096 37.9142 56.0882 36.9293 55.0559C35.9392 54.0183 35.4757 52.7595 35.5389 51.2848C35.6021 49.8048 36.1683 48.5513 37.2348 47.5243C38.3672 46.4446 39.5996 45.8915 40.9322 45.8705C42.2647 45.8441 43.5129 46.4367 44.6716 47.6507C44.8244 47.8192 44.9271 47.9403 44.9771 48.0088ZM38.5726 51.5165L41.2798 48.9358C40.8716 48.6145 40.4529 48.467 40.0263 48.4934C39.5996 48.5144 39.202 48.704 38.8359 49.0622C38.4304 49.4493 38.2092 49.868 38.1723 50.3157C38.1302 50.7581 38.2645 51.1584 38.5726 51.5165Z" fill="#34A853"/>
<path d="M54.3804 41.7128L48.4184 45.6524C48.7976 46.2292 49.2637 46.5346 49.8193 46.5689C50.3724 46.5978 50.8727 46.4688 51.3151 46.1791C51.7707 45.8789 52.0894 45.5761 52.2737 45.2732C52.4633 44.973 52.6108 44.5253 52.7161 43.9355L55.4443 43.6089C55.5339 45.6103 54.5858 47.2694 52.6002 48.5808C51.3625 49.4024 50.0195 49.6842 48.5658 49.4235C47.1201 49.1575 46.0035 48.4281 45.2161 47.2325C44.4234 46.0317 44.1891 44.7123 44.5104 43.2718C44.8343 41.834 45.6138 40.7016 46.8488 39.88C48.155 39.0162 49.4612 38.6897 50.7674 38.9003C52.0788 39.111 53.2007 39.9195 54.1276 41.3231C54.2593 41.5127 54.3436 41.6444 54.3804 41.7128ZM47.4598 44.0303L50.5778 41.9762C50.2328 41.5917 49.8457 41.3731 49.4191 41.3231C48.9977 41.2757 48.5711 41.3916 48.1445 41.6707C47.6731 41.9815 47.3834 42.3528 47.2702 42.7873C47.1517 43.2165 47.2149 43.63 47.4598 44.0303Z" fill="#34A853"/>
<path d="M65.4745 31.4891L69.1823 30.2356L66.57 46.7735L62.8621 48.0165L64.0103 40.7588L56.9316 34.3437L60.65 33.1008L64.853 37.0298L65.4745 31.4891Z" fill="#34A853"/>
<path d="M72.778 38.4912C71.5614 37.6696 70.8583 36.5056 70.6607 34.994C70.458 33.485 70.8556 32.1683 71.8511 31.0439C72.8544 29.922 74.1895 29.2505 75.8539 29.0319C77.4892 28.816 78.9323 29.1215 80.1832 29.9483C81.4394 30.7779 82.1662 31.9392 82.3637 33.435C82.5665 34.9308 82.1846 36.2422 81.2155 37.3641C80.2464 38.4807 78.9192 39.1522 77.2338 39.376C75.4773 39.6078 73.992 39.3128 72.778 38.4912ZM74.6636 32.7714C74.2843 33.2638 74.1395 33.8458 74.2317 34.52C74.3212 35.1941 74.603 35.7182 75.0744 36.0895C75.551 36.4555 76.133 36.5925 76.823 36.5003C77.4813 36.416 77.9948 36.129 78.3609 35.6366C78.7322 35.1467 78.8718 34.57 78.7822 33.909C78.6901 33.2349 78.3951 32.7134 77.8974 32.3395C77.405 31.9682 76.844 31.8233 76.212 31.9076C75.5642 31.9919 75.048 32.2816 74.6636 32.7714Z" fill="#34A853"/>
<path d="M87.2736 28.7324L86.9787 33.4094C86.9208 34.3864 87.0261 35.0895 87.2947 35.5161C87.5607 35.9375 88.0452 36.1692 88.7484 36.2113C89.4567 36.2535 89.9703 36.0823 90.2863 35.6952C90.6076 35.3028 90.7972 34.6181 90.8551 33.6411L91.15 28.9641L94.5419 29.1748L94.1943 34.6839C94.0942 36.314 93.5965 37.4648 92.6985 38.139C91.8058 38.8053 90.4337 39.0818 88.5798 38.9712C86.7259 38.8579 85.3934 38.4155 84.5875 37.6439C83.787 36.8644 83.4341 35.661 83.5342 34.0309L83.8818 28.5217L87.2736 28.7324Z" fill="#34A853"/>
<path d="M103.014 31.0898L104.078 27.582L107.333 28.5722L106.269 32.0799L108.249 32.6803L107.491 35.1768L105.51 34.5764L104.604 37.568C104.336 38.4318 104.449 38.9374 104.941 39.0848C105.06 39.1217 105.194 39.1375 105.342 39.1375C105.494 39.1322 105.618 39.1112 105.71 39.0743L105.837 39.0427L105.847 41.9079C105.031 42.0896 104.175 42.0448 103.277 41.7709C102.666 41.5866 102.171 41.3233 101.792 40.9809C101.418 40.6359 101.173 40.2462 101.054 39.8117C100.941 39.3772 100.896 38.9453 100.918 38.516C100.939 38.0894 101.018 37.6496 101.16 37.1993L102.255 33.5862L100.896 33.1649L101.655 30.6684L103.014 31.0898Z" fill="#34A853"/>
<path d="M105.967 42.1871L113.161 27.303L116.227 28.7882L112.866 35.7299L112.909 35.751C114.088 35.3455 115.126 35.356 116.026 35.7826C116.461 35.9933 116.864 36.2619 117.238 36.5832C117.617 36.9071 117.946 37.2889 118.228 37.7313C118.515 38.1685 118.673 38.6662 118.702 39.2271C118.736 39.7907 118.613 40.3621 118.333 40.9441L115.5 46.8009L112.445 45.3262L114.868 40.3121C115.092 39.8486 115.136 39.3746 115.005 38.8901C114.878 38.4002 114.578 38.0421 114.109 37.8156C113.646 37.5918 113.14 37.5681 112.592 37.7419C112.045 37.9183 111.666 38.2238 111.455 38.6583L109.032 43.6724L105.967 42.1871Z" fill="#34A853"/>
<path d="M126.986 49.7277L121.245 45.4827C120.837 46.0383 120.713 46.5782 120.877 47.1048C121.037 47.6368 121.329 48.0634 121.751 48.3794C122.193 48.7007 122.586 48.8982 122.931 48.9693C123.281 49.0457 123.752 49.0272 124.342 48.9166L125.585 51.3815C123.736 52.1531 121.856 51.8292 119.939 50.4124C118.743 49.5276 118.022 48.3584 117.769 46.9047C117.522 45.459 117.824 44.1607 118.675 43.0072C119.531 41.8485 120.69 41.1744 122.151 40.9848C123.618 40.7952 124.948 41.1428 126.143 42.0276C127.4 42.9546 128.155 44.0711 128.408 45.3773C128.661 46.6835 128.287 48.0107 127.292 49.3591C127.149 49.5487 127.049 49.6698 126.986 49.7277ZM122.446 44.0185L125.459 46.2411C125.696 45.7855 125.767 45.351 125.669 44.9349C125.569 44.5215 125.314 44.1633 124.9 43.8605C124.45 43.5234 124.005 43.3759 123.563 43.418C123.12 43.4549 122.746 43.6551 122.446 44.0185Z" fill="#34A853"/>
<path d="M124.717 53.816L131.785 46.9375L134.155 49.3708L133.133 50.361L133.165 50.3926C133.22 50.3794 133.294 50.3689 133.386 50.361C133.483 50.3478 133.67 50.3452 133.944 50.3504C134.218 50.3504 134.484 50.3768 134.745 50.4242C135.003 50.4742 135.295 50.5795 135.619 50.7402C135.948 50.9034 136.241 51.1088 136.493 51.3617C136.752 51.6303 136.97 51.9278 137.147 52.257C137.32 52.5809 137.431 52.8416 137.473 53.0365L137.557 53.342L134.503 54.3322C134.46 53.7765 134.176 53.2288 133.649 52.6889C133.36 52.394 133.049 52.2044 132.712 52.1201C132.38 52.0358 132.082 52.0411 131.817 52.1306C131.548 52.2228 131.332 52.3097 131.163 52.394C130.995 52.4782 130.871 52.5599 130.795 52.6362L127.087 56.2493L124.717 53.816Z" fill="#34A853"/>
<path d="M140.051 65.5957L135.964 59.7494C135.395 60.1418 135.1 60.6158 135.079 61.1715C135.058 61.7245 135.198 62.217 135.5 62.6462C135.816 63.0939 136.127 63.4099 136.438 63.5942C136.746 63.776 137.196 63.9103 137.786 63.9945L138.186 66.7228C136.19 66.8544 134.513 65.9459 133.151 63.9945C132.301 62.7779 131.987 61.4401 132.214 59.9812C132.438 58.5275 133.136 57.3899 134.31 56.5683C135.482 55.7466 136.791 55.4807 138.239 55.7677C139.693 56.0574 140.844 56.8079 141.694 58.0219C142.584 59.2991 142.942 60.5974 142.769 61.9194C142.592 63.2387 141.815 64.379 140.441 65.3428C140.251 65.4745 140.119 65.5588 140.051 65.5957ZM137.554 58.7382L139.693 61.8035C140.072 61.4454 140.277 61.0556 140.314 60.6343C140.356 60.2129 140.23 59.7916 139.935 59.3702C139.611 58.9067 139.232 58.6276 138.797 58.5275C138.36 58.4222 137.947 58.4933 137.554 58.7382Z" fill="#34A853"/>
<mask id="mask5_7183_6632" style="mask-type:luminance" maskUnits="userSpaceOnUse" x="31" y="119" width="24" height="24">
<path d="M31.668 119.31H54.326V142.452H31.668V119.31Z" fill="white"/>
</mask>
<g mask="url(#mask5_7183_6632)">
<mask id="mask6_7183_6632" style="mask-type:luminance" maskUnits="userSpaceOnUse" x="31" y="119" width="24" height="24">
<path d="M43.1069 119.545L43.6731 129.249C43.7073 129.816 44.1577 130.269 44.7238 130.303L54.1963 130.88C54.2279 130.882 54.2542 130.909 54.2542 130.94C54.2542 130.972 54.2279 130.998 54.1963 131.001L44.7238 131.577C44.1577 131.612 43.7073 132.062 43.6731 132.628L43.1069 142.335C43.1043 142.367 43.0779 142.39 43.049 142.39C43.0174 142.39 42.991 142.367 42.991 142.335L42.4222 132.628C42.3906 132.062 41.9403 131.612 41.3741 131.577L31.8991 131.001C31.8675 130.998 31.8438 130.972 31.8438 130.94C31.8438 130.909 31.8675 130.882 31.8991 130.88L41.3741 130.303C41.9403 130.269 42.3906 129.816 42.4222 129.249L42.991 119.545C42.991 119.514 43.0174 119.49 43.049 119.49C43.0779 119.49 43.1043 119.514 43.1069 119.545Z" fill="white"/>
</mask>
<g mask="url(#mask6_7183_6632)">
<path d="M43.1069 119.545L43.6731 129.249C43.7073 129.816 44.1576 130.269 44.7238 130.303L54.1963 130.88C54.2279 130.882 54.2542 130.909 54.2542 130.94C54.2542 130.972 54.2279 130.998 54.1963 131.001L44.7238 131.577C44.1576 131.612 43.7073 132.062 43.6731 132.628L43.1069 142.335C43.1043 142.367 43.0779 142.39 43.049 142.39C43.0174 142.39 42.991 142.367 42.991 142.335L42.4222 132.628C42.3906 132.062 41.9403 131.612 41.3741 131.577L31.8991 131.001C31.8675 130.998 31.8438 130.972 31.8438 130.94C31.8438 130.909 31.8675 130.882 31.8991 130.88L41.3741 130.303C41.9403 130.269 42.3906 129.816 42.4222 129.249L42.991 119.545C42.991 119.514 43.0174 119.49 43.049 119.49C43.0779 119.49 43.1043 119.514 43.1069 119.545Z" stroke="white" stroke-width="5.04491"/>
</g>
</g>
<mask id="mask7_7183_6632" style="mask-type:luminance" maskUnits="userSpaceOnUse" x="135" y="73" width="24" height="24">
<path d="M135.475 73.3042H158.146V96.4468H135.475V73.3042Z" fill="white"/>
</mask>
<g mask="url(#mask7_7183_6632)">
<mask id="mask8_7183_6632" style="mask-type:luminance" maskUnits="userSpaceOnUse" x="135" y="73" width="24" height="24">
<path d="M146.914 73.5343L147.482 83.2385C147.514 83.8047 147.964 84.2576 148.53 84.2919L158.006 84.8686C158.037 84.8712 158.061 84.8975 158.061 84.9291C158.061 84.9607 158.037 84.9871 158.006 84.9897L148.53 85.5664C147.964 85.6007 147.514 86.051 147.482 86.6172L146.914 96.324C146.914 96.3556 146.887 96.3793 146.856 96.3793C146.827 96.3793 146.8 96.3556 146.798 96.324L146.232 86.6172C146.197 86.051 145.747 85.6007 145.181 85.5664L135.708 84.9897C135.677 84.9871 135.65 84.9607 135.65 84.9291C135.65 84.8975 135.677 84.8712 135.708 84.8686L145.181 84.2919C145.747 84.2576 146.197 83.8047 146.232 83.2385L146.798 73.5343C146.8 73.5027 146.827 73.479 146.856 73.479C146.887 73.479 146.914 73.5027 146.914 73.5343Z" fill="white"/>
</mask>
<g mask="url(#mask8_7183_6632)">
<path d="M146.914 73.5343L147.482 83.2385C147.514 83.8047 147.964 84.2576 148.53 84.2918L158.006 84.8686C158.037 84.8712 158.061 84.8975 158.061 84.9291C158.061 84.9607 158.037 84.9871 158.006 84.9897L148.53 85.5664C147.964 85.6007 147.514 86.051 147.482 86.6172L146.914 96.324C146.914 96.3556 146.887 96.3793 146.856 96.3793C146.827 96.3793 146.8 96.3556 146.798 96.324L146.231 86.6172C146.197 86.051 145.747 85.6007 145.181 85.5664L135.708 84.9897C135.677 84.9871 135.65 84.9607 135.65 84.9291C135.65 84.8975 135.677 84.8712 135.708 84.8686L145.181 84.2918C145.747 84.2576 146.197 83.8047 146.231 83.2385L146.798 73.5343C146.8 73.5027 146.827 73.479 146.856 73.479C146.887 73.479 146.914 73.5027 146.914 73.5343Z" stroke="white" stroke-width="5.04491"/>
</g>
</g>
</svg>
