<svg width="26" height="26" viewBox="0 0 26 26" fill="none" xmlns="http://www.w3.org/2000/svg">
<path d="M8.83927 3.5003L18.7172 4.16074C18.8566 4.17007 18.992 4.21172 19.1125 4.2824C19.233 4.35308 19.3354 4.45086 19.4116 4.56798L21.62 7.96287L20.7194 21.4328C20.7035 21.671 20.5936 21.893 20.414 22.0502C20.2343 22.2073 19.9996 22.2867 19.7614 22.2707L5.39348 21.3101C5.15532 21.2942 4.93323 21.1843 4.77609 21.0046C4.61894 20.825 4.5396 20.5902 4.55552 20.3521L5.45613 6.88214L8.09686 3.81147C8.18796 3.70553 8.30248 3.62226 8.43134 3.56825C8.5602 3.51425 8.69986 3.49098 8.83927 3.5003ZM19.704 9.63878L7.13204 8.79821L6.41155 19.5742L18.9835 20.4147L19.704 9.63878ZM19.3751 7.81277L18.1481 5.92671L9.16819 5.32631L7.70112 7.03224L19.3751 7.81277ZM10.6039 10.8344L10.4839 12.6304C10.4361 13.3448 10.6741 14.049 11.1455 14.588C11.617 15.127 12.2832 15.4567 12.9977 15.5045C13.7122 15.5522 14.4164 15.3142 14.9554 14.8428C15.4944 14.3713 15.8241 13.7051 15.8718 12.9906L15.9919 11.1946L17.7879 11.3147L17.6678 13.1107C17.5882 14.3015 17.0388 15.4119 16.1405 16.1976C15.2421 16.9834 14.0685 17.3801 12.8776 17.3004C11.6868 17.2208 10.5764 16.6714 9.79068 15.7731C9.00494 14.8748 8.60825 13.7011 8.68787 12.5103L8.80795 10.7143L10.6039 10.8344Z" fill="#4285F4"/>
</svg>
