<svg width="32" height="32" viewBox="0 0 32 32" fill="none" xmlns="http://www.w3.org/2000/svg">
<g clip-path="url(#clip0_5345_3718)">
<path d="M14.7695 5.99739L23.9155 9.78693C24.0445 9.84042 24.1594 9.92322 24.2509 10.0288C24.3425 10.1343 24.4082 10.2598 24.4428 10.3951L25.4475 14.3185L20.28 26.7903C20.1886 27.0109 20.0134 27.186 19.7929 27.2774C19.5723 27.3687 19.3245 27.3687 19.104 27.2773L5.80075 21.7652C5.58024 21.6739 5.40505 21.4986 5.31373 21.2781C5.2224 21.0576 5.22243 20.8098 5.3138 20.5893L10.4814 8.11744L13.9665 6.05437C14.0867 5.98319 14.2219 5.94099 14.3613 5.9311C14.5006 5.92121 14.6404 5.94391 14.7695 5.99739ZM23.0956 15.2924L11.4553 10.4694L7.32121 20.4468L18.9616 25.2699L23.0956 15.2924ZM23.3689 13.4573L22.8107 11.2776L14.4962 7.83255L12.56 8.9787L23.3689 13.4573ZM14.0921 13.5103L13.4031 15.1732C13.129 15.8347 13.1289 16.5781 13.4028 17.2397C13.6768 17.9013 14.2024 18.427 14.8639 18.7011C15.5255 18.9752 16.2688 18.9753 16.9304 18.7013C17.592 18.4273 18.1177 17.9018 18.3918 17.2402L19.0808 15.5773L20.7437 16.2663L20.0547 17.9292C19.5979 19.0318 18.7217 19.9077 17.6191 20.3644C16.5164 20.821 15.2775 20.8208 14.1749 20.364C13.0723 19.9071 12.1964 19.031 11.7398 17.9283C11.2832 16.8257 11.2833 15.5868 11.7402 14.4842L12.4292 12.8213L14.0921 13.5103Z" fill="#34A853"/>
</g>
<defs>
<clipPath id="clip0_5345_3718">
<rect width="24" height="24" fill="white" transform="translate(9.40479 0.527344) rotate(22.5061)"/>
</clipPath>
</defs>
</svg>
