<svg width="30" height="30" viewBox="0 0 30 30" fill="none" xmlns="http://www.w3.org/2000/svg">
<g clip-path="url(#clip0_5345_3706)">
<path d="M8.10269 7.45036L17.719 5.09717C17.8547 5.06396 17.9963 5.06281 18.1325 5.09379C18.2687 5.12478 18.3959 5.18707 18.5039 5.27572L21.6344 7.84526L24.8433 20.9583C24.9 21.1902 24.8623 21.4351 24.7385 21.6392C24.6147 21.8432 24.4148 21.9897 24.183 22.0465L10.1957 25.4693C9.96384 25.526 9.71894 25.4883 9.51488 25.3645C9.31081 25.2407 9.16429 25.0409 9.10756 24.809L5.89867 11.6959L7.48889 7.97118C7.54376 7.84268 7.62778 7.72872 7.73432 7.63832C7.84085 7.54792 7.96697 7.48357 8.10269 7.45036ZM20.3138 10.0215L8.07493 13.0165L10.642 23.5069L22.8809 20.512L20.3138 10.0215ZM19.4489 8.38007L17.7097 6.95255L8.96764 9.09181L8.08419 11.1611L19.4489 8.38007ZM11.9996 13.9092L12.4275 15.6576C12.5977 16.3532 13.0372 16.9526 13.6494 17.3241C14.2616 17.6956 14.9963 17.8086 15.6919 17.6384C16.3874 17.4682 16.9869 17.0287 17.3584 16.4165C17.7298 15.8043 17.8429 15.0696 17.6727 14.374L17.2448 12.6256L18.9933 12.1978L19.4211 13.9462C19.7048 15.1055 19.5163 16.3299 18.8972 17.3503C18.2781 18.3706 17.279 19.1032 16.1197 19.3869C14.9604 19.6705 13.736 19.4821 12.7156 18.8629C11.6953 18.2438 10.9627 17.2447 10.679 16.0855L10.2512 14.337L11.9996 13.9092Z" fill="#EA4335"/>
</g>
<defs>
<clipPath id="clip0_5345_3706">
<rect width="24" height="24" fill="white" transform="translate(0.541992 6.21191) rotate(-13.7506)"/>
</clipPath>
</defs>
</svg>
