<svg width="24" height="24" viewBox="0 0 24 24" fill="none" xmlns="http://www.w3.org/2000/svg">
<path d="M7.04941 3H16.9494C17.0891 3 17.2269 3.03253 17.3519 3.09502C17.4769 3.1575 17.5856 3.24822 17.6694 3.36L20.0994 6.6V20.1C20.0994 20.3387 20.0046 20.5676 19.8358 20.7364C19.667 20.9052 19.4381 21 19.1994 21H4.79941C4.56072 21 4.3318 20.9052 4.16302 20.7364C3.99424 20.5676 3.89941 20.3387 3.89941 20.1V6.6L6.32941 3.36C6.41325 3.24822 6.52195 3.1575 6.64692 3.09502C6.77189 3.03253 6.90969 3 7.04941 3ZM18.2994 8.4H5.69941V19.2H18.2994V8.4ZM17.8494 6.6L16.4994 4.8H7.49941L6.14941 6.6H17.8494ZM9.29941 10.2V12C9.29941 12.7161 9.58388 13.4028 10.0902 13.9092C10.5966 14.4155 11.2833 14.7 11.9994 14.7C12.7155 14.7 13.4023 14.4155 13.9086 13.9092C14.415 13.4028 14.6994 12.7161 14.6994 12V10.2H16.4994V12C16.4994 13.1935 16.0253 14.3381 15.1814 15.182C14.3375 16.0259 13.1929 16.5 11.9994 16.5C10.8059 16.5 9.66135 16.0259 8.81743 15.182C7.97352 14.3381 7.49941 13.1935 7.49941 12V10.2H9.29941Z" fill="#EA4335"/>
</svg>
