<svg width="29" height="29" viewBox="0 0 29 29" fill="none" xmlns="http://www.w3.org/2000/svg">
<g clip-path="url(#clip0_5345_3725)">
<path d="M20.9604 9.05507L20.8576 9.55895C20.7825 9.92781 20.3157 10.0273 20.0966 9.72111L19.7975 9.30287C19.2641 8.55713 18.4794 8.04009 17.598 7.85358L16.9202 7.71015C16.5537 7.63259 16.4499 7.14542 16.7529 6.9252L17.282 6.54065C18.0296 5.99741 18.5417 5.17871 18.7126 4.2537L18.8128 3.7115C18.8826 3.3336 19.3622 3.23141 19.58 3.54802L19.8925 4.00227C20.4257 4.77724 21.2271 5.31603 22.1312 5.50734L22.771 5.64278C23.1376 5.72033 23.2414 6.20749 22.9383 6.42774L22.3779 6.83503C21.6491 7.36466 21.1434 8.15666 20.9604 9.05507ZM10.5229 6.90984C13.8381 6.20341 17.1026 8.09424 18.1988 11.2086L20.6476 13.7019C20.8089 13.8661 20.8449 14.1549 20.5908 14.3344L19.1396 15.3587L19.6483 17.7459C19.8402 18.6462 19.2659 19.5315 18.3656 19.7234L16.7364 20.0705L17.2566 22.5158L9.92128 24.0789L9.27994 21.0682C9.07491 20.1057 8.52497 19.2716 7.69142 18.5907C6.55826 17.665 5.72072 16.3619 5.39205 14.8195C4.62469 11.2185 6.92185 7.67719 10.5229 6.90984ZM23.225 17.9231L21.676 17.3078C22.2056 15.9776 22.3609 14.4815 22.0401 12.9761C21.9513 12.5596 21.8296 12.1585 21.6782 11.7751L23.1749 11.0301C23.3847 11.5381 23.5515 12.072 23.6702 12.6288C24.0622 14.4687 23.8725 16.2972 23.225 17.9231Z" fill="#F9AB00"/>
</g>
<defs>
<clipPath id="clip0_5345_3725">
<rect width="24" height="24" fill="white" transform="translate(0.467773 5.30347) rotate(-12.0294)"/>
</clipPath>
</defs>
</svg>
