<svg width="31" height="31" viewBox="0 0 31 31" fill="none" xmlns="http://www.w3.org/2000/svg">
<g clip-path="url(#clip0_5345_3712)">
<path d="M21.2655 9.24571L21.2229 9.75819C21.1918 10.1333 20.7399 10.2872 20.4863 10.009L20.1399 9.62892C19.5223 8.95127 18.6822 8.53037 17.785 8.44909L17.0949 8.3866C16.7219 8.35279 16.5613 7.88127 16.8362 7.62685L17.3163 7.18259C17.9946 6.55498 18.4066 5.68161 18.4672 4.7429L18.5028 4.19267C18.5276 3.80917 18.9918 3.65114 19.2453 3.93986L19.6093 4.35409C20.2302 5.06077 21.0895 5.50131 22.0098 5.58468L22.6612 5.64371C23.0343 5.6775 23.1948 6.14902 22.9198 6.40347L22.4113 6.87401C21.7501 7.48588 21.3413 8.33199 21.2655 9.24571ZM10.6479 8.34625C13.8566 7.25382 17.3213 8.74651 18.7771 11.7099L21.5029 13.897C21.6824 14.0411 21.7523 14.3236 21.521 14.5317L20.2008 15.7201L20.9875 18.0307C21.2841 18.902 20.8183 19.8489 19.9469 20.1455L18.3699 20.6824L19.1749 23.0493L12.0751 25.4665L11.0832 22.5524C10.7661 21.6208 10.1216 20.8574 9.21359 20.2795C7.97918 19.4939 6.99381 18.2986 6.48556 16.8058C5.29892 13.3204 7.16246 9.53289 10.6479 8.34625ZM24.5601 17.7848L22.9493 17.3565C23.3184 15.9731 23.2961 14.4691 22.8001 13.0121C22.6628 12.6089 22.4946 12.225 22.2991 11.8621L23.6975 10.9458C23.9658 11.4255 24.1944 11.9361 24.3778 12.4749C24.9841 14.2558 25.0113 16.094 24.5601 17.7848Z" fill="#4285F4"/>
</g>
<defs>
<clipPath id="clip0_5345_3712">
<rect width="24" height="24" fill="white" transform="translate(0.473633 7.93567) rotate(-18.8015)"/>
</clipPath>
</defs>
</svg>
