<svg width="248" height="248" viewBox="0 0 248 248" fill="none" xmlns="http://www.w3.org/2000/svg">
<g clip-path="url(#clip0_5345_3676)">
<path d="M176.594 114.39C171.781 112.814 166.897 111.412 161.936 110.284C156.969 109.149 151.935 108.313 146.862 107.783C141.459 107.219 136.02 107.051 130.586 107.28C123.295 107.548 116.068 108.826 109.109 111.076C105.607 112.222 102.211 113.676 98.9598 115.42C97.2728 116.307 95.663 117.336 94.148 118.495C92.5286 119.727 91.121 121.217 89.9823 122.906C89.3614 123.837 88.8825 124.856 88.5617 125.927C88.1979 127.126 88.1229 128.391 88.343 129.62C88.5836 130.894 89.1618 132.077 90.0169 133.045C90.8073 133.937 91.7705 134.658 92.8488 135.165C93.8426 135.639 94.8996 135.969 95.9881 136.144C97.0022 136.301 98.0294 136.362 99.0564 136.327C100.958 136.28 102.853 136.076 104.723 135.716C108.421 135.008 112.01 133.804 115.394 132.137C118.793 130.464 121.937 128.311 124.729 125.743C128.215 122.555 131.02 118.691 132.97 114.388C133.226 113.798 133.446 113.193 133.627 112.576C133.815 111.939 133.949 111.287 134.03 110.628C134.219 109.289 134.175 107.929 133.899 106.609C133.613 105.27 133.077 104 132.319 102.864C131.594 101.783 130.714 100.817 129.705 99.9962C127.813 98.4919 125.682 97.3161 123.399 96.5169C122.311 96.1129 121.203 95.7667 120.078 95.4799C119.52 95.3375 118.96 95.2032 118.398 95.0873C117.835 94.9667 117.299 94.878 116.748 94.7723C112.375 93.9547 107.951 93.4263 103.504 93.1904C85.69 92.3173 67.9034 95.9197 51.7577 103.671C51.1478 103.949 50.5525 104.261 49.9538 104.566C49.3574 104.876 48.7536 105.171 48.1645 105.496C46.9883 106.15 45.8041 106.788 44.6587 107.491C42.3421 108.852 40.1157 110.345 37.9515 111.865C36.2287 113.083 34.5816 114.407 33.0196 115.827C32.3946 116.411 31.8478 116.939 31.3796 117.425C30.9207 117.922 30.5335 118.368 30.2101 118.768C29.2685 119.932 29.4712 120.148 30.5975 119.543C30.8791 119.391 31.2185 119.188 31.6122 118.936C32.0028 118.68 32.4546 118.384 32.9677 118.047C33.4783 117.711 34.0403 117.328 34.6535 116.898C35.2748 116.482 35.9537 116.03 36.6756 115.531C40.503 112.926 44.4682 110.533 48.5533 108.362C57.8863 103.399 67.9278 99.9338 78.3093 98.0923C88.642 96.2216 99.1946 96.0363 109.558 97.5436C110.268 97.6551 110.981 97.767 111.697 97.8795C112.408 98.0129 113.122 98.1466 113.837 98.2807C114.554 98.4037 115.261 98.5802 115.974 98.7284C116.687 98.8831 117.401 99.0302 118.071 99.2064C120.691 99.8334 123.203 100.841 125.528 102.196C127.241 103.236 128.639 104.599 129.352 106.196C129.703 107.004 129.893 107.874 129.91 108.757C129.919 109.219 129.888 109.68 129.818 110.137C129.759 110.599 129.657 111.054 129.513 111.498C129.364 111.964 129.186 112.42 128.979 112.864L128.265 114.296C128.001 114.763 127.742 115.233 127.472 115.697C127.179 116.148 126.904 116.61 126.599 117.053C125.377 118.837 123.976 120.49 122.417 121.987C119.271 124.995 115.602 127.4 111.596 129.08C109.589 129.921 107.518 130.596 105.404 131.098C103.318 131.604 101.189 131.899 99.0481 131.98L98.4608 131.989L98.1672 131.992L97.9009 131.985C97.5507 131.975 97.2016 131.946 96.855 131.898C96.1897 131.807 95.5398 131.63 94.9217 131.37C94.3635 131.138 93.8534 130.804 93.4172 130.386C93.2235 130.201 93.0548 129.991 92.9153 129.762C92.7787 129.55 92.674 129.319 92.6044 129.075C92.5275 128.832 92.4862 128.578 92.4819 128.321C92.4719 128.044 92.494 127.767 92.548 127.494C92.6815 126.869 92.912 126.268 93.2311 125.712C93.5886 125.087 94.0086 124.498 94.4845 123.957C94.9809 123.387 95.5181 122.855 96.092 122.363C97.3066 121.344 98.611 120.437 99.9889 119.655C100.691 119.246 101.413 118.854 102.15 118.472C102.883 118.095 103.622 117.733 104.368 117.384C107.376 116.002 110.483 114.854 113.662 113.95C119.371 112.335 125.243 111.387 131.159 111.126C137.111 110.864 143.071 111.135 148.966 111.937C151.922 112.329 154.863 112.828 157.79 113.432C159.252 113.738 160.71 114.058 162.159 114.426L164.335 114.969L166.5 115.557C167.947 115.936 169.375 116.39 170.813 116.807C172.239 117.267 173.674 117.696 175.091 118.187C177.939 119.125 180.756 120.166 183.566 121.226C192.519 124.654 200.92 128.089 208.683 130.552C212.251 131.687 212.472 130.629 208.673 128.562C203.261 125.703 197.5 122.851 191.631 120.252C186.809 118.106 181.705 116.221 176.615 114.476C176.609 114.447 176.603 114.421 176.594 114.39Z" fill="#F6B51E"/>
<path d="M176.827 131.916C179.942 131.362 183.093 131.05 186.252 130.984C187.091 130.989 187.934 130.986 188.777 131.004C189.62 131.051 190.464 131.108 191.302 131.189C194.926 131.607 198.545 132.311 202.178 133.079L207.639 134.267C209.462 134.665 211.291 135.085 213.131 135.439L213.158 135.444C213.791 135.566 214.448 135.43 214.985 135.066C215.523 134.703 215.895 134.142 216.022 133.506C216.1 133.104 216.077 132.69 215.955 132.302C215.834 131.913 215.618 131.561 215.327 131.278L211.527 127.627C207.454 123.669 203.375 119.709 199.261 115.768C195.147 111.829 191 107.909 186.731 104.083C185.423 102.943 184.054 101.875 182.63 100.886C181.293 99.9239 180.145 99.6333 179.236 99.7071C177.91 99.821 178.015 101.204 179.573 102.875C180.608 103.969 181.709 104.999 182.867 105.961C188.1 110.467 193.035 115.308 197.643 120.454C198.924 121.873 200.208 123.401 201.628 124.606C205.308 127.728 208.667 131.222 212.109 134.62L214.072 130.902C212.973 130.669 211.872 130.454 210.765 130.275C206.4 129.552 202.04 128.583 197.583 127.95C193.582 127.352 189.538 127.065 185.488 127.094C181.436 127.163 177.395 127.586 173.411 128.36C172.622 128.516 171.848 128.689 171.094 128.884C170.346 129.102 169.619 129.344 168.914 129.609C167.546 130.115 166.244 130.788 165.037 131.611C164.499 131.98 164.311 132.387 164.438 132.711C164.564 133.027 165.014 133.294 165.73 133.289C166.731 133.227 167.742 133.105 168.758 133C169.775 132.903 170.793 132.774 171.803 132.63C172.634 132.54 173.467 132.399 174.3 132.242L174.925 132.124L175.552 132.028C175.97 131.967 176.387 131.906 176.804 131.845L176.827 131.916Z" fill="#F6B51E"/>
</g>
<defs>
<clipPath id="clip0_5345_3676">
<rect width="177.938" height="176.391" fill="white" transform="matrix(-0.582415 0.812891 0.812891 0.582415 103.634 0)"/>
</clipPath>
</defs>
</svg>
