<svg width="20" height="20" viewBox="0 0 20 20" fill="none" xmlns="http://www.w3.org/2000/svg">
<path d="M19.8008 5.99805C19.8008 5.99805 19.6055 4.61914 19.0039 4.01367C18.2422 3.2168 17.3906 3.21289 17 3.16602C14.2031 2.96289 10.0039 2.96289 10.0039 2.96289H9.99609C9.99609 2.96289 5.79688 2.96289 3 3.16602C2.60938 3.21289 1.75781 3.2168 0.996094 4.01367C0.394531 4.61914 0.203125 5.99805 0.203125 5.99805C0.203125 5.99805 0 7.61914 0 9.23633V10.752C0 12.3691 0.199219 13.9902 0.199219 13.9902C0.199219 13.9902 0.394531 15.3691 0.992187 15.9746C1.75391 16.7715 2.75391 16.7441 3.19922 16.8301C4.80078 16.9824 10 17.0293 10 17.0293C10 17.0293 14.2031 17.0215 17 16.8223C17.3906 16.7754 18.2422 16.7715 19.0039 15.9746C19.6055 15.3691 19.8008 13.9902 19.8008 13.9902C19.8008 13.9902 20 12.373 20 10.752V9.23633C20 7.61914 19.8008 5.99805 19.8008 5.99805ZM7.93359 12.5918V6.9707L13.3359 9.79102L7.93359 12.5918Z" fill="#FCF6DF"/>
</svg>
